SplineFontDB: 3.0
FontName: XITS-Bold
FullName: XITS Bold
FamilyName: XITS
Weight: Bold
Copyright: Copyright (c) 2001-2011 by the STI Pub Companies, consisting of the American Chemical Society, the American Institute of Physics, the American Mathematical Society, the American Physical Society, Elsevier, Inc., and The Institute of Electrical and Electronic Engineers, Inc.  Portions copyright (c) 1998-2003 by MicroPress, Inc.  Portions copyright (c) 1990 by Elsevier, Inc.  Portions copyright (c) 2009-2011 by Khaled Hosny.  All rights reserved.
Version: $version
DefaultBaseFilename: xits-bold
ItalicAngle: 0
UnderlinePosition: -50
UnderlineWidth: 50
Ascent: 750
Descent: 250
LayerCount: 2
Layer: 0 0 "Back"  1
Layer: 1 0 "Fore"  0
XUID: [1021 862 584604386 6861469]
UniqueID: 4081380
FSType: 0
OS2Version: 4
OS2_WeightWidthSlopeOnly: 0
OS2_UseTypoMetrics: 1
CreationTime: 1232396790
PfmFamily: 81
TTFWeight: 700
TTFWidth: 5
LineGap: 510
VLineGap: 0
OS2TypoAscent: 750
OS2TypoAOffset: 0
OS2TypoDescent: -250
OS2TypoDOffset: 0
OS2TypoLinegap: 510
OS2WinAscent: 0
OS2WinAOffset: 1
OS2WinDescent: 0
OS2WinDOffset: 1
HheadAscent: 750
HheadAOffset: 0
HheadDescent: -250
HheadDOffset: 0
OS2SubXSize: 500
OS2SubYSize: 500
OS2SubXOff: 0
OS2SubYOff: 250
OS2SupXSize: 500
OS2SupYSize: 500
OS2SupXOff: 0
OS2SupYOff: 500
OS2StrikeYSize: 50
OS2StrikeYPos: 313
OS2Vendor: 'STIX'
Lookup: 258 0 0 "'kern' Horizontal Kerning in Latin lookup 0"  {"'kern' Horizontal Kerning in Latin lookup 0 subtable"  } ['kern' ('DFLT' <'dflt' > 'latn' <'dflt' > ) ]
MarkAttachClasses: 1
DEI: 91125

StartChar: exclam
Encoding: 33 33 1
Width: 333
Flags: MW
HStem: -13 169<143.5 189.5> 671 20<138 190>
VStem: 82 169<47.5 95>
LayerCount: 2
Fore
SplineSet
181 234 m 1
 150 234 l 1
 137 358 128 405 99 500 c 0
 85 545 81 565 81 591 c 0
 81 654 111 691 165 691 c 0
 215 691 250 654 250 589 c 0
 250 566 246 544 232 500 c 0
 203 404 194 357 181 234 c 1
251 71 m 0
 251 24 213 -13 166 -13 c 0
 118 -13 82 22 82 70 c 0
 82 120 120 156 167 156 c 0
 216 156 251 120 251 71 c 0
EndSplineSet
EndChar

StartChar: quotedbl
Encoding: 34 34 2
Width: 555
Flags: MW
HStem: 671 20<125 169 384 429>
LayerCount: 2
Fore
SplineSet
429 404 m 1
 386 404 l 1
 351 549 343 600 343 618 c 0
 343 660 361 691 407 691 c 0
 451 691 472 659 472 622 c 0
 472 598 463 552 429 404 c 1
169 404 m 1
 126 404 l 1
 90 547 83 599 83 618 c 0
 83 660 103 691 147 691 c 0
 191 691 212 661 212 622 c 0
 212 598 203 551 169 404 c 1
EndSplineSet
EndChar

StartChar: numbersign
Encoding: 35 35 3
Width: 500
Flags: MW
HStem: 0 20 210 73<5 100 5 111 189 291 5 178 380 466> 417 73<34 129 34 139 34 207 217 320 408 495>
LayerCount: 2
Fore
SplineSet
495 417 m 1
 398 417 l 1
 380 283 l 1
 466 283 l 1
 466 210 l 1
 369 210 l 1
 340 0 l 1
 262 0 l 1
 291 210 l 1
 178 210 l 1
 149 0 l 1
 71 0 l 1
 100 210 l 1
 5 210 l 1
 5 283 l 1
 111 283 l 1
 129 417 l 1
 34 417 l 1
 34 490 l 1
 139 490 l 1
 169 700 l 1
 246 700 l 1
 217 490 l 1
 330 490 l 1
 360 700 l 1
 437 700 l 1
 408 490 l 1
 495 490 l 1
 495 417 l 1
320 417 m 1
 207 417 l 1
 189 283 l 1
 302 283 l 1
 320 417 l 1
EndSplineSet
EndChar

StartChar: dollar
Encoding: 36 36 4
Width: 500
Flags: MW
HStem: 0 20
VStem: 29 95<524 530.5> 213 56<-99 0 -99 0 30 249 454 641 674 750>
LayerCount: 2
Fore
SplineSet
269 641 m 1
 269 427 l 1
 381 360 472 322 472 196 c 0
 472 139 455 93 421 61 c 0
 388 31 350 15 269 0 c 1
 269 -99 l 1
 213 -99 l 1
 213 0 l 1
 151 3 128 9 46 43 c 1
 46 201 l 1
 67 199 l 1
 96 90 139 44 213 30 c 1
 213 280 l 1
 80 349 29 407 29 496 c 0
 29 565 60 616 117 647 c 0
 146 663 168 667 213 672 c 1
 213 750 l 1
 269 750 l 1
 269 674 l 1
 348 663 381 650 428 622 c 1
 428 481 l 1
 407 481 l 1
 381 584 340 629 269 641 c 1
213 454 m 1
 213 644 l 1
 150 628 124 594 124 551 c 0
 124 497 153 475 213 454 c 1
269 249 m 1
 269 30 l 1
 333 42 362 88 362 134 c 0
 362 188 349 204 269 249 c 1
EndSplineSet
EndChar

StartChar: percent
Encoding: 37 37 5
Width: 749
Flags: MW
HStem: -18 28<519.5 535> 300 33<593.5 616 531 621> 322 30<191 205> 584 31<404.5 435> 634 40<238 261.5>
VStem: 332 26<519.5 561.5 519.5 577> 663 25<194.5 243>
LayerCount: 2
Fore
SplineSet
688 214 m 0xde
 688 144 660 71 615 24 c 0
 590 -3 554 -18 516 -18 c 0
 440 -18 388 38 388 120 c 0
 388 233 479 333 583 333 c 0
 649 333 688 288 688 214 c 0xde
663 220 m 0
 663 266 638 300 604 300 c 0
 583 300 563 285 542 254 c 0
 510 206 486 129 486 76 c 0
 486 33 503 10 536 10 c 0
 566 10 591 26 615 61 c 1
 643 104 663 169 663 220 c 0
626 706 m 1
 188 -29 l 1
 140 -29 l 1
 528 626 l 1
 488 596 455 584 415 584 c 0
 394 584 380 587 355 597 c 1
 357 578 358 568 358 555 c 0
 358 484 330 408 288 366 c 0
 260 338 223 322 187 322 c 0x3e
 113 322 61 379 61 461 c 0
 61 575 153 674 258 674 c 0
 284 674 303 666 329 645 c 0
 358 622 376 615 412 615 c 0
 478 615 527 642 578 706 c 1
 626 706 l 1
332 560 m 0
 332 594 326 604 300 614 c 0
 293 617 290 618 279 625 c 0
 268 632 264 634 259 634 c 0
 217 634 157 507 157 418 c 0
 157 376 175 352 207 352 c 0
 271 352 332 453 332 560 c 0
EndSplineSet
EndChar

StartChar: ampersand
Encoding: 38 38 6
Width: 833
Flags: MW
HStem: -16 20 -15 20 658 33<359 399.5>
LayerCount: 2
Fore
SplineSet
789 113 m 1x60
 774 88 l 2
 749 46 733 27 717 15 c 0
 692 -4 655 -16 624 -16 c 0xa0
 571 -16 534 6 475 72 c 1
 393 10 328 -15 253 -15 c 0
 141 -15 62 50 62 167 c 0
 62 256 114 327 258 388 c 1
 214 457 206 488 206 532 c 0
 206 633 280 691 408 691 c 0
 505 691 568 641 568 570 c 0
 568 506 522 462 416 423 c 1
 567 209 l 1
 628 282 643 314 643 354 c 0
 643 383 638 388 579 395 c 1
 579 419 l 1
 783 419 l 1
 783 395 l 1
 740 391 726 385 710 355 c 0
 662 268 645 245 590 176 c 1
 646 104 671 85 709 85 c 0
 734 85 752 98 769 125 c 1
 789 113 l 1x60
467 533 m 0
 467 600 424 658 375 658 c 0
 343 658 323 637 323 602 c 0
 323 561 340 518 397 452 c 1
 447 469 467 492 467 533 c 0
452 100 m 1
 420 145 347 240 275 358 c 1
 220 326 201 302 201 264 c 0
 201 202 229 148 273 103 c 1
 298 76 332 61 362 61 c 0
 388 61 413 72 452 100 c 1
EndSplineSet
EndChar

StartChar: quotesingle
Encoding: 39 39 7
Width: 278
Flags: MW
HStem: 671 20<118 160>
LayerCount: 2
Fore
SplineSet
161 404 m 1
 118 404 l 1
 87 552 75 598 75 617 c 0
 75 662 97 691 139 691 c 0
 181 691 204 664 204 621 c 0
 204 597 195 552 161 404 c 1
EndSplineSet
EndChar

StartChar: parenleft
Encoding: 40 40 8
Width: 333
Flags: MW
HStem: 674 20<306 306>
LayerCount: 2
Fore
SplineSet
306 -140 m 1
 306 -168 l 1
 206 -108 166 -70 115 3 c 0
 65 75 46 163 46 259 c 0
 46 397 92 507 177 599 c 0
 216 640 244 661 306 694 c 1
 306 667 l 1
 171 556 159 479 159 258 c 0
 159 46 183 -34 306 -140 c 1
EndSplineSet
EndChar

StartChar: parenright
Encoding: 41 41 9
Width: 333
Flags: MW
HStem: 674 20<27 27>
LayerCount: 2
Fore
SplineSet
27 666 m 1
 27 694 l 1
 127 634 172 592 218 516 c 0
 263 441 287 356 287 267 c 0
 287 131 241 19 156 -73 c 0
 117 -114 89 -135 27 -168 c 1
 27 -141 l 1
 166 -34 174 37 174 268 c 0
 174 488 160 560 27 666 c 1
EndSplineSet
EndChar

StartChar: asterisk
Encoding: 42 42 10
Width: 500
Flags: MW
HStem: 671 20<237 266>
LayerCount: 2
Fore
SplineSet
260 497 m 1
 267 494 l 1
 304 523 313 530 339 568 c 0
 359 599 373 606 395 606 c 0
 422 606 448 584 448 558 c 0
 448 525 404 505 366 505 c 0
 322 505 310 501 277 479 c 1
 277 471 l 1
 313 454 328 447 374 443 c 0
 428 439 447 425 447 392 c 0
 447 363 430 342 398 342 c 0
 371 342 359 356 323 404 c 0
 303 431 295 439 266 454 c 1
 260 450 l 1
 261 405 268 390 287 352 c 0
 298 331 302 319 302 307 c 0
 302 277 280 255 251 255 c 0
 224 255 202 276 202 307 c 0
 202 323 206 331 218 353 c 0
 238 387 240 404 241 450 c 1
 235 454 l 1
 197 426 188 418 161 379 c 0
 140 348 127 342 106 342 c 0
 78 342 56 362 56 390 c 0
 56 427 88 439 140 443 c 0
 182 446 194 450 226 472 c 1
 226 479 l 1
 186 497 170 501 124 505 c 0
 72 509 56 533 56 558 c 0
 56 587 75 606 103 606 c 0
 131 606 145 597 165 563 c 0
 188 523 198 515 236 494 c 1
 241 497 l 1
 240 539 239 549 218 588 c 0
 204 613 200 624 200 641 c 0
 200 670 222 691 252 691 c 0
 280 691 300 669 300 636 c 0
 300 621 295 612 282 589 c 0
 264 559 260 542 260 512 c 2
 260 497 l 1
EndSplineSet
EndChar

StartChar: plus
Encoding: 43 43 11
Width: 750
Flags: MW
HStem: 209 88<65 331 65 331 419 685>
VStem: 331 88<-57 209 -57 209 297 563>
LayerCount: 2
Fore
SplineSet
685 209 m 1
 419 209 l 1
 419 -57 l 1
 331 -57 l 1
 331 209 l 1
 65 209 l 1
 65 297 l 1
 331 297 l 1
 331 563 l 1
 419 563 l 1
 419 297 l 1
 685 297 l 1
 685 209 l 1
EndSplineSet
EndChar

StartChar: comma
Encoding: 44 44 12
Width: 250
Flags: MW
HStem: -6 20 -4 20
VStem: 155 68<-44.5 74.5>
LayerCount: 2
Fore
SplineSet
57 -180 m 1xa0
 46 -158 l 1
 121 -106 155 -64 155 -25 c 0
 155 -13 147 -4 136 -4 c 0x60
 129 -4 122 -6 112 -6 c 0
 69 -6 39 24 39 70 c 0
 39 122 73 155 123 155 c 0
 186 155 223 110 223 39 c 0
 223 -47 173 -119 57 -180 c 1xa0
EndSplineSet
EndChar

StartChar: hyphen
Encoding: 45 45 13
Width: 333
Flags: W
LayerCount: 2
Fore
SplineSet
287 171 m 1
 44 171 l 1
 44 287 l 1
 287 287 l 1
 287 171 l 1
EndSplineSet
EndChar

StartChar: period
Encoding: 46 46 14
Width: 250
Flags: MW
HStem: -13 169<102.5 148.5>
VStem: 41 169<47.5 94 47.5 94.5>
LayerCount: 2
Fore
SplineSet
210 71 m 0
 210 24 172 -13 125 -13 c 0
 77 -13 41 23 41 71 c 0
 41 118 79 156 126 156 c 0
 172 156 210 117 210 71 c 0
EndSplineSet
EndChar

StartChar: slash
Encoding: 47 47 15
Width: 278
Flags: MW
HStem: -19 20 671 20<212 302 302 302>
LayerCount: 2
Fore
SplineSet
302 691 m 1
 66 -19 l 1
 -24 -19 l 1
 212 691 l 1
 302 691 l 1
EndSplineSet
EndChar

StartChar: zero
Encoding: 48 48 16
Width: 500
Flags: MW
HStem: -13 28<226 276 226 316> 660 28<224.5 273.5>
LayerCount: 2
Fore
SplineSet
476 337 m 0
 476 126 381 -13 251 -13 c 0
 120 -13 24 126 24 334 c 0
 24 497 82 688 253 688 c 0
 412 688 476 503 476 337 c 0
318 224 m 2
 318 449 l 2
 318 596 298 660 249 660 c 0
 200 660 182 601 182 449 c 2
 182 224 l 2
 182 75 201 15 251 15 c 0
 301 15 318 75 318 224 c 2
EndSplineSet
EndChar

StartChar: one
Encoding: 49 49 17
Width: 500
Flags: MW
HStem: 0 20 668 20<316 334 334 334>
LayerCount: 2
Fore
SplineSet
441 0 m 1
 68 0 l 1
 68 24 l 1
 167 25 186 42 186 129 c 2
 186 507 l 2
 186 554 175 577 150 577 c 0
 137 577 113 572 85 561 c 2
 65 553 l 1
 65 579 l 1
 316 688 l 1
 334 688 l 1
 334 118 l 2
 334 42 350 26 441 24 c 1
 441 0 l 1
EndSplineSet
EndChar

StartChar: two
Encoding: 50 50 18
Width: 500
Flags: MW
HStem: 0 20 668 20<204 308>
LayerCount: 2
Fore
SplineSet
478 211 m 1
 432 0 l 1
 17 0 l 1
 17 23 l 1
 163 179 198 221 249 299 c 0
 281 348 300 403 300 447 c 0
 300 515 260 574 181 574 c 0
 133 574 90 546 59 484 c 1
 31 484 l 1
 78 624 154 688 254 688 c 0
 362 688 436 618 436 505 c 0
 436 429 401 362 322 287 c 2
 160 133 l 1
 300 133 l 2
 404 133 427 139 453 211 c 1
 478 211 l 1
EndSplineSet
EndChar

StartChar: three
Encoding: 51 51 19
Width: 500
Flags: MW
HStem: -14 50<244 254.5> 607 81<158 317>
LayerCount: 2
Fore
SplineSet
58 524 m 1
 37 536 l 1
 90 638 167 688 266 688 c 0
 368 688 430 622 430 551 c 0
 430 505 407 451 346 424 c 1
 422 397 468 327 468 246 c 0
 468 100 341 -14 168 -14 c 0
 76 -14 16 22 16 76 c 0
 16 110 43 136 81 136 c 0
 112 136 140 120 177 79 c 0
 209 44 232 36 256 36 c 0
 316 36 354 86 354 158 c 0
 354 206 336 250 305 279 c 0
 269 313 235 327 152 356 c 1
 152 373 l 1
 247 403 283 445 283 504 c 0
 283 574 247 607 184 607 c 0
 132 607 96 586 58 524 c 1
EndSplineSet
EndChar

StartChar: four
Encoding: 52 52 20
Width: 500
Flags: MW
HStem: 0 20 668 20<332 412 412 412>
LayerCount: 2
Fore
SplineSet
476 144 m 1
 412 144 l 1
 412 0 l 1
 267 0 l 1
 267 144 l 1
 19 144 l 1
 19 257 l 1
 332 688 l 1
 412 688 l 1
 412 255 l 1
 476 255 l 1
 476 144 l 1
268 255 m 1
 268 549 l 1
 60 255 l 1
 268 255 l 1
EndSplineSet
EndChar

StartChar: five
Encoding: 53 53 21
Width: 500
Flags: MW
HStem: -8 61<124.5 301> 656 20<148 470 470 470>
VStem: 373 78<161 191>
LayerCount: 2
Fore
SplineSet
470 676 m 1
 425 549 l 1
 149 549 l 1
 127 468 l 1
 209 463 240 459 278 448 c 0
 387 417 451 338 451 234 c 0
 451 88 334 -8 169 -8 c 0
 80 -8 22 33 22 80 c 0
 22 115 48 141 83 141 c 0
 110 141 142 130 183 95 c 0
 218 65 250 53 273 53 c 0
 329 53 373 96 373 157 c 0
 373 225 323 280 231 309 c 0
 188 322 142 326 51 331 c 1
 148 676 l 1
 470 676 l 1
EndSplineSet
EndChar

StartChar: six
Encoding: 54 54 22
Width: 500
Flags: MW
HStem: -13 27<250 284.5 250 324.5> 376 45<226 345> 668 20<470 470>
LayerCount: 2
Fore
SplineSet
470 688 m 1
 470 662 l 1
 324 632 242 549 204 404 c 1
 234 417 256 421 288 421 c 0
 402 421 475 343 475 222 c 0
 475 82 389 -13 260 -13 c 0
 119 -13 28 97 28 274 c 0
 28 394 78 493 167 571 c 0
 255 648 321 661 470 688 c 1
323 165 m 0
 323 321 300 376 234 376 c 0
 218 376 204 372 197 366 c 0
 190 360 184 303 184 245 c 0
 184 149 194 76 211 43 c 0
 221 24 238 14 262 14 c 0
 307 14 323 43 323 165 c 0
EndSplineSet
EndChar

StartChar: seven
Encoding: 55 55 23
Width: 500
Flags: MW
HStem: 0 20 656 20<62 477 477 477>
LayerCount: 2
Fore
SplineSet
477 676 m 1
 242 0 l 1
 147 0 l 1
 347 539 l 1
 148 539 l 2
 84 539 62 518 43 454 c 1
 17 454 l 1
 62 676 l 1
 477 676 l 1
EndSplineSet
EndChar

StartChar: eight
Encoding: 56 56 24
Width: 500
Flags: MW
HStem: -13 32<211.5 269 211.5 312.5> 659 29<227.5 279>
LayerCount: 2
Fore
SplineSet
472 187 m 0
 472 67 385 -13 240 -13 c 0
 113 -13 28 50 28 157 c 0
 28 246 83 302 177 325 c 1
 78 384 39 437 39 513 c 0
 39 619 125 688 263 688 c 0
 388 688 458 623 458 543 c 0
 458 479 417 432 322 403 c 1
 435 326 472 271 472 187 c 0
339 537 m 0
 339 605 307 659 251 659 c 0
 204 659 168 623 168 576 c 0
 168 520 214 465 298 422 c 1
 331 466 339 489 339 537 c 0
333 127 m 0
 333 201 309 233 200 306 c 1
 159 246 149 204 149 161 c 0
 149 72 181 19 242 19 c 0
 296 19 333 56 333 127 c 0
EndSplineSet
EndChar

StartChar: nine
Encoding: 57 57 25
Width: 500
Flags: MW
HStem: -13 20 254 45<156.5 270.5> 661 27<215.5 251>
LayerCount: 2
Fore
SplineSet
31 -13 m 1
 31 13 l 1
 175 42 257 125 299 273 c 1
 272 259 250 254 211 254 c 0
 102 254 26 333 26 459 c 0
 26 588 116 688 241 688 c 0
 381 688 473 573 473 394 c 0
 473 274 421 170 328 97 c 0
 240 28 182 4 31 -13 c 1
317 461 m 0
 317 530 306 600 292 628 c 0
 280 651 264 661 238 661 c 0
 193 661 178 631 178 513 c 0
 178 358 201 299 263 299 c 0
 278 299 297 303 304 308 c 0
 307 310 308 315 309 328 c 1
 316 355 317 384 317 414 c 0
 317 430 317 445 317 461 c 0
EndSplineSet
EndChar

StartChar: colon
Encoding: 58 58 26
Width: 333
Flags: MW
HStem: -13 169<143.5 189.5> 303 169<143 189.5>
VStem: 82 169<47.5 94 47.5 94.5 364 410.5>
LayerCount: 2
Fore
SplineSet
251 387 m 0
 251 340 213 303 166 303 c 0
 119 303 82 340 82 388 c 0
 82 435 119 472 167 472 c 0
 213 472 251 434 251 387 c 0
251 71 m 0
 251 24 213 -13 166 -13 c 0
 118 -13 82 23 82 71 c 0
 82 118 120 156 167 156 c 0
 213 156 251 117 251 71 c 0
EndSplineSet
EndChar

StartChar: semicolon
Encoding: 59 59 27
Width: 333
Flags: MW
HStem: -6 20 -4 20 303 169<143 189.5>
VStem: 82 169<364 410.5 363.5 411.5> 198 68<-44.5 74.5>
LayerCount: 2
Fore
SplineSet
251 387 m 0xb0
 251 340 213 303 166 303 c 0
 119 303 82 340 82 388 c 0
 82 435 119 472 167 472 c 0
 213 472 251 434 251 387 c 0xb0
100 -180 m 1xa8
 89 -158 l 1
 164 -106 198 -64 198 -25 c 0
 198 -13 190 -4 179 -4 c 0x48
 172 -4 165 -6 155 -6 c 0
 112 -6 82 24 82 70 c 0xb0
 82 122 116 155 166 155 c 0
 229 155 266 110 266 39 c 0
 266 -47 216 -119 100 -180 c 1xa8
EndSplineSet
EndChar

StartChar: less
Encoding: 60 60 28
Width: 750
Flags: W
LayerCount: 2
Fore
SplineSet
670 -24 m 1
 80 234 l 1
 80 274 l 1
 670 534 l 1
 670 446 l 1
 234 254 l 1
 670 64 l 1
 670 -24 l 1
EndSplineSet
EndChar

StartChar: equal
Encoding: 61 61 29
Width: 750
Flags: MW
HStem: 107 88<68 682 68 682> 311 88<68 682 68 682>
LayerCount: 2
Fore
SplineSet
682 311 m 1
 68 311 l 1
 68 399 l 1
 682 399 l 1
 682 311 l 1
682 107 m 1
 68 107 l 1
 68 195 l 1
 682 195 l 1
 682 107 l 1
EndSplineSet
EndChar

StartChar: greater
Encoding: 62 62 30
Width: 750
Flags: W
LayerCount: 2
Fore
SplineSet
670 234 m 1
 80 -24 l 1
 80 64 l 1
 516 254 l 1
 80 446 l 1
 80 534 l 1
 670 274 l 1
 670 234 l 1
EndSplineSet
EndChar

StartChar: question
Encoding: 63 63 31
Width: 500
Flags: MW
HStem: -13 169<216 262.5 216 262.5> 446 20<103.5 138.5> 653 36<193.5 238.5>
VStem: 57 94<522 625> 154 169<47.5 94 47.5 94.5>
LayerCount: 2
Fore
SplineSet
253 232 m 1
 223 232 l 1
 220 257 220 266 220 277 c 0
 223 370 296 434 296 523 c 0
 296 605 265 653 212 653 c 0
 175 653 151 637 151 613 c 0
 151 603 154 597 166 584 c 0
 183 565 188 553 188 533 c 0
 188 495 154 466 123 466 c 0
 84 466 57 500 57 544 c 0
 57 627 131 689 241 689 c 0
 368 689 445 618 445 523 c 0
 445 454 416 414 324 357 c 0
 261 318 253 305 253 232 c 1
323 71 m 0
 323 24 286 -13 239 -13 c 0
 191 -13 154 24 154 71 c 0
 154 118 192 156 240 156 c 0
 285 156 323 117 323 71 c 0
EndSplineSet
EndChar

StartChar: at
Encoding: 64 64 32
Width: 930
Flags: MW
HStem: -19 46<407.5 524.5> 144 36<632 677.5 632 679> 144 47<437 438> 471 48<492 540 455.5 546.5> 652 39<404 565>
VStem: 108 92<238 420 238 430.5> 319 77<251 317> 775 47<332 457.5>
LayerCount: 2
Fore
SplineSet
698 76 m 1xdf
 711 41 l 1
 614 -5 562 -19 487 -19 c 0
 274 -19 108 130 108 330 c 0
 108 531 279 691 489 691 c 0
 682 691 822 560 822 390 c 0
 822 249 730 144 628 144 c 0xcf
 578 144 546 173 539 218 c 1
 504 172 463 144 413 144 c 0x27
 355 144 319 194 319 258 c 0
 319 376 389 519 522 519 c 0
 558 519 573 509 595 466 c 1
 606 506 l 1
 677 506 l 1
 611 246 l 2
 610 241 609 234 609 228 c 0
 609 197 620 180 644 180 c 0
 711 180 775 279 775 385 c 0
 775 530 643 652 487 652 c 0
 321 652 200 515 200 325 c 0
 200 151 320 27 495 27 c 0
 563 27 617 39 698 76 c 1xdf
577 411 m 0x37
 577 450 561 471 532 471 c 0
 452 471 396 358 396 278 c 0
 396 224 419 191 455 191 c 0
 486 191 516 216 538 259 c 0
 560 303 577 369 577 411 c 0x37
EndSplineSet
EndChar

StartChar: A
Encoding: 65 65 33
Width: 722
Flags: MW
HStem: 0 20 197 39<189 384 189 399 174 384> 670 20<329 357 357 357>
LayerCount: 2
Fore
SplineSet
689 0 m 1
 367 0 l 1
 367 25 l 1
 399 28 l 2
 432 31 445 39 445 61 c 0
 445 83 433 118 399 197 c 1
 174 197 l 1
 161 163 l 2
 149 132 130 90 130 66 c 0
 130 40 152 29 211 25 c 1
 211 0 l 1
 9 0 l 1
 9 25 l 1
 55 33 70 51 108 145 c 2
 329 690 l 1
 357 690 l 1
 579 168 l 2
 630 47 648 25 689 25 c 1
 689 0 l 1
384 236 m 1
 283 479 l 1
 189 236 l 1
 384 236 l 1
EndSplineSet
EndChar

StartChar: B
Encoding: 66 66 34
Width: 667
Flags: MW
HStem: 0 32<305 345> 646 30<301 333 333 355>
LayerCount: 2
Fore
SplineSet
426 365 m 1
 426 364 l 1
 536 350 619 283 619 188 c 0
 619 81 523 0 345 0 c 2
 16 0 l 1
 16 25 l 1
 89 33 104 47 104 103 c 2
 104 570 l 2
 104 629 84 646 16 651 c 1
 16 676 l 1
 333 676 l 2
 494 676 585 619 585 516 c 0
 585 440 543 389 426 365 c 1
264 592 m 2
 264 373 l 1
 389 373 420 411 420 509 c 0
 420 597 389 646 321 646 c 0
 281 646 264 631 264 592 c 2
264 343 m 1
 264 98 l 2
 264 50 283 32 327 32 c 0
 405 32 447 87 447 188 c 0
 447 290 396 343 290 343 c 2
 264 343 l 1
EndSplineSet
EndChar

StartChar: C
Encoding: 67 67 35
Width: 722
Flags: MW
HStem: -19 48<397.5 449 397.5 456.5> 658 33<357.5 420 294 443.5>
LayerCount: 2
Fore
SplineSet
657 152 m 1
 687 127 l 1
 594 12 514 -19 399 -19 c 0
 184 -19 49 128 49 323 c 0
 49 535 192 691 396 691 c 0
 444 691 494 680 552 656 c 0
 575 646 588 642 598 642 c 0
 617 642 627 652 642 688 c 1
 669 688 l 1
 669 453 l 1
 644 453 l 1
 625 507 601 540 577 568 c 0
 531 623 477 658 410 658 c 0
 305 658 226 545 226 345 c 0
 226 244 238 171 280 105 c 0
 309 59 368 29 427 29 c 0
 471 29 513 41 553 63 c 0
 585 81 613 106 657 152 c 1
EndSplineSet
EndChar

StartChar: D
Encoding: 68 68 36
Width: 722
Flags: MW
HStem: 0 35<294.5 323> 642 34<292.5 326 326 349.5>
LayerCount: 2
Fore
SplineSet
14 676 m 1
 326 676 l 2
 554 676 690 551 690 345 c 0
 690 242 647 144 575 81 c 0
 514 28 424 0 323 0 c 2
 14 0 l 1
 14 25 l 1
 72 27 97 50 97 98 c 2
 97 584 l 2
 97 630 78 645 14 651 c 1
 14 676 l 1
259 598 m 2
 259 100 l 2
 259 55 272 35 317 35 c 0
 383 35 432 59 466 107 c 0
 497 152 516 242 516 330 c 0
 516 416 504 490 475 541 c 0
 437 607 387 642 312 642 c 0
 273 642 259 626 259 598 c 2
EndSplineSet
EndChar

StartChar: E
Encoding: 69 69 37
Width: 667
Flags: MW
HStem: 0 31<316.5 388 316.5 601> 642 34<305 412.5>
LayerCount: 2
Fore
SplineSet
641 208 m 1
 601 0 l 1
 16 0 l 1
 16 25 l 1
 90 33 104 49 104 101 c 2
 104 580 l 2
 104 631 85 647 16 651 c 1
 16 676 l 1
 593 676 l 1
 593 475 l 1
 568 475 l 1
 545 609 494 642 331 642 c 0
 279 642 266 626 266 588 c 2
 266 363 l 1
 372 364 416 396 428 512 c 1
 454 512 l 1
 454 174 l 1
 428 174 l 1
 418 293 375 329 266 329 c 1
 266 87 l 2
 266 44 284 31 349 31 c 0
 427 31 484 46 531 85 c 0
 565 113 583 143 613 208 c 1
 641 208 l 1
EndSplineSet
EndChar

StartChar: F
Encoding: 70 70 38
Width: 611
Flags: MW
HStem: 0 20 642 34<310.5 380>
LayerCount: 2
Fore
SplineSet
583 474 m 1
 559 474 l 1
 545 550 534 573 499 603 c 0
 468 630 424 642 336 642 c 0
 285 642 266 628 266 591 c 2
 266 363 l 1
 366 363 405 399 419 512 c 1
 444 512 l 1
 444 174 l 1
 419 174 l 1
 409 292 368 327 266 329 c 1
 266 101 l 2
 266 44 284 29 376 25 c 1
 376 0 l 1
 16 0 l 1
 16 25 l 1
 90 33 104 47 104 103 c 2
 104 575 l 2
 104 633 85 647 16 651 c 1
 16 676 l 1
 583 676 l 1
 583 474 l 1
EndSplineSet
EndChar

StartChar: G
Encoding: 71 71 39
Width: 778
Flags: MW
HStem: -19 33<378.5 444> 658 33<340 411 285 421.5>
LayerCount: 2
Fore
SplineSet
755 287 m 1
 755 262 l 1
 680 254 669 225 669 162 c 2
 669 44 l 1
 604 6 496 -19 392 -19 c 0
 191 -19 37 117 37 331 c 0
 37 530 185 691 385 691 c 0
 437 691 482 680 540 656 c 0
 563 646 576 642 586 642 c 0
 605 642 615 652 630 688 c 1
 657 688 l 1
 657 453 l 1
 632 453 l 1
 597 529 579 564 536 602 c 0
 493 640 445 658 398 658 c 0
 282 658 214 545 214 338 c 0
 214 235 229 156 262 101 c 0
 297 43 340 14 417 14 c 0
 488 14 513 48 513 99 c 2
 513 188 l 2
 513 240 497 257 411 262 c 1
 411 287 l 1
 755 287 l 1
EndSplineSet
EndChar

StartChar: H
Encoding: 72 72 40
Width: 778
Flags: MW
HStem: 0 20 326 47<268 509 268 509> 656 20<21 357 357 357 420 759 759 759>
LayerCount: 2
Fore
SplineSet
759 0 m 1
 420 0 l 1
 420 25 l 1
 493 33 509 47 509 98 c 2
 509 326 l 1
 268 326 l 1
 268 98 l 2
 268 45 284 33 357 25 c 1
 357 0 l 1
 21 0 l 1
 21 25 l 1
 91 34 106 45 106 98 c 2
 106 577 l 2
 106 632 88 645 21 651 c 1
 21 676 l 1
 357 676 l 1
 357 651 l 1
 287 646 268 633 268 577 c 2
 268 373 l 1
 509 373 l 1
 509 577 l 2
 509 633 490 646 420 651 c 1
 420 676 l 1
 759 676 l 1
 759 651 l 1
 691 646 671 631 671 577 c 2
 671 98 l 2
 671 45 687 34 759 25 c 1
 759 0 l 1
EndSplineSet
EndChar

StartChar: I
Encoding: 73 73 41
Width: 389
Flags: MW
HStem: 0 20 656 20<20 370 370 370>
LayerCount: 2
Fore
SplineSet
370 0 m 1
 20 0 l 1
 20 25 l 1
 95 32 113 44 113 106 c 2
 113 576 l 2
 113 632 92 646 20 651 c 1
 20 676 l 1
 370 676 l 1
 370 651 l 1
 296 648 275 632 275 576 c 2
 275 106 l 2
 275 41 294 30 370 25 c 1
 370 0 l 1
EndSplineSet
EndChar

StartChar: J
Encoding: 74 74 42
Width: 500
Flags: MW
HStem: -96 33<158 187 150 247.5> 656 20<127 478 478 478>
LayerCount: 2
Fore
SplineSet
478 676 m 1
 478 651 l 1
 403 646 390 628 390 556 c 2
 390 126 l 2
 390 -25 317 -96 178 -96 c 0
 138 -96 95 -90 70 -73 c 0
 33 -48 3 -5 3 37 c 0
 3 74 37 111 74 111 c 0
 112 111 146 75 146 35 c 0
 146 5 119 -5 119 -31 c 0
 119 -51 136 -63 164 -63 c 0
 210 -63 228 -35 228 27 c 2
 228 577 l 2
 228 635 208 648 127 651 c 1
 127 676 l 1
 478 676 l 1
EndSplineSet
EndChar

StartChar: K
Encoding: 75 75 43
Width: 778
Flags: MW
HStem: 0 20 656 20<30 367 367 367 448 737 737 737>
LayerCount: 2
Fore
SplineSet
769 0 m 1
 435 0 l 1
 435 25 l 1
 500 27 512 33 512 46 c 0
 512 57 506 67 487 91 c 2
 306 316 l 1
 279 291 l 1
 279 95 l 2
 279 46 294 34 366 25 c 1
 366 0 l 1
 30 0 l 1
 30 25 l 1
 104 32 117 44 117 101 c 2
 117 573 l 2
 117 635 99 647 30 651 c 1
 30 676 l 1
 367 676 l 1
 367 651 l 1
 293 646 279 628 279 567 c 2
 279 344 l 1
 491 559 l 2
 522 590 531 601 531 617 c 0
 531 637 519 645 483 648 c 2
 448 651 l 1
 448 676 l 1
 737 676 l 1
 737 651 l 1
 638 639 601 622 415 424 c 1
 720 46 l 2
 732 31 744 26 769 25 c 1
 769 0 l 1
EndSplineSet
EndChar

StartChar: L
Encoding: 76 76 44
Width: 667
Flags: MW
HStem: 0 31<319.5 393.5 319.5 596> 657 20<367 367>
LayerCount: 2
Fore
SplineSet
638 227 m 1
 596 0 l 1
 19 0 l 1
 19 25 l 1
 92 34 105 45 105 98 c 2
 105 576 l 2
 105 633 87 647 19 651 c 1
 19 676 l 1
 367 677 l 1
 367 652 l 1
 280 648 267 635 267 553 c 2
 267 89 l 2
 267 46 287 31 352 31 c 0
 435 31 481 49 522 86 c 0
 556 117 582 165 609 227 c 1
 638 227 l 1
EndSplineSet
EndChar

StartChar: M
Encoding: 77 77 45
Width: 944
Flags: MW
HStem: 0 20 656 20<16 269 269 269 669 921 921 921>
VStem: 105 42<108 129 129 577 577 594>
LayerCount: 2
Fore
SplineSet
921 0 m 1
 589 0 l 1
 589 25 l 1
 664 32 678 50 678 109 c 2
 678 605 l 1
 426 0 l 1
 399 0 l 1
 147 594 l 1
 147 129 l 2
 147 53 166 31 248 25 c 1
 248 0 l 1
 14 0 l 1
 14 25 l 1
 92 33 105 43 105 108 c 2
 105 577 l 2
 105 631 89 645 16 651 c 1
 16 676 l 1
 269 676 l 1
 468 204 l 1
 669 676 l 1
 921 676 l 1
 921 651 l 1
 848 646 833 629 833 554 c 2
 833 126 l 2
 833 53 841 32 921 25 c 1
 921 0 l 1
EndSplineSet
EndChar

StartChar: N
Encoding: 78 78 46
Width: 722
Flags: MW
HStem: -18 20 0 20 656 20<19 230 230 230 487 701 701 701>
VStem: 104 44<109 131 131 527> 579 44<246 545 545 568 -18 585>
LayerCount: 2
Fore
SplineSet
701 676 m 1x78
 701 651 l 1
 636 641 623 631 623 568 c 2
 623 -18 l 1
 595 -18 l 1xb8
 148 527 l 1
 148 131 l 2
 148 54 165 34 242 25 c 1
 242 0 l 1
 16 0 l 1
 16 25 l 1
 89 34 104 48 104 109 c 2
 104 579 l 1
 62 637 39 651 19 651 c 1
 19 676 l 1
 230 676 l 1
 579 246 l 1
 579 545 l 2
 579 625 561 644 487 651 c 1
 487 676 l 1
 701 676 l 1x78
EndSplineSet
EndChar

StartChar: O
Encoding: 79 79 47
Width: 778
Flags: MW
HStem: -19 33<333 447.5 333 491.5> 658 33<330 443.5>
LayerCount: 2
Fore
SplineSet
743 335 m 0
 743 127 595 -19 388 -19 c 0
 181 -19 35 127 35 334 c 0
 35 547 186 691 394 691 c 0
 595 691 743 542 743 335 c 0
566 328 m 0
 566 541 502 658 385 658 c 0
 275 658 212 540 212 330 c 0
 212 119 276 14 390 14 c 0
 505 14 566 122 566 328 c 0
EndSplineSet
EndChar

StartChar: P
Encoding: 80 80 48
Width: 611
Flags: MW
HStem: 0 20 641 35<295.5 331 331 353.5>
LayerCount: 2
Fore
SplineSet
16 676 m 1
 331 676 l 2
 498 676 600 617 600 495 c 0
 600 415 554 354 471 323 c 0
 428 307 394 304 262 303 c 1
 262 111 l 2
 262 44 270 35 349 25 c 1
 349 0 l 1
 16 0 l 1
 16 25 l 1
 35 27 50 29 61 34 c 0
 94 47 100 75 100 126 c 2
 100 553 l 2
 100 631 86 645 16 651 c 1
 16 676 l 1
262 606 m 2
 262 338 l 1
 387 339 428 373 428 484 c 0
 428 595 395 641 312 641 c 0
 279 641 262 629 262 606 c 2
EndSplineSet
EndChar

StartChar: Q
Encoding: 81 81 49
Width: 778
Flags: MW
HStem: -176 47<513 670> 658 33<332 445>
LayerCount: 2
Fore
SplineSet
730 -117 m 1
 736 -141 l 1
 671 -166 624 -176 557 -176 c 0
 469 -176 385 -144 329 -88 c 0
 306 -65 294 -46 273 -2 c 1
 120 44 35 175 35 330 c 0
 35 547 184 691 389 691 c 0
 595 691 743 547 743 327 c 0
 743 156 648 42 490 -6 c 1
 508 -43 518 -58 537 -77 c 0
 571 -111 613 -129 660 -129 c 0
 680 -129 697 -127 730 -117 c 1
566 335 m 0
 566 547 502 658 388 658 c 0
 276 658 212 544 212 335 c 0
 212 128 273 14 389 14 c 0
 505 14 566 130 566 335 c 0
EndSplineSet
EndChar

StartChar: R
Encoding: 82 82 50
Width: 722
Flags: MW
HStem: 0 20 642 34<309.5 334 334 375.5>
LayerCount: 2
Fore
SplineSet
716 0 m 1
 511 0 l 1
 304 313 l 1
 276 313 l 1
 276 117 l 2
 276 44 286 35 364 25 c 1
 364 0 l 1
 26 0 l 1
 26 25 l 1
 104 34 114 41 114 120 c 2
 114 551 l 2
 114 629 100 646 26 651 c 1
 26 676 l 1
 334 676 l 2
 529 676 630 619 630 504 c 0
 630 459 614 413 585 386 c 0
 557 361 531 345 473 329 c 1
 672 47 l 2
 681 34 698 25 716 25 c 1
 716 0 l 1
276 597 m 2
 276 345 l 1
 407 346 459 372 459 494 c 0
 459 600 422 642 329 642 c 0
 290 642 276 630 276 597 c 2
EndSplineSet
EndChar

StartChar: S
Encoding: 83 83 51
Width: 556
Flags: MW
HStem: -19 33<243 306.5 239 339> 660 31<228.5 282.5 195 285.5> 672 20<454 484 484 484>
LayerCount: 2
Fore
SplineSet
484 474 m 1x20
 456 474 l 1
 436 539 420 569 386 604 c 0
 350 641 308 660 263 660 c 0
 194 660 153 618 153 561 c 0
 153 512 176 489 256 447 c 0
 305 421 353 398 404 370 c 0
 468 335 513 270 513 194 c 0
 513 68 413 -19 265 -19 c 0
 221 -19 184 -12 135 5 c 0
 113 12 102 15 94 15 c 0
 78 15 70 7 64 -19 c 1
 35 -19 l 1
 35 229 l 1
 64 229 l 1
 81 158 95 123 124 86 c 0
 162 38 210 14 268 14 c 0
 345 14 394 58 394 127 c 0
 394 163 371 191 337 215 c 0
 303 239 258 259 215 280 c 0
 102 334 44 389 44 490 c 0
 44 617 127 691 263 691 c 0xc0
 302 691 334 685 380 668 c 0
 401 661 413 658 422 658 c 0
 440 658 447 665 454 692 c 1
 484 692 l 1
 484 474 l 1x20
EndSplineSet
EndChar

StartChar: T
Encoding: 84 84 52
Width: 667
Flags: MW
HStem: 0 20 656 20<34 634 634 634>
LayerCount: 2
Fore
SplineSet
636 475 m 1
 607 475 l 1
 590 594 538 640 415 644 c 1
 415 117 l 2
 415 41 426 31 513 25 c 1
 513 0 l 1
 156 0 l 1
 156 25 l 1
 242 32 253 43 253 117 c 2
 253 644 l 1
 129 640 77 594 60 475 c 1
 31 475 l 1
 34 676 l 1
 634 676 l 1
 636 475 l 1
EndSplineSet
EndChar

StartChar: U
Encoding: 85 85 53
Width: 722
Flags: MW
HStem: -19 49<354.5 398.5> 656 20<16 352 352 352 482 701 701 701>
VStem: 579 44<252 552 552 566>
LayerCount: 2
Fore
SplineSet
701 676 m 1
 701 651 l 1
 637 641 623 625 623 566 c 2
 623 252 l 2
 623 152 596 75 547 36 c 0
 504 1 434 -19 363 -19 c 0
 289 -19 225 -2 178 35 c 0
 121 80 98 134 98 231 c 2
 98 555 l 2
 98 636 86 644 16 651 c 1
 16 676 l 1
 352 676 l 1
 352 651 l 1
 274 645 257 632 257 550 c 2
 257 232 l 2
 257 93 306 30 403 30 c 0
 520 30 579 104 579 252 c 2
 579 552 l 2
 579 625 556 645 482 651 c 1
 482 676 l 1
 701 676 l 1
EndSplineSet
EndChar

StartChar: V
Encoding: 86 86 54
Width: 722
Flags: MW
HStem: -18 20 656 20<16 352 352 352 488 701 701 701>
LayerCount: 2
Fore
SplineSet
701 676 m 1
 701 651 l 1
 649 644 635 631 611 569 c 2
 383 -18 l 1
 356 -18 l 1
 100 581 l 2
 76 637 66 644 16 651 c 1
 16 676 l 1
 352 676 l 1
 352 651 l 1
 319 649 l 2
 281 647 266 636 266 613 c 0
 266 598 269 589 289 541 c 2
 427 207 l 1
 554 536 l 2
 571 580 574 591 574 607 c 0
 574 639 559 646 488 651 c 1
 488 676 l 1
 701 676 l 1
EndSplineSet
EndChar

StartChar: W
Encoding: 87 87 55
Width: 1000
Flags: MW
HStem: -15 20 656 20<19 313 313 313 387 699 699 699 799 981 981 981>
LayerCount: 2
Fore
SplineSet
981 676 m 1
 981 651 l 1
 948 648 925 627 912 587 c 2
 712 -15 l 1
 685 -15 l 1
 514 462 l 1
 328 -15 l 1
 300 -15 l 1
 88 587 l 2
 71 636 61 645 19 651 c 1
 19 676 l 1
 313 676 l 1
 313 651 l 1
 261 647 249 638 249 609 c 0
 249 600 250 593 256 576 c 2
 376 212 l 1
 494 520 l 1
 459 616 l 2
 450 641 428 649 387 651 c 1
 387 676 l 1
 699 676 l 1
 699 651 l 1
 686 650 l 2
 642 647 627 638 627 614 c 0
 627 604 630 592 641 558 c 2
 749 222 l 1
 861 565 l 2
 866 579 868 594 868 607 c 0
 868 638 853 648 799 651 c 1
 799 676 l 1
 981 676 l 1
EndSplineSet
EndChar

StartChar: X
Encoding: 88 88 56
Width: 722
Flags: MW
HStem: 0 20 656 20<17 363 363 363 438 688 688 688>
LayerCount: 2
Fore
SplineSet
699 0 m 1
 359 0 l 1
 359 25 l 1
 387 27 l 2
 422 29 439 38 439 55 c 0
 439 67 430 90 418 109 c 2
 317 271 l 1
 279 220 l 2
 204 119 185 88 185 67 c 0
 185 41 205 31 266 25 c 1
 266 0 l 1
 16 0 l 1
 16 25 l 1
 66 31 90 44 120 81 c 2
 295 302 l 1
 97 593 l 2
 66 638 53 648 17 651 c 1
 17 676 l 1
 363 676 l 1
 363 651 l 1
 332 649 l 2
 296 647 284 639 284 618 c 0
 284 606 286 601 299 581 c 2
 396 431 l 1
 414 456 432 481 452 508 c 0
 499 573 510 592 510 614 c 0
 510 638 497 645 459 649 c 2
 438 651 l 1
 438 676 l 1
 688 676 l 1
 688 651 l 1
 613 644 587 626 500 505 c 2
 420 394 l 1
 602 111 l 2
 649 38 665 26 699 25 c 1
 699 0 l 1
EndSplineSet
EndChar

StartChar: Y
Encoding: 89 89 57
Width: 722
Flags: MW
HStem: 0 20 656 20<15 350 350 350 479 699 699 699>
LayerCount: 2
Fore
SplineSet
699 676 m 1
 699 651 l 1
 665 646 645 635 631 612 c 2
 440 301 l 1
 440 123 l 2
 440 45 453 32 532 25 c 1
 532 0 l 1
 185 0 l 1
 185 25 l 1
 268 32 278 53 278 128 c 2
 278 264 l 1
 98 592 l 2
 79 626 49 649 15 651 c 1
 15 676 l 1
 350 676 l 1
 350 651 l 1
 323 649 l 2
 283 646 269 643 269 620 c 0
 269 611 281 584 293 561 c 2
 413 329 l 1
 522 507 l 2
 548 550 563 589 563 609 c 0
 563 638 547 646 479 651 c 1
 479 676 l 1
 699 676 l 1
EndSplineSet
EndChar

StartChar: Z
Encoding: 90 90 58
Width: 667
Flags: MW
HStem: 0 35<225 308 308 355.5> 656 20<81 604 604 604>
LayerCount: 2
Fore
SplineSet
634 242 m 1
 607 0 l 1
 28 0 l 1
 28 16 l 1
 410 641 l 1
 327 638 l 2
 173 632 132 612 87 469 c 1
 59 469 l 1
 81 676 l 1
 604 676 l 1
 604 660 l 1
 225 35 l 1
 308 35 l 2
 403 35 469 46 510 75 c 0
 566 115 579 157 608 242 c 1
 634 242 l 1
EndSplineSet
EndChar

StartChar: bracketleft
Encoding: 91 91 59
Width: 333
Flags: MW
HStem: -149 33<221 301 221 301> 645 33<210 238 238 301>
LayerCount: 2
Fore
SplineSet
301 -149 m 1
 67 -149 l 1
 67 678 l 1
 301 678 l 1
 301 645 l 1
 238 645 l 2
 182 645 171 634 171 575 c 2
 171 -63 l 2
 171 -106 180 -116 221 -116 c 2
 301 -116 l 1
 301 -149 l 1
EndSplineSet
EndChar

StartChar: backslash
Encoding: 92 92 60
Width: 278
Flags: MW
HStem: -19 20 671 20<-25 68 68 68>
LayerCount: 2
Fore
SplineSet
303 -19 m 1
 211 -19 l 1
 -25 691 l 1
 68 691 l 1
 303 -19 l 1
EndSplineSet
EndChar

StartChar: bracketright
Encoding: 93 93 61
Width: 333
Flags: MW
HStem: -149 33<32 112 112 133 32 266 32 112> 645 33<32 95 32 266>
LayerCount: 2
Fore
SplineSet
266 -149 m 1
 32 -149 l 1
 32 -116 l 1
 112 -116 l 2
 154 -116 162 -107 162 -63 c 2
 162 575 l 2
 162 633 151 645 95 645 c 2
 32 645 l 1
 32 678 l 1
 266 678 l 1
 266 -149 l 1
EndSplineSet
EndChar

StartChar: asciicircum
Encoding: 94 94 62
Width: 581
Flags: MW
HStem: 656 20<251 331 331 331>
LayerCount: 2
Fore
SplineSet
509 311 m 1
 420 311 l 1
 291 583 l 1
 162 311 l 1
 73 311 l 1
 251 676 l 1
 331 676 l 1
 509 311 l 1
EndSplineSet
EndChar

StartChar: underscore
Encoding: 95 95 63
Width: 500
Flags: MW
HStem: -125 50<0 500 0 500>
LayerCount: 2
Fore
SplineSet
500 -125 m 1
 0 -125 l 1
 0 -75 l 1
 500 -75 l 1
 500 -125 l 1
EndSplineSet
EndChar

StartChar: grave
Encoding: 96 96 64
Width: 333
Flags: W
LayerCount: 2
Fore
SplineSet
246 528 m 1
 190 528 l 1
 48 616 l 2
 19 634 8 648 8 668 c 0
 8 693 29 713 55 713 c 0
 74 713 93 703 109 685 c 2
 246 528 l 1
EndSplineSet
EndChar

StartChar: a
Encoding: 97 97 65
Width: 500
Flags: MW
HStem: -14 20 441 32<194 241.5>
LayerCount: 2
Fore
SplineSet
473 64 m 1
 488 43 l 1
 450 2 419 -14 376 -14 c 0
 327 -14 305 4 294 55 c 1
 239 5 193 -14 135 -14 c 0
 71 -14 25 18 25 92 c 0
 25 136 47 174 92 204 c 0
 130 229 177 247 293 280 c 1
 293 348 l 2
 293 412 271 441 212 441 c 0
 176 441 147 428 147 404 c 0
 147 398 149 391 158 381 c 0
 171 365 177 353 177 339 c 0
 177 305 149 279 109 279 c 0
 68 279 44 305 44 347 c 0
 44 427 122 473 235 473 c 0
 357 473 431 425 431 339 c 2
 431 78 l 2
 431 61 438 50 452 50 c 0
 457 50 460 51 463 54 c 2
 473 64 l 1
293 97 m 1
 293 245 l 1
 213 223 171 182 171 124 c 0
 171 80 193 57 223 57 c 0
 247 57 271 66 293 97 c 1
EndSplineSet
EndChar

StartChar: b
Encoding: 98 98 66
Width: 556
Flags: MW
HStem: -14 32<270 312 259 362> 419 54<308.5 312> 656 20<17 211 211 211>
LayerCount: 2
Fore
SplineSet
211 676 m 1
 211 417 l 1
 249 457 284 473 333 473 c 0
 444 473 521 378 521 239 c 0
 521 89 429 -14 295 -14 c 0
 245 -14 209 1 163 43 c 1
 84 -13 l 1
 72 -13 l 1
 72 594 l 2
 72 634 63 643 17 652 c 1
 17 676 l 1
 211 676 l 1
211 360 m 1
 211 97 l 2
 211 49 238 18 280 18 c 0
 344 18 374 82 374 221 c 0
 374 353 343 419 281 419 c 0
 248 419 229 403 211 360 c 1
EndSplineSet
EndChar

StartChar: c
Encoding: 99 99 67
Width: 444
Flags: MW
HStem: -14 67<261.5 279> 442 31<225.5 271>
LayerCount: 2
Fore
SplineSet
412 109 m 1
 430 91 l 1
 375 16 319 -14 239 -14 c 0
 114 -14 25 79 25 222 c 0
 25 371 129 473 262 473 c 0
 349 473 416 427 416 363 c 0
 416 324 390 299 348 299 c 0
 314 299 292 324 292 372 c 0
 292 419 292 442 250 442 c 0
 201 442 166 382 166 273 c 0
 166 137 218 53 305 53 c 0
 346 53 375 67 412 109 c 1
EndSplineSet
EndChar

StartChar: d
Encoding: 100 100 68
Width: 556
Flags: MW
HStem: -14 56<224.5 232.5> 0 20<534 534> 417 56<229 240 162 274.5> 656 20<260 475 475 475>
LayerCount: 2
Fore
SplineSet
534 20 m 1x70
 472 12 l 2
 410 4 385 0 339 -13 c 1
 339 52 l 1
 292 2 259 -14 206 -14 c 0x80
 101 -14 25 84 25 221 c 0
 25 366 107 473 217 473 c 0
 263 473 293 457 336 411 c 1
 336 594 l 2
 336 640 327 647 260 652 c 1
 260 676 l 1
 475 676 l 1
 475 101 l 2
 475 59 488 46 534 43 c 1
 534 20 l 1x70
336 112 m 2xa0
 336 355 l 1
 321 393 291 417 258 417 c 0
 200 417 173 358 173 229 c 0
 173 102 198 42 251 42 c 0
 274 42 297 54 317 79 c 0
 327 92 336 107 336 112 c 2xa0
EndSplineSet
EndChar

StartChar: e
Encoding: 101 101 69
Width: 444
Flags: MW
HStem: -14 72<239 271.5> 245 37<169 298 164 421 169 169> 442 31<211 248.5>
LayerCount: 2
Fore
SplineSet
403 126 m 1
 427 112 l 1
 367 17 314 -14 229 -14 c 0
 108 -14 25 87 25 224 c 0
 25 373 109 473 234 473 c 0
 292 473 333 455 362 423 c 0
 399 382 417 319 421 245 c 1
 169 245 l 1
 175 150 190 58 288 58 c 0
 331 58 362 77 403 126 c 1
298 282 m 1
 298 303 l 2
 298 355 298 376 289 395 c 0
 275 425 263 442 234 442 c 0
 188 442 164 402 164 282 c 1
 298 282 l 1
EndSplineSet
EndChar

StartChar: f
Encoding: 102 102 70
Width: 333
Flags: MW
HStem: 0 20 417 44<14 71 14 71 210 296> 660 31<242 269>
LayerCount: 2
Fore
SplineSet
14 461 m 1
 71 461 l 1
 71 540 78 600 111 640 c 0
 138 673 182 691 246 691 c 0
 331 691 389 650 389 591 c 0
 389 554 364 527 327 527 c 0
 293 527 267 553 267 584 c 0
 267 619 289 627 289 641 c 0
 289 653 278 660 260 660 c 0
 224 660 210 640 210 581 c 2
 210 461 l 1
 296 461 l 1
 296 417 l 1
 210 417 l 1
 210 107 l 2
 210 42 222 26 292 24 c 1
 292 0 l 1
 14 0 l 1
 14 24 l 1
 60 29 71 42 71 87 c 2
 71 417 l 1
 14 417 l 1
 14 461 l 1
EndSplineSet
EndChar

StartChar: g
Encoding: 103 103 71
Width: 500
Flags: MW
HStem: -206 32<206 299.5 206 305.5> 398 53<401 481 401 401> 442 31<215.5 260 180.5 263>
VStem: 28 88<-129 -96.5 -129 -93.5> 404 79<-99 -91>
LayerCount: 2
Fore
SplineSet
254 68 m 2x58
 306 68 l 2
 414 68 483 22 483 -52 c 0
 483 -146 389 -206 222 -206 c 0
 96 -206 28 -174 28 -114 c 0
 28 -73 61 -48 124 -39 c 1
 60 -16 42 6 42 43 c 0
 42 102 81 137 161 160 c 1
 90 180 37 236 37 312 c 0
 37 411 121 473 240 473 c 0xb8
 280 473 308 467 352 451 c 1
 481 451 l 1
 481 398 l 1
 401 398 l 1
 429 373 441 340 441 300 c 0
 441 237 410 193 349 168 c 0
 316 154 313 154 222 154 c 0
 183 154 153 135 153 105 c 0
 153 78 174 68 254 68 c 2x58
306 312 m 0
 306 405 287 442 239 442 c 0
 192 442 174 409 174 311 c 0
 174 218 192 182 240 182 c 0
 288 182 306 218 306 312 c 0
315 -52 m 2
 151 -52 l 1
 123 -75 116 -86 116 -107 c 0
 116 -151 162 -174 250 -174 c 0
 349 -174 404 -146 404 -108 c 0
 404 -74 380 -52 315 -52 c 2
EndSplineSet
EndChar

StartChar: h
Encoding: 104 104 72
Width: 556
Flags: MW
HStem: 0 20 406 67<283 396> 656 20<15 208 208 208>
LayerCount: 2
Fore
SplineSet
534 0 m 1
 300 0 l 1
 300 24 l 1
 334 28 346 44 346 85 c 2
 346 309 l 2
 346 380 334 406 295 406 c 0
 271 406 247 394 225 372 c 0
 215 362 208 352 208 348 c 2
 208 85 l 2
 208 44 219 29 256 24 c 1
 256 0 l 1
 16 0 l 1
 16 24 l 1
 61 33 69 33 69 89 c 2
 69 591 l 2
 69 639 61 643 15 652 c 1
 15 676 l 1
 208 676 l 1
 208 396 l 1
 257 454 302 473 355 473 c 0
 437 473 485 416 485 337 c 2
 485 87 l 2
 485 41 499 24 534 24 c 1
 534 0 l 1
EndSplineSet
EndChar

StartChar: i
Encoding: 105 105 73
Width: 278
Flags: MW
HStem: 0 20 441 20<15 208 208 208> 536 155<116.5 159>
VStem: 60 155<591 634.5 591 635>
LayerCount: 2
Fore
SplineSet
215 613 m 0
 215 569 181 536 137 536 c 0
 93 536 60 569 60 613 c 0
 60 657 94 691 139 691 c 0
 181 691 215 656 215 613 c 0
256 0 m 1
 16 0 l 1
 16 24 l 1
 62 35 69 42 69 88 c 2
 69 373 l 2
 69 418 59 428 15 437 c 1
 15 461 l 1
 208 461 l 1
 208 85 l 2
 208 42 221 29 256 24 c 1
 256 0 l 1
EndSplineSet
EndChar

StartChar: j
Encoding: 106 106 74
Width: 333
Flags: MW
HStem: -203 31<63.5 90 63.5 117.5> 441 20<58 260 260 260> 536 155<164 206.5>
VStem: 108 155<591 634 591 635>
LayerCount: 2
Fore
SplineSet
263 613 m 0
 263 569 229 536 184 536 c 0
 140 536 108 569 108 613 c 0
 108 657 142 691 186 691 c 0
 228 691 263 655 263 613 c 0
260 461 m 1
 260 2 l 2
 260 -57 252 -95 233 -127 c 0
 205 -176 152 -203 83 -203 c 0
 1 -203 -57 -162 -57 -103 c 0
 -57 -67 -32 -42 5 -42 c 0
 38 -42 64 -66 64 -96 c 0
 64 -106 60 -118 50 -133 c 0
 44 -143 41 -150 41 -155 c 0
 41 -165 54 -172 73 -172 c 0
 107 -172 121 -149 121 -96 c 2
 121 378 l 2
 121 421 109 433 58 437 c 1
 58 461 l 1
 260 461 l 1
EndSplineSet
EndChar

StartChar: k
Encoding: 107 107 75
Width: 556
Flags: MW
HStem: 0 20 441 20<299 513 513 513> 656 20<22 209 209 209>
LayerCount: 2
Fore
SplineSet
543 0 m 1
 309 0 l 1
 309 24 l 1
 337 25 351 31 351 43 c 0
 351 51 345 63 327 88 c 2
 232 222 l 1
 209 198 l 1
 209 84 l 2
 209 37 214 31 261 24 c 1
 261 0 l 1
 22 0 l 1
 22 24 l 1
 55 27 70 45 70 84 c 2
 70 594 l 2
 70 632 56 649 22 652 c 1
 22 676 l 1
 209 676 l 1
 209 245 l 1
 337 373 l 2
 348 384 358 402 358 411 c 0
 358 424 349 430 323 434 c 2
 299 438 l 1
 299 461 l 1
 513 461 l 1
 513 438 l 1
 450 430 424 412 324 307 c 1
 518 39 l 2
 527 27 532 24 543 24 c 1
 543 0 l 1
EndSplineSet
EndChar

StartChar: l
Encoding: 108 108 76
Width: 278
Flags: MW
HStem: 0 20 656 20<15 206 206 206>
LayerCount: 2
Fore
SplineSet
256 0 m 1
 16 0 l 1
 16 24 l 1
 50 27 67 43 67 87 c 2
 67 587 l 2
 67 624 50 649 15 652 c 1
 15 676 l 1
 206 676 l 1
 206 87 l 2
 206 41 223 25 256 24 c 1
 256 0 l 1
EndSplineSet
EndChar

StartChar: m
Encoding: 109 109 77
Width: 833
Flags: MW
HStem: 0 20 406 67<282.5 385.5> 441 20<15 207 207 207>
LayerCount: 2
Fore
SplineSet
814 0 m 1xc0
 577 0 l 1
 577 24 l 1
 615 27 625 41 625 83 c 2
 625 311 l 2
 625 373 610 406 572 406 c 0
 554 406 535 399 514 381 c 0
 501 371 487 353 487 348 c 2
 487 83 l 2
 487 45 498 28 533 24 c 1
 533 0 l 1
 301 0 l 1
 301 24 l 1
 338 27 348 42 348 83 c 2
 348 323 l 2
 348 383 333 406 294 406 c 0xc0
 271 406 210 368 210 344 c 2
 210 83 l 2
 210 45 220 29 255 24 c 1
 255 0 l 1
 16 0 l 1
 16 24 l 1
 60 32 71 45 71 86 c 2
 71 373 l 2
 71 420 59 431 15 437 c 1
 15 461 l 1
 207 461 l 1xa0
 207 386 l 1
 210 386 l 1
 248 447 290 473 354 473 c 0
 417 473 452 449 482 386 c 1
 534 450 572 473 629 473 c 0
 711 473 764 420 764 331 c 2
 764 83 l 2
 764 40 775 26 814 24 c 1
 814 0 l 1xc0
EndSplineSet
EndChar

StartChar: n
Encoding: 110 110 78
Width: 556
Flags: MW
HStem: 0 20 406 67<288 396> 441 20<21 212 212 212>
LayerCount: 2
Fore
SplineSet
539 0 m 1xc0
 305 0 l 1
 305 24 l 1
 339 28 351 44 351 84 c 2
 351 321 l 2
 351 377 334 406 300 406 c 0xc0
 276 406 252 394 230 372 c 0
 220 362 213 352 213 348 c 2
 213 84 l 2
 213 47 224 29 261 24 c 1
 261 0 l 1
 21 0 l 1
 21 24 l 1
 66 33 74 45 74 87 c 2
 74 376 l 2
 74 419 65 430 21 437 c 1
 21 461 l 1
 212 461 l 1xa0
 212 386 l 1
 213 386 l 1
 247 446 295 473 355 473 c 0
 437 473 490 418 490 331 c 2
 490 84 l 2
 490 39 500 27 539 24 c 1
 539 0 l 1xc0
EndSplineSet
EndChar

StartChar: o
Encoding: 111 111 79
Width: 500
Flags: MW
HStem: -14 31<222 280 222 314.5> 442 31<220.5 280.5>
LayerCount: 2
Fore
SplineSet
476 229 m 0
 476 88 379 -14 250 -14 c 0
 125 -14 25 86 25 228 c 0
 25 374 122 473 254 473 c 0
 380 473 476 371 476 229 c 0
329 218 m 0
 329 389 310 442 251 442 c 0
 190 442 172 389 172 218 c 0
 172 73 193 17 251 17 c 0
 309 17 329 69 329 218 c 0
EndSplineSet
EndChar

StartChar: p
Encoding: 112 112 80
Width: 556
Flags: MW
HStem: -13 55<309.5 318.5 274.5 392> 416 57<313.5 325.5> 441 20<20 212 212 212>
LayerCount: 2
Fore
SplineSet
212 461 m 1xa0
 212 392 l 1
 246 452 284 473 343 473 c 0x40
 454 473 524 396 524 249 c 0
 524 94 452 -13 332 -13 c 0
 287 -13 262 0 214 47 c 1
 214 -79 l 2
 214 -146 230 -178 291 -181 c 1
 291 -205 l 1
 19 -205 l 1
 19 -181 l 1
 67 -173 75 -160 75 -118 c 2
 75 372 l 2
 75 416 64 430 20 437 c 1
 20 461 l 1
 212 461 l 1xa0
214 346 m 2xc0
 214 107 l 1
 229 69 258 42 291 42 c 0
 346 42 376 96 376 234 c 0
 376 357 351 416 300 416 c 0
 277 416 252 403 232 379 c 0
 221 366 214 352 214 346 c 2xc0
EndSplineSet
EndChar

StartChar: q
Encoding: 113 113 81
Width: 556
Flags: MW
HStem: -14 54<167.5 290> 441 32<247 281 188.5 295>
LayerCount: 2
Fore
SplineSet
536 -205 m 1
 269 -205 l 1
 269 -181 l 1
 334 -172 342 -156 342 -90 c 2
 342 42 l 1
 307 -3 267 -14 219 -14 c 0
 116 -14 34 74 34 219 c 0
 34 359 121 473 256 473 c 0
 306 473 337 460 388 417 c 1
 465 472 l 1
 481 472 l 1
 481 -123 l 2
 481 -163 490 -172 536 -181 c 1
 536 -205 l 1
342 98 m 2
 342 354 l 2
 342 409 315 441 275 441 c 0
 219 441 180 378 180 236 c 0
 180 100 219 40 273 40 c 0
 307 40 342 60 342 98 c 2
EndSplineSet
EndChar

StartChar: r
Encoding: 114 114 82
Width: 444
Flags: MW
HStem: 0 20 441 20<28 218 218 218> 453 20<328 376.5>
LayerCount: 2
Fore
SplineSet
218 461 m 1xc0
 218 379 l 1
 265 447 303 473 353 473 c 0x20
 400 473 434 440 434 394 c 0
 434 354 408 326 371 326 c 0
 345 326 328 336 311 364 c 0
 300 382 291 387 283 387 c 0
 248 387 222 342 222 283 c 2
 222 106 l 2
 222 42 233 28 294 24 c 1
 294 0 l 1
 29 0 l 1
 29 24 l 1
 73 32 83 43 83 84 c 2
 83 373 l 2
 83 420 71 431 28 437 c 1
 28 461 l 1
 218 461 l 1xc0
EndSplineSet
EndChar

StartChar: s
Encoding: 115 115 83
Width: 389
Flags: MW
HStem: -14 34<193 212.5 155 252.5> 440 33<174 195.5 138.5 206.5>
LayerCount: 2
Fore
SplineSet
340 326 m 1
 315 326 l 1
 300 369 289 388 268 408 c 0
 246 429 220 440 193 440 c 0
 155 440 127 415 127 382 c 0
 127 348 155 322 223 294 c 0
 323 252 361 209 361 138 c 0
 361 48 298 -14 207 -14 c 0
 179 -14 128 -3 99 9 c 0
 89 13 81 15 76 15 c 0
 67 15 61 8 50 -13 c 1
 25 -13 l 1
 25 152 l 1
 53 152 l 1
 74 65 120 20 190 20 c 0
 235 20 265 46 265 85 c 0
 265 117 238 142 169 172 c 0
 68 215 27 261 27 327 c 0
 27 411 93 473 184 473 c 0
 207 473 230 469 262 458 c 0
 278 453 287 451 293 451 c 0
 306 451 312 456 318 471 c 1
 340 471 l 1
 340 326 l 1
EndSplineSet
EndChar

StartChar: t
Encoding: 116 116 84
Width: 333
Flags: MW
HStem: -12 71<149.5 260.5> 417 44<211 306 211 306>
LayerCount: 2
Fore
SplineSet
307 112 m 1
 332 101 l 1
 291 19 251 -12 184 -12 c 0
 115 -12 72 28 72 95 c 2
 72 417 l 1
 19 417 l 1
 19 444 l 1
 91 493 128 546 186 630 c 1
 211 630 l 1
 211 461 l 1
 306 461 l 1
 306 417 l 1
 211 417 l 1
 211 119 l 2
 211 79 222 59 250 59 c 0
 271 59 287 74 307 112 c 1
EndSplineSet
EndChar

StartChar: u
Encoding: 117 117 85
Width: 556
Flags: MW
HStem: -14 65<156.5 274.5> 0 20<538 538> 441 20<16 204 204 204 281 481 481 481>
LayerCount: 2
Fore
SplineSet
538 20 m 1x60
 475 13 l 2
 410 6 386 2 343 -13 c 1
 343 52 l 1
 291 3 253 -14 198 -14 c 0
 115 -14 65 38 65 131 c 2
 65 372 l 2
 65 418 57 429 16 437 c 1
 16 461 l 1
 204 461 l 1
 204 127 l 2
 204 71 224 51 260 51 c 0xa0
 289 51 311 64 342 98 c 1
 342 374 l 2
 342 419 331 433 281 437 c 1
 281 461 l 1
 481 461 l 1
 481 105 l 2
 481 61 494 45 538 43 c 1
 538 20 l 1x60
EndSplineSet
EndChar

StartChar: v
Encoding: 118 118 86
Width: 500
Flags: MW
HStem: -14 20 441 20<21 271 271 271 334 485 485 485>
LayerCount: 2
Fore
SplineSet
485 461 m 1
 485 437 l 1
 454 434 446 428 427 382 c 2
 267 -14 l 1
 241 -14 l 1
 121 282 l 2
 101 331 64 411 55 423 c 0
 49 431 43 434 21 437 c 1
 21 461 l 1
 271 461 l 1
 271 437 l 1
 253 435 l 2
 228 432 218 426 218 411 c 0
 218 404 219 400 227 380 c 2
 306 177 l 1
 378 359 l 2
 386 378 389 392 389 404 c 0
 389 428 377 435 334 437 c 1
 334 461 l 1
 485 461 l 1
EndSplineSet
EndChar

StartChar: w
Encoding: 119 119 87
Width: 722
Flags: MW
HStem: -14 20 441 20<23 245 245 245 294 528 528 528 572 707 707 707>
LayerCount: 2
Fore
SplineSet
707 461 m 1
 707 437 l 1
 681 432 670 421 657 387 c 2
 502 -14 l 1
 479 -14 l 1
 377 296 l 1
 252 -14 l 1
 228 -14 l 1
 80 360 l 2
 55 422 49 432 23 437 c 1
 23 461 l 1
 245 461 l 1
 245 437 l 1
 217 433 207 426 207 409 c 0
 207 396 219 365 246 294 c 2
 291 176 l 1
 359 347 l 1
 357 353 355 359 353 366 c 0
 334 432 333 433 294 437 c 1
 294 461 l 1
 528 461 l 1
 528 437 l 1
 490 434 480 429 480 413 c 0
 480 403 487 375 507 307 c 0
 527 237 531 222 541 180 c 1
 576 274 l 2
 605 352 620 389 620 402 c 0
 620 425 609 433 572 437 c 1
 572 461 l 1
 707 461 l 1
EndSplineSet
EndChar

StartChar: x
Encoding: 120 120 88
Width: 500
Flags: MW
HStem: 0 20 441 20<12 262 262 262 309 477 477 477>
LayerCount: 2
Fore
SplineSet
484 0 m 1
 243 0 l 1
 243 24 l 1
 275 26 288 32 288 44 c 0
 288 56 279 73 255 108 c 0
 240 129 226 150 213 171 c 1
 208 165 203 158 197 151 c 0
 158 104 133 64 133 48 c 0
 133 33 147 26 183 24 c 1
 183 0 l 1
 14 0 l 1
 14 24 l 1
 51 26 71 42 127 117 c 0
 141 136 155 154 170 173 c 0
 185 192 177 183 192 201 c 1
 64 398 l 2
 44 428 38 433 12 437 c 1
 12 461 l 1
 262 461 l 1
 262 437 l 1
 229 436 215 430 215 418 c 0
 215 405 240 363 273 320 c 0
 277 315 282 309 286 303 c 1
 322 349 l 2
 349 384 360 398 360 413 c 0
 360 428 352 433 329 435 c 2
 309 437 l 1
 309 461 l 1
 477 461 l 1
 477 437 l 1
 446 432 426 421 407 398 c 2
 306 272 l 1
 454 44 l 2
 461 33 468 29 484 24 c 1
 484 0 l 1
EndSplineSet
EndChar

StartChar: y
Encoding: 121 121 89
Width: 500
Flags: MW
HStem: -205 57<84.5 164> 441 20<16 265 265 265 330 482 482 482>
LayerCount: 2
Fore
SplineSet
482 461 m 1
 482 437 l 1
 451 433 438 425 422 382 c 2
 274 -16 l 2
 239 -110 218 -149 197 -172 c 0
 176 -194 147 -205 113 -205 c 0
 56 -205 16 -173 16 -126 c 0
 16 -88 40 -59 78 -59 c 0
 112 -59 138 -82 138 -111 c 0
 138 -115 137 -120 136 -125 c 0
 135 -128 135 -131 135 -131 c 1
 135 -140 143 -148 152 -148 c 0
 176 -148 201 -116 218 -66 c 2
 236 -13 l 1
 117 277 l 2
 97 327 59 411 50 423 c 0
 44 431 38 434 16 437 c 1
 16 461 l 1
 265 461 l 1
 265 437 l 1
 249 436 l 2
 224 434 213 426 213 411 c 0
 213 407 222 381 233 353 c 2
 305 167 l 1
 373 355 l 2
 382 381 384 392 384 404 c 0
 384 428 373 435 330 437 c 1
 330 461 l 1
 482 461 l 1
EndSplineSet
EndChar

StartChar: z
Encoding: 122 122 90
Width: 444
Flags: MW
HStem: 0 20 441 20<45 416 416 416>
LayerCount: 2
Fore
SplineSet
420 160 m 1
 404 0 l 1
 21 0 l 1
 21 25 l 1
 255 429 l 1
 113 429 89 414 64 319 c 1
 38 319 l 1
 45 461 l 1
 416 461 l 1
 416 435 l 1
 185 32 l 1
 214 32 l 2
 295 32 328 45 361 91 c 0
 375 112 383 128 392 160 c 1
 420 160 l 1
EndSplineSet
EndChar

StartChar: braceleft
Encoding: 123 123 91
Width: 394
Flags: W
LayerCount: 2
Fore
SplineSet
340 -163 m 1
 340 -175 l 1
 241 -174 197 -164 167 -137 c 1
 141 -115 129 -82 129 -34 c 2
 129 145 l 2
 129 216 107 240 22 261 c 1
 107 282 129 306 129 377 c 2
 129 556 l 2
 129 611 145 648 179 669 c 1
 211 690 251 697 340 698 c 1
 340 686 l 1
 260 669 234 638 234 562 c 2
 234 391 l 2
 234 307 210 281 116 261 c 1
 210 241 234 215 234 131 c 2
 234 -40 l 2
 234 -116 261 -147 340 -163 c 1
EndSplineSet
EndChar

StartChar: bar
Encoding: 124 124 92
Width: 220
Flags: MW
HStem: -19 20 671 20<66 154 154 154>
VStem: 66 88<-19 691>
LayerCount: 2
Fore
SplineSet
154 -19 m 1
 66 -19 l 1
 66 691 l 1
 154 691 l 1
 154 -19 l 1
EndSplineSet
EndChar

StartChar: braceright
Encoding: 125 125 93
Width: 394
Flags: W
LayerCount: 2
Fore
SplineSet
265 557 m 2
 265 378 l 2
 265 307 287 283 372 262 c 1
 287 241 265 217 265 146 c 2
 265 -33 l 2
 265 -88 249 -125 215 -146 c 1
 183 -167 143 -174 54 -175 c 1
 54 -163 l 1
 134 -146 160 -115 160 -39 c 2
 160 132 l 2
 160 215 185 242 278 262 c 1
 184 282 160 308 160 392 c 2
 160 563 l 2
 160 639 133 670 54 686 c 1
 54 698 l 1
 144 697 183 690 215 669 c 1
 249 648 265 612 265 557 c 2
EndSplineSet
EndChar

StartChar: asciitilde
Encoding: 126 126 94
Width: 520
Flags: MW
HStem: 177 84<358.5 386 358.5 389> 245 84<127 167.5>
LayerCount: 2
Fore
SplineSet
455 333 m 1x80
 491 263 l 1
 446 200 412 177 366 177 c 0x80
 333 177 310 185 263 210 c 0
 216 236 185 245 150 245 c 0
 104 245 81 208 65 173 c 1
 29 243 l 1
 63 302 98 329 152 329 c 0x40
 185 329 211 321 286 287 c 0
 332 267 350 261 367 261 c 0
 405 261 433 296 455 333 c 1x80
EndSplineSet
EndChar

StartChar: exclamdown
Encoding: 161 161 96
Width: 333
Flags: MW
HStem: 332 169<144 190>
VStem: 82 169<394 440.5 393.5 441.5>
LayerCount: 2
Fore
SplineSet
251 417 m 0
 251 370 213 332 167 332 c 0
 120 332 82 370 82 418 c 0
 82 465 120 501 168 501 c 0
 214 501 251 464 251 417 c 0
153 254 m 1
 182 254 l 1
 195 131 205 82 234 -14 c 0
 248 -59 252 -78 252 -103 c 0
 252 -166 221 -203 167 -203 c 0
 114 -203 83 -166 83 -102 c 0
 83 -77 87 -59 101 -14 c 0
 130 82 140 130 153 254 c 1
EndSplineSet
EndChar

StartChar: cent
Encoding: 162 162 97
Width: 500
Flags: MW
HStem: -14 67<257.5 356.5> 442 31<252 290.5>
LayerCount: 2
Fore
SplineSet
440 109 m 1
 458 91 l 1
 397 14 345 -14 267 -14 c 0
 248 -14 236 -12 217 -7 c 1
 170 -140 l 1
 130 -140 l 1
 181 5 l 1
 148 21 135 31 117 49 c 0
 75 92 53 152 53 223 c 0
 53 366 152 473 285 473 c 0
 306 473 321 471 345 465 c 1
 389 588 l 1
 429 588 l 1
 381 452 l 1
 425 427 444 401 444 364 c 0
 444 325 418 300 378 300 c 0
 359 300 347 306 334 320 c 1
 252 90 l 1
 279 63 301 53 335 53 c 0
 378 53 406 68 440 109 c 1
321 397 m 1
 321 400 l 2
 321 424 303 442 278 442 c 0
 226 442 194 377 194 274 c 0
 194 215 203 175 225 128 c 1
 321 397 l 1
EndSplineSet
EndChar

StartChar: sterling
Encoding: 163 163 98
Width: 500
Flags: MW
HStem: -16 20 -13 30<92 127.5 92 131.5> 118 46<92.5 122> 308 65<39 119 39 137 39 119 275 275 275 384> 654 30<283.5 301>
VStem: 21 32<51 82 51 102>
LayerCount: 2
Fore
SplineSet
454 183 m 1x7c
 477 183 l 1
 470 104 460 65 439 34 c 0
 418 3 386 -16 346 -16 c 0x84
 303 -16 276 0 221 49 c 1
 188 6 154 -13 109 -13 c 0
 53 -13 21 18 21 72 c 0
 21 132 58 164 127 164 c 0
 145 164 158 162 178 157 c 1
 176 194 172 210 137 308 c 1
 39 308 l 1
 39 373 l 1
 119 373 l 1
 108 435 105 458 105 491 c 0
 105 554 136 616 184 650 c 0
 216 672 259 684 308 684 c 0
 401 684 459 641 459 571 c 0
 459 526 433 499 391 499 c 0
 353 499 329 526 329 564 c 0
 329 580 331 592 331 611 c 0
 332 639 315 654 287 654 c 0
 254 654 231 629 231 592 c 0
 231 569 250 461 270 373 c 1
 384 373 l 1
 384 308 l 1
 275 308 l 1
 276 289 277 274 277 254 c 0
 277 205 273 181 257 134 c 1
 301 118 326 112 353 112 c 0
 416 112 439 128 454 183 c 1x7c
181 86 m 1x64
 154 110 135 118 109 118 c 0
 74 118 53 98 53 66 c 0
 53 36 75 17 109 17 c 0
 146 17 167 37 181 86 c 1x64
EndSplineSet
EndChar

StartChar: currency
Encoding: 164 164 99
Width: 500
Flags: MW
HStem: -10 20 51 82<228 272> 399 82<227 273.5 227 284>
VStem: 35 88<242.5 289> 377 88<242.5 289 242.5 304>
LayerCount: 2
Fore
SplineSet
526 48 m 1
 468 -10 l 1
 372 88 l 1
 330 62 294 51 250 51 c 0
 206 51 170 62 128 88 c 1
 32 -10 l 1
 -26 48 l 1
 72 146 l 1
 46 185 35 219 35 266 c 0
 35 312 46 348 72 388 c 1
 -26 486 l 1
 32 542 l 1
 128 446 l 1
 168 471 204 481 250 481 c 0
 297 481 332 471 372 446 c 1
 468 542 l 1
 526 486 l 1
 428 388 l 1
 455 345 465 312 465 266 c 0
 465 219 454 182 428 146 c 1
 526 48 l 1
377 267 m 0
 377 341 320 399 248 399 c 0
 179 399 123 339 123 267 c 0
 123 192 179 133 249 133 c 0
 321 133 377 192 377 267 c 0
EndSplineSet
EndChar

StartChar: yen
Encoding: 165 165 100
Width: 500
Flags: MW
HStem: 0 20 164 50<50 185 50 185 315 450> 292 50<50 149 50 174 50 149 339 450> 656 20<-64 237 237 237 342 547 547 547>
LayerCount: 2
Fore
SplineSet
547 676 m 1
 547 650 l 1
 513 647 496 637 483 613 c 2
 339 342 l 1
 450 342 l 1
 450 292 l 1
 319 292 l 1
 315 281 l 1
 315 214 l 1
 450 214 l 1
 450 164 l 1
 315 164 l 1
 315 115 l 2
 315 47 331 32 414 25 c 1
 414 0 l 1
 83 0 l 1
 83 25 l 1
 168 32 185 47 185 115 c 2
 185 164 l 1
 50 164 l 1
 50 214 l 1
 185 214 l 1
 185 271 l 1
 174 292 l 1
 50 292 l 1
 50 342 l 1
 149 342 l 1
 19 597 l 2
 1 633 -23 647 -64 650 c 1
 -64 676 l 1
 237 676 l 1
 237 650 l 1
 177 648 160 642 160 621 c 0
 160 604 184 556 236 454 c 2
 293 342 l 1
 412 572 l 2
 418 583 420 595 420 607 c 0
 420 639 406 647 342 650 c 1
 342 676 l 1
 547 676 l 1
EndSplineSet
EndChar

StartChar: brokenbar
Encoding: 166 166 101
Width: 220
Flags: MW
HStem: -19 20 671 20<66 154 154 154>
VStem: 66 88<-19 258 414 691>
LayerCount: 2
Fore
SplineSet
154 414 m 1
 66 414 l 1
 66 691 l 1
 154 691 l 1
 154 414 l 1
154 -19 m 1
 66 -19 l 1
 66 258 l 1
 154 258 l 1
 154 -19 l 1
EndSplineSet
EndChar

StartChar: section
Encoding: 167 167 102
Width: 500
Flags: MW
HStem: -132 23<222 266.5 222 288> 668 23<231.5 270>
VStem: 57 75<317.5 334> 90 82<-87.5 -13.5> 99 74<582 599> 319 85<-40.5 -22.5> 367 76<237.5 239>
LayerCount: 2
Fore
SplineSet
186 415 m 2xe4
 199 415 l 1
 117 487 99 513 99 561 c 0
 99 637 161 691 248 691 c 0
 326 691 393 645 393 591 c 0
 393 558 362 528 328 528 c 0
 299 528 268 558 268 585 c 0
 268 599 277 614 295 628 c 0
 305 636 310 643 310 647 c 0
 310 658 284 668 256 668 c 0
 207 668 173 640 173 599 c 0
 173 565 207 526 277 480 c 0
 343 437 393 388 423 337 c 0
 436 315 443 287 443 255 c 0xca
 443 220 429 188 404 169 c 0
 382 152 355 145 302 144 c 1
 376 92 404 51 404 -3 c 0
 404 -78 336 -132 240 -132 c 0
 157 -132 90 -87 90 -32 c 0
 90 5 117 33 153 33 c 0
 188 33 218 7 218 -23 c 0
 218 -40 210 -51 187 -65 c 0
 176 -72 172 -76 172 -80 c 0xd4
 172 -95 204 -109 240 -109 c 0
 293 -109 319 -86 319 -38 c 0
 319 -7 310 9 282 32 c 2
 225 78 l 2
 83 193 57 226 57 293 c 0
 57 375 100 415 186 415 c 2xe4
367 225 m 0
 367 253 357 271 324 302 c 0
 257 365 216 392 185 392 c 0
 154 392 132 369 132 336 c 0xe2
 132 299 142 285 205 230 c 0
 263 179 284 167 314 167 c 0
 345 167 367 191 367 225 c 0
EndSplineSet
EndChar

StartChar: dieresis
Encoding: 168 168 103
Width: 333
Flags: MW
HStem: 537 129<45.5 80 45.5 80.5 254.5 289.5>
VStem: -2 129<584 618 582.5 619> 208 129<584 618 582.5 619.5>
LayerCount: 2
Fore
SplineSet
337 600 m 0
 337 565 308 537 271 537 c 0
 236 537 208 566 208 602 c 0
 208 637 237 666 272 666 c 0
 307 666 337 636 337 600 c 0
127 600 m 0
 127 565 99 537 62 537 c 0
 27 537 -2 566 -2 602 c 0
 -2 636 28 666 63 666 c 0
 97 666 127 636 127 600 c 0
EndSplineSet
EndChar

StartChar: copyright
Encoding: 169 169 104
Width: 747
Flags: MW
HStem: -19 52<297 451 297 472.5> 142 23<361.5 405> 521 23<361.5 420.5 333 429.5> 639 52<295 448>
VStem: 26 71<251 418.5 251 438> 650 71<253 422>
LayerCount: 2
Fore
SplineSet
544 256 m 1
 528 182 l 1
 527 172 516 164 497 159 c 2
 485 156 l 2
 448 147 420 142 390 142 c 0
 259 142 176 218 176 339 c 0
 176 464 264 544 402 544 c 0
 439 544 466 539 505 525 c 0
 521 519 527 514 527 504 c 2
 527 432 l 1
 508 432 l 1
 491 494 458 521 401 521 c 0
 322 521 278 458 278 344 c 0
 278 229 322 165 401 165 c 0
 457 165 493 191 525 256 c 1
 544 256 l 1
721 335 m 0
 721 135 570 -19 375 -19 c 0
 176 -19 26 135 26 338 c 0
 26 538 179 691 380 691 c 0
 570 691 721 534 721 335 c 0
650 338 m 0
 650 506 526 639 370 639 c 0
 220 639 97 502 97 335 c 0
 97 167 220 33 374 33 c 0
 528 33 650 168 650 338 c 0
EndSplineSet
EndChar

StartChar: ordfeminine
Encoding: 170 170 105
Width: 300
Flags: MW
HStem: 665 23<111.5 141>
VStem: 12 70<600.5 649> 173 95<573 606>
LayerCount: 2
Fore
SplineSet
291 443 m 1
 301 431 l 1
 277 406 257 397 228 397 c 0
 196 397 182 408 175 438 c 1
 139 408 111 397 73 397 c 0
 29 397 -1 424 -1 463 c 0
 -1 513 38 538 173 573 c 1
 173 613 l 2
 173 650 159 665 123 665 c 0
 100 665 82 655 82 643 c 0
 82 640 85 635 91 629 c 0
 99 621 102 615 102 608 c 0
 102 587 82 573 54 573 c 0
 27 573 12 588 12 613 c 0
 12 659 62 688 141 688 c 0
 219 688 268 657 268 606 c 2
 268 450 l 2
 268 439 271 435 279 435 c 0
 282 435 285 437 285 437 c 1
 291 443 l 1
172 465 m 1
 172 552 l 1
 122 537 97 513 97 479 c 0
 97 456 110 439 129 439 c 0
 145 439 158 447 172 465 c 1
EndSplineSet
EndChar

StartChar: guillemotleft
Encoding: 171 171 106
Width: 500
Flags: W
LayerCount: 2
Fore
SplineSet
422 393 m 1
 428 398 l 2
 444 411 451 415 459 415 c 0
 467 415 471 411 471 404 c 0
 471 382 437 329 378 257 c 0
 370 247 362 237 355 227 c 1
 369 206 381 191 395 173 c 0
 443 111 473 71 473 51 c 0
 473 42 469 36 462 36 c 0
 454 36 447 43 433 52 c 1
 219 225 l 1
 219 229 l 1
 422 393 l 1
226 393 m 1
 232 398 l 2
 248 411 255 415 263 415 c 0
 271 415 275 411 275 404 c 0
 275 382 241 329 183 257 c 0
 174 247 167 237 159 227 c 1
 174 206 184 190 199 173 c 0
 249 114 277 71 277 51 c 0
 277 42 273 36 266 36 c 0
 258 36 251 43 237 52 c 1
 23 225 l 1
 23 229 l 1
 226 393 l 1
EndSplineSet
EndChar

StartChar: logicalnot
Encoding: 172 172 107
Width: 750
Flags: MW
HStem: 311 88<65 597 65 685>
VStem: 597 88<108 311 311 311>
LayerCount: 2
Fore
SplineSet
685 108 m 1
 597 108 l 1
 597 311 l 1
 65 311 l 1
 65 399 l 1
 685 399 l 1
 685 108 l 1
EndSplineSet
EndChar

StartChar: uni00AD
Encoding: 173 173 108
Width: 333
Flags: W
LayerCount: 2
Fore
SplineSet
287 171 m 1
 44 171 l 1
 44 287 l 1
 287 287 l 1
 287 171 l 1
EndSplineSet
EndChar

StartChar: registered
Encoding: 174 174 109
Width: 747
Flags: MW
HStem: -19 52<297 451 297 472.5> 320 22<333 368 368 370 333 368> 510 22<333 369 333 333> 639 52<295 448>
VStem: 26 71<251 418.5 251 438> 253 80<215 320 342 470 470 490.5> 430 85<411.5 457.5> 650 71<253 422>
LayerCount: 2
Fore
SplineSet
563 153 m 1
 482 153 l 2
 466 153 450 174 419 234 c 0
 400 271 391 286 370 320 c 1
 333 320 l 1
 333 215 l 2
 333 175 334 174 379 171 c 1
 379 153 l 1
 207 153 l 1
 207 171 l 1
 252 174 253 175 253 215 c 2
 253 470 l 2
 253 511 252 512 207 514 c 1
 207 532 l 1
 400 532 l 2
 471 532 515 495 515 436 c 0
 515 387 488 352 435 331 c 1
 493 249 l 2
 522 208 541 185 563 164 c 1
 563 153 l 1
333 342 m 1
 368 342 l 2
 408 342 430 374 430 431 c 0
 430 484 410 510 369 510 c 2
 333 510 l 1
 333 342 l 1
721 335 m 0
 721 135 570 -19 375 -19 c 0
 176 -19 26 135 26 338 c 0
 26 538 179 691 380 691 c 0
 570 691 721 534 721 335 c 0
650 338 m 0
 650 506 526 639 370 639 c 0
 220 639 97 502 97 335 c 0
 97 167 220 33 374 33 c 0
 528 33 650 168 650 338 c 0
EndSplineSet
EndChar

StartChar: macron
Encoding: 175 175 110
Width: 333
Flags: MW
HStem: 565 72<1 331 1 331>
LayerCount: 2
Fore
SplineSet
331 565 m 1
 1 565 l 1
 1 637 l 1
 331 637 l 1
 331 565 l 1
EndSplineSet
EndChar

StartChar: degree
Encoding: 176 176 111
Width: 400
Flags: MW
HStem: 402 55<175.5 224.5 175.5 239.5> 633 55<175.5 224.5>
VStem: 57 55<520.5 569.5 520.5 584.5> 288 55<520.5 569.5>
LayerCount: 2
Fore
SplineSet
343 545 m 0
 343 466 279 402 200 402 c 0
 121 402 57 466 57 545 c 0
 57 624 121 688 200 688 c 0
 279 688 343 624 343 545 c 0
288 545 m 0
 288 594 249 633 200 633 c 0
 151 633 112 594 112 545 c 0
 112 496 151 457 200 457 c 0
 249 457 288 496 288 545 c 0
EndSplineSet
EndChar

StartChar: plusminus
Encoding: 177 177 112
Width: 770
Flags: MW
HStem: -151 88<65 685 65 685> 209 88<65 331 65 331 419 685>
VStem: 331 88<-12 209 -12 209 297 518>
LayerCount: 2
Fore
SplineSet
685 209 m 1
 419 209 l 1
 419 -12 l 1
 331 -12 l 1
 331 209 l 1
 65 209 l 1
 65 297 l 1
 331 297 l 1
 331 518 l 1
 419 518 l 1
 419 297 l 1
 685 297 l 1
 685 209 l 1
685 -151 m 1
 65 -151 l 1
 65 -63 l 1
 685 -63 l 1
 685 -151 l 1
EndSplineSet
EndChar

StartChar: twosuperior
Encoding: 178 178 113
Width: 300
Flags: MW
HStem: 275 80<99 191 191 224 99 270> 620 68<120.5 130>
VStem: 184 88<555 565>
LayerCount: 2
Fore
SplineSet
300 402 m 1
 270 275 l 1
 0 275 l 1
 0 289 l 1
 150 438 184 486 184 544 c 0
 184 586 151 620 109 620 c 0
 75 620 54 605 33 566 c 1
 9 566 l 1
 43 650 88 688 153 688 c 0
 223 688 272 642 272 577 c 0
 272 533 252 497 198 447 c 2
 99 355 l 1
 191 355 l 2
 257 355 265 359 284 402 c 1
 300 402 l 1
EndSplineSet
EndChar

StartChar: threesuperior
Encoding: 179 179 114
Width: 300
Flags: MW
HStem: 268 36<151 157.5> 640 48<95.5 198.5>
VStem: 176 95<589 597.5> 222 75<380.5 398>
LayerCount: 2
Fore
SplineSet
36 590 m 1xe0
 16 597 l 1
 51 658 100 688 165 688 c 0
 232 688 271 658 271 607 c 0xe0
 271 571 258 553 217 531 c 1
 271 509 297 474 297 424 c 0
 297 337 212 268 103 268 c 0
 42 268 3 289 3 322 c 0
 3 341 16 354 43 363 c 1
 72 360 82 357 110 330 c 0
 131 310 143 304 159 304 c 0
 197 304 222 330 222 369 c 0xd0
 222 427 188 459 92 490 c 1
 92 500 l 1
 153 518 176 539 176 579 c 0
 176 616 151 640 111 640 c 0
 80 640 61 627 36 590 c 1xe0
EndSplineSet
EndChar

StartChar: acute
Encoding: 180 180 115
Width: 333
Flags: W
LayerCount: 2
Fore
SplineSet
86 528 m 1
 223 685 l 2
 240 704 256 713 276 713 c 0
 305 713 324 695 324 669 c 0
 324 646 316 636 284 616 c 2
 142 528 l 1
 86 528 l 1
EndSplineSet
EndChar

StartChar: mu
Encoding: 181 181 116
Width: 556
Flags: MW
HStem: -13 88<245 251> 441 20<66 205 205 205 336 475 475 475>
LayerCount: 2
Fore
SplineSet
536 60 m 1
 536 36 l 1
 492 -4 472 -13 430 -13 c 0
 381 -13 351 3 329 39 c 1
 297 1 272 -13 230 -13 c 0
 189 -13 161 -3 128 22 c 1
 132 -11 135 -19 147 -59 c 0
 158 -93 161 -112 161 -129 c 0
 161 -179 139 -206 98 -206 c 0
 57 -206 33 -178 33 -129 c 0
 33 -116 36 -101 43 -72 c 0
 58 -10 66 35 66 88 c 2
 66 461 l 1
 205 461 l 1
 205 149 l 2
 205 105 228 75 262 75 c 0
 283 75 308 84 336 102 c 1
 336 461 l 1
 475 461 l 1
 475 101 l 2
 475 74 493 54 515 54 c 0
 522 54 527 55 536 60 c 1
EndSplineSet
EndChar

StartChar: paragraph
Encoding: 182 182 117
Width: 639
Flags: MW
HStem: 651 25<259 579 353 403 353 353 279 579>
VStem: 60 90<437 506.5 430.5 548> 259 94<-109 265 265 265 290 651 -186 651> 403 94<-124 -105 -105 599>
LayerCount: 2
Fore
SplineSet
579 651 m 1
 553 649 l 2
 507 645 497 643 497 599 c 2
 497 -105 l 2
 497 -143 500 -155 551 -159 c 2
 574 -161 l 1
 574 -186 l 1
 403 -186 l 1
 403 651 l 1
 353 651 l 1
 353 -186 l 1
 178 -186 l 1
 178 -161 l 1
 252 -154 259 -150 259 -109 c 2
 259 265 l 1
 207 267 180 274 149 293 c 0
 91 329 60 393 60 481 c 0
 60 615 128 676 279 676 c 2
 579 676 l 1
 579 651 l 1
259 290 m 1
 259 651 l 1
 211 639 191 626 173 595 c 0
 158 570 150 530 150 483 c 0
 150 378 184 317 259 290 c 1
EndSplineSet
EndChar

StartChar: periodcentered
Encoding: 183 183 118
Width: 250
Flags: MW
HStem: 248 169<102.5 149 102.5 149>
VStem: 41 169<308.5 355 308.5 355.5>
LayerCount: 2
Fore
SplineSet
210 332 m 0
 210 285 173 248 125 248 c 0
 77 248 41 284 41 332 c 0
 41 379 79 417 126 417 c 0
 172 417 210 378 210 332 c 0
EndSplineSet
EndChar

StartChar: cedilla
Encoding: 184 184 119
Width: 333
Flags: MW
HStem: -218 41<148 162 135 204.5> 0 20
VStem: 201 93<-149.5 -124.5>
LayerCount: 2
Fore
SplineSet
201 0 m 1
 173 -64 l 1
 185 -60 193 -59 205 -59 c 0
 261 -59 294 -85 294 -129 c 0
 294 -184 244 -218 165 -218 c 0
 131 -218 105 -213 68 -200 c 1
 84 -163 l 1
 90 -165 l 2
 114 -173 127 -177 143 -177 c 0
 181 -177 201 -163 201 -136 c 0
 201 -113 184 -100 155 -100 c 0
 146 -100 138 -101 127 -104 c 1
 116 -96 l 1
 159 0 l 1
 201 0 l 1
EndSplineSet
EndChar

StartChar: onesuperior
Encoding: 185 185 120
Width: 300
Flags: MW
HStem: 668 20<192 203 203 203>
LayerCount: 2
Fore
SplineSet
273 275 m 1
 30 275 l 1
 30 295 l 1
 94 295 107 305 107 355 c 2
 107 576 l 2
 107 604 100 617 84 617 c 0
 74 617 59 614 41 607 c 2
 28 602 l 1
 28 623 l 1
 192 688 l 1
 203 688 l 1
 203 351 l 2
 203 305 214 296 273 295 c 1
 273 275 l 1
EndSplineSet
EndChar

StartChar: ordmasculine
Encoding: 186 186 121
Width: 330
Flags: MW
HStem: 397 20<146.5 183 146.5 208> 667 21<145.5 183.5>
LayerCount: 2
Fore
SplineSet
312 542 m 0
 312 458 250 397 166 397 c 0
 79 397 18 458 18 543 c 0
 18 627 81 688 167 688 c 0
 250 688 312 625 312 542 c 0
214 534 m 0
 214 637 203 667 164 667 c 0
 127 667 115 635 115 537 c 0
 115 448 128 417 165 417 c 0
 201 417 214 448 214 534 c 0
EndSplineSet
EndChar

StartChar: guillemotright
Encoding: 187 187 122
Width: 500
Flags: W
LayerCount: 2
Fore
SplineSet
477 222 m 1
 274 58 l 2
 272 56 270 54 267 53 c 1
 252 39 246 36 237 36 c 0
 229 36 225 40 225 47 c 0
 225 69 259 123 317 194 c 0
 324 203 332 213 341 224 c 1
 326 246 314 262 301 277 c 0
 250 338 223 380 223 400 c 0
 223 409 228 415 234 415 c 0
 241 415 250 410 263 399 c 2
 477 226 l 1
 477 222 l 1
281 222 m 1
 78 58 l 1
 72 53 l 2
 56 39 50 36 41 36 c 0
 33 36 29 40 29 47 c 0
 29 69 63 122 122 194 c 0
 130 204 138 214 145 224 c 1
 130 246 118 262 105 277 c 0
 54 338 27 380 27 400 c 0
 27 409 32 415 38 415 c 0
 45 415 54 410 67 399 c 2
 281 226 l 1
 281 222 l 1
EndSplineSet
EndChar

StartChar: onequarter
Encoding: 188 188 123
Width: 750
Flags: MW
HStem: -12 20 0 20 87 66<472 608 447 609 702 743> 668 20<192 203 203 203 615 671 671 671>
VStem: 608 94<0 87 0 87> 609 93<153 328 328 328>
LayerCount: 2
Fore
SplineSet
743 87 m 1x78
 702 87 l 1
 702 0 l 1x74
 608 0 l 1
 608 87 l 1
 447 87 l 1
 447 154 l 1
 490 217 520 259 611 367 c 2
 650 413 l 1
 702 413 l 1
 702 153 l 1
 743 153 l 1
 743 87 l 1x78
609 153 m 1
 609 328 l 1
 472 153 l 1
 609 153 l 1
671 688 m 1
 232 -12 l 1
 174 -12 l 1x94
 615 688 l 1
 671 688 l 1
273 275 m 1
 30 275 l 1
 30 295 l 1
 94 295 107 305 107 355 c 2
 107 576 l 2
 107 604 100 617 84 617 c 0
 74 617 59 614 41 607 c 2
 28 602 l 1
 28 623 l 1
 192 688 l 1
 203 688 l 1
 203 351 l 2
 203 305 214 296 273 295 c 1
 273 275 l 1
EndSplineSet
EndChar

StartChar: onehalf
Encoding: 189 189 124
Width: 750
Flags: MW
HStem: -12 20 0 80<580 683 683 704.5 580 745> 346 67<589 604> 668 20<157 168 168 168 573 629 629 629>
LayerCount: 2
Fore
SplineSet
775 127 m 1x70
 745 0 l 1
 475 0 l 1
 475 14 l 1
 490 29 505 45 520 60 c 0
 576 115 647 185 647 269 c 0
 647 307 625 346 583 346 c 0
 547 346 524 321 508 291 c 1
 484 291 l 1
 510 357 550 413 628 413 c 0
 692 413 757 372 757 302 c 0
 757 244 697 195 658 158 c 2
 580 85 l 1
 580 80 l 1
 683 80 l 2
 726 80 741 86 759 127 c 1
 775 127 l 1x70
629 688 m 1
 190 -12 l 1
 132 -12 l 1x90
 573 688 l 1
 629 688 l 1
238 275 m 1
 -5 275 l 1
 -5 295 l 1
 47 295 72 297 72 355 c 2
 72 576 l 2
 72 592 70 617 49 617 c 0
 31 617 10 609 -7 602 c 1
 -7 623 l 1
 157 688 l 1
 168 688 l 1
 168 351 l 2
 168 298 189 296 238 295 c 1
 238 275 l 1
EndSplineSet
EndChar

StartChar: threequarters
Encoding: 190 190 125
Width: 750
Flags: MW
HStem: -12 20 0 20 87 66<462 598 437 599 692 733> 268 36<171 177> 640 48<115.5 218.5>
VStem: 196 95<589.5 597.5> 242 75<380.5 398> 598 94<0 87 0 87> 599 93<153 328 328 328>
LayerCount: 2
Fore
SplineSet
733 87 m 1x69
 692 87 l 1
 692 0 l 1x6c80
 598 0 l 1
 598 87 l 1
 437 87 l 1
 437 154 l 1
 480 217 510 259 601 367 c 2
 640 413 l 1
 692 413 l 1
 692 153 l 1
 733 153 l 1
 733 87 l 1x69
599 153 m 1
 599 328 l 1
 462 153 l 1
 599 153 l 1
669 688 m 1
 230 -12 l 1
 172 -12 l 1x9c80
 613 688 l 1
 669 688 l 1
241 533 m 1
 241 529 l 1
 291 509 317 473 317 424 c 0
 317 337 231 268 123 268 c 0
 62 268 23 289 23 322 c 0
 23 341 36 354 63 363 c 1
 92 360 100 355 130 330 c 0
 152 311 163 304 179 304 c 0
 217 304 242 330 242 369 c 0x9a
 242 427 208 459 112 490 c 1
 112 500 l 1
 173 518 196 539 196 579 c 0
 196 616 171 640 131 640 c 0
 100 640 81 627 56 590 c 1
 36 597 l 1
 71 658 120 688 185 688 c 0
 252 688 291 658 291 607 c 0
 291 572 278 553 241 533 c 1
EndSplineSet
EndChar

StartChar: questiondown
Encoding: 191 191 126
Width: 500
Flags: MW
HStem: -201 36<261.5 306.5 261.5 314> 332 169<237.5 284>
VStem: 177 169<394 440.5> 349 94<-137 -34>
LayerCount: 2
Fore
SplineSet
346 417 m 0
 346 370 308 332 260 332 c 0
 215 332 177 371 177 417 c 0
 177 464 214 501 261 501 c 0
 309 501 346 464 346 417 c 0
247 256 m 1
 277 256 l 1
 280 231 280 222 280 211 c 0
 277 118 204 54 204 -35 c 0
 204 -110 235 -165 288 -165 c 0
 325 -165 349 -149 349 -125 c 0
 349 -115 346 -109 334 -96 c 0
 317 -77 312 -65 312 -45 c 0
 312 -7 346 22 377 22 c 0
 416 22 443 -12 443 -56 c 0
 443 -139 369 -201 259 -201 c 0
 132 -201 55 -130 55 -35 c 0
 55 34 84 74 176 131 c 0
 239 170 247 183 247 256 c 1
EndSplineSet
EndChar

StartChar: Agrave
Encoding: 192 192 127
Width: 722
Flags: MW
HStem: 0 20 197 39<189 384 189 399 174 384>
LayerCount: 2
Fore
SplineSet
457 778 m 1
 401 778 l 1
 259 866 l 2
 230 884 219 898 219 918 c 0
 219 943 240 963 266 963 c 0
 285 963 304 953 320 935 c 2
 457 778 l 1
689 0 m 1
 367 0 l 1
 367 25 l 1
 399 28 l 2
 432 31 445 39 445 61 c 0
 445 83 433 118 399 197 c 1
 174 197 l 1
 161 163 l 2
 149 132 130 90 130 66 c 0
 130 40 152 29 211 25 c 1
 211 0 l 1
 9 0 l 1
 9 25 l 1
 55 33 70 51 108 145 c 2
 329 690 l 1
 357 690 l 1
 579 168 l 2
 630 47 648 25 689 25 c 1
 689 0 l 1
384 236 m 1
 283 479 l 1
 189 236 l 1
 384 236 l 1
EndSplineSet
EndChar

StartChar: Aacute
Encoding: 193 193 128
Width: 722
Flags: MW
HStem: 0 20 197 39<189 384 189 399 174 384>
LayerCount: 2
Fore
SplineSet
229 778 m 1
 366 935 l 2
 383 954 399 963 419 963 c 0
 448 963 467 945 467 919 c 0
 467 896 459 886 427 866 c 2
 285 778 l 1
 229 778 l 1
689 0 m 1
 367 0 l 1
 367 25 l 1
 399 28 l 2
 432 31 445 39 445 61 c 0
 445 83 433 118 399 197 c 1
 174 197 l 1
 161 163 l 2
 149 132 130 90 130 66 c 0
 130 40 152 29 211 25 c 1
 211 0 l 1
 9 0 l 1
 9 25 l 1
 55 33 70 51 108 145 c 2
 329 690 l 1
 357 690 l 1
 579 168 l 2
 630 47 648 25 689 25 c 1
 689 0 l 1
384 236 m 1
 283 479 l 1
 189 236 l 1
 384 236 l 1
EndSplineSet
EndChar

StartChar: Acircumflex
Encoding: 194 194 129
Width: 722
Flags: MW
HStem: 0 20 197 39<189 384 189 399 174 384>
LayerCount: 2
Fore
SplineSet
511 778 m 1
 454 778 l 1
 342 876 l 1
 230 778 l 1
 174 778 l 1
 296 954 l 1
 388 954 l 1
 511 778 l 1
689 0 m 1
 367 0 l 1
 367 25 l 1
 399 28 l 2
 432 31 445 39 445 61 c 0
 445 83 433 118 399 197 c 1
 174 197 l 1
 161 163 l 2
 149 132 130 90 130 66 c 0
 130 40 152 29 211 25 c 1
 211 0 l 1
 9 0 l 1
 9 25 l 1
 55 33 70 51 108 145 c 2
 329 690 l 1
 357 690 l 1
 579 168 l 2
 630 47 648 25 689 25 c 1
 689 0 l 1
384 236 m 1
 283 479 l 1
 189 236 l 1
 384 236 l 1
EndSplineSet
EndChar

StartChar: Atilde
Encoding: 195 195 130
Width: 722
Flags: MW
HStem: 0 20 197 39<189 384 189 399 174 384> 797 78<421.5 436> 846 78<244 256.5>
LayerCount: 2
Fore
SplineSet
481 924 m 1x10
 524 924 l 1xd0
 501 837 464 797 408 797 c 0x20
 387 797 362 803 343 811 c 2
 314 824 l 2
 270 844 263 846 250 846 c 0
 224 846 205 827 201 799 c 1
 159 799 l 1
 177 885 213 924 275 924 c 0x10
 296 924 319 918 348 905 c 2
 388 887 l 2
 413 876 416 875 427 875 c 0x20
 454 875 468 888 481 924 c 1x10
689 0 m 1
 367 0 l 1
 367 25 l 1
 399 28 l 2
 432 31 445 39 445 61 c 0
 445 83 433 118 399 197 c 1
 174 197 l 1
 161 163 l 2
 149 132 130 90 130 66 c 0
 130 40 152 29 211 25 c 1
 211 0 l 1
 9 0 l 1
 9 25 l 1
 55 33 70 51 108 145 c 2
 329 690 l 1
 357 690 l 1
 579 168 l 2
 630 47 648 25 689 25 c 1
 689 0 l 1
384 236 m 1
 283 479 l 1
 189 236 l 1
 384 236 l 1
EndSplineSet
EndChar

StartChar: Adieresis
Encoding: 196 196 131
Width: 722
Flags: MW
HStem: 0 20 197 39<189 384 189 399 174 384> 787 129<219.5 254 219.5 254.5 428.5 463.5>
VStem: 172 129<834 868 832.5 869> 382 129<834 868 832.5 869.5>
LayerCount: 2
Fore
SplineSet
511 850 m 0
 511 815 482 787 445 787 c 0
 410 787 382 816 382 852 c 0
 382 887 411 916 446 916 c 0
 481 916 511 886 511 850 c 0
301 850 m 0
 301 815 273 787 236 787 c 0
 201 787 172 816 172 852 c 0
 172 886 202 916 237 916 c 0
 271 916 301 886 301 850 c 0
689 0 m 1
 367 0 l 1
 367 25 l 1
 399 28 l 2
 432 31 445 39 445 61 c 0
 445 83 433 118 399 197 c 1
 174 197 l 1
 161 163 l 2
 149 132 130 90 130 66 c 0
 130 40 152 29 211 25 c 1
 211 0 l 1
 9 0 l 1
 9 25 l 1
 55 33 70 51 108 145 c 2
 329 690 l 1
 357 690 l 1
 579 168 l 2
 630 47 648 25 689 25 c 1
 689 0 l 1
384 236 m 1
 283 479 l 1
 189 236 l 1
 384 236 l 1
EndSplineSet
EndChar

StartChar: Aring
Encoding: 197 197 132
Width: 722
Flags: MW
HStem: 0 20 197 39<189 384 189 399 174 384> 787 48<324.5 357 324.5 371.5> 952 48<324.5 355.5>
VStem: 235 48<878 909.5> 400 48<876 909>
LayerCount: 2
Fore
SplineSet
448 895 m 0
 448 836 401 787 342 787 c 0
 282 787 235 833 235 893 c 0
 235 951 284 1000 343 1000 c 0
 400 1000 448 953 448 895 c 0
400 892 m 0
 400 926 372 952 339 952 c 0
 310 952 283 925 283 894 c 0
 283 862 309 835 340 835 c 0
 374 835 400 860 400 892 c 0
689 0 m 1
 367 0 l 1
 367 25 l 1
 399 28 l 2
 432 31 445 39 445 61 c 0
 445 83 433 118 399 197 c 1
 174 197 l 1
 161 163 l 2
 149 132 130 90 130 66 c 0
 130 40 152 29 211 25 c 1
 211 0 l 1
 9 0 l 1
 9 25 l 1
 55 33 70 51 108 145 c 2
 329 690 l 1
 357 690 l 1
 579 168 l 2
 630 47 648 25 689 25 c 1
 689 0 l 1
384 236 m 1
 283 479 l 1
 189 236 l 1
 384 236 l 1
EndSplineSet
EndChar

StartChar: AE
Encoding: 198 198 133
Width: 1000
Flags: MW
HStem: 0 34<637 709.5 637 910> 303 40<264 432 264 432 242 432> 641 35<632.5 705.5>
LayerCount: 2
Fore
SplineSet
951 211 m 1
 910 0 l 1
 344 0 l 1
 344 25 l 1
 418 29 432 45 432 119 c 2
 432 303 l 1
 242 303 l 1
 142 115 l 2
 131 94 127 82 127 70 c 0
 127 42 141 33 193 27 c 2
 210 25 l 1
 210 0 l 1
 4 0 l 1
 4 25 l 1
 43 31 49 35 114 153 c 2
 334 555 l 2
 353 589 362 607 362 617 c 0
 362 641 341 650 275 654 c 1
 275 676 l 1
 909 676 l 1
 909 475 l 1
 884 475 l 1
 871 539 861 563 840 589 c 0
 812 624 752 641 659 641 c 0
 606 641 592 635 592 611 c 2
 592 363 l 1
 709 373 719 383 747 512 c 1
 770 512 l 1
 770 174 l 1
 747 174 l 1
 729 298 704 324 592 331 c 1
 592 88 l 2
 592 46 608 34 666 34 c 0
 753 34 811 53 852 95 c 0
 886 130 920 181 928 211 c 1
 951 211 l 1
432 343 m 1
 432 633 l 1
 425 633 l 1
 264 343 l 1
 432 343 l 1
EndSplineSet
EndChar

StartChar: Ccedilla
Encoding: 199 199 134
Width: 722
Flags: MW
HStem: -218 41<356 370 343 412.5> 658 33<349.5 421 297.5 433.5>
VStem: 409 93<-149.5 -124.5>
LayerCount: 2
Fore
SplineSet
657 152 m 1
 687 127 l 1
 593 20 518 -18 401 -19 c 1
 381 -64 l 1
 393 -60 401 -59 413 -59 c 0
 469 -59 502 -85 502 -129 c 0
 502 -184 452 -218 373 -218 c 0
 339 -218 313 -213 276 -200 c 1
 292 -163 l 1
 298 -165 l 2
 324 -174 335 -177 351 -177 c 0
 389 -177 409 -163 409 -136 c 0
 409 -113 392 -100 363 -100 c 0
 354 -100 346 -101 335 -104 c 1
 324 -96 l 1
 359 -17 l 1
 356 -16 l 1
 174 2 49 144 49 332 c 0
 49 537 198 691 397 691 c 0
 445 691 494 680 552 656 c 0
 575 646 588 642 598 642 c 0
 617 642 627 652 642 688 c 1
 669 688 l 1
 669 454 l 1
 644 454 l 1
 609 530 586 564 543 602 c 0
 500 640 457 658 410 658 c 0
 289 658 226 548 226 341 c 0
 226 240 240 169 269 116 c 0
 298 64 361 29 427 29 c 0
 455 29 488 35 517 47 c 0
 566 66 598 90 657 152 c 1
EndSplineSet
EndChar

StartChar: Egrave
Encoding: 200 200 135
Width: 667
Flags: MW
HStem: 0 31<316.5 388 316.5 601> 642 34<305 412.5>
LayerCount: 2
Fore
SplineSet
452 778 m 1
 396 778 l 1
 254 866 l 2
 225 884 214 898 214 918 c 0
 214 943 235 963 261 963 c 0
 280 963 299 953 315 935 c 2
 452 778 l 1
641 208 m 1
 601 0 l 1
 16 0 l 1
 16 25 l 1
 90 33 104 49 104 101 c 2
 104 580 l 2
 104 631 85 647 16 651 c 1
 16 676 l 1
 593 676 l 1
 593 475 l 1
 568 475 l 1
 545 609 494 642 331 642 c 0
 279 642 266 626 266 588 c 2
 266 363 l 1
 372 364 416 396 428 512 c 1
 454 512 l 1
 454 174 l 1
 428 174 l 1
 418 293 375 329 266 329 c 1
 266 87 l 2
 266 44 284 31 349 31 c 0
 427 31 484 46 531 85 c 0
 565 113 583 143 613 208 c 1
 641 208 l 1
EndSplineSet
EndChar

StartChar: Eacute
Encoding: 201 201 136
Width: 667
Flags: MW
HStem: 0 31<316.5 388 316.5 601> 642 34<305 412.5>
LayerCount: 2
Fore
SplineSet
231 778 m 1
 368 935 l 2
 385 954 401 963 421 963 c 0
 450 963 469 945 469 919 c 0
 469 896 461 886 429 866 c 2
 287 778 l 1
 231 778 l 1
641 208 m 1
 601 0 l 1
 16 0 l 1
 16 25 l 1
 90 33 104 49 104 101 c 2
 104 580 l 2
 104 631 85 647 16 651 c 1
 16 676 l 1
 593 676 l 1
 593 475 l 1
 568 475 l 1
 545 609 494 642 331 642 c 0
 279 642 266 626 266 588 c 2
 266 363 l 1
 372 364 416 396 428 512 c 1
 454 512 l 1
 454 174 l 1
 428 174 l 1
 418 293 375 329 266 329 c 1
 266 87 l 2
 266 44 284 31 349 31 c 0
 427 31 484 46 531 85 c 0
 565 113 583 143 613 208 c 1
 641 208 l 1
EndSplineSet
EndChar

StartChar: Ecircumflex
Encoding: 202 202 137
Width: 667
Flags: MW
HStem: 0 31<316.5 388 316.5 601> 642 34<305 412.5>
LayerCount: 2
Fore
SplineSet
511 778 m 1
 454 778 l 1
 342 876 l 1
 230 778 l 1
 174 778 l 1
 296 954 l 1
 388 954 l 1
 511 778 l 1
641 208 m 1
 601 0 l 1
 16 0 l 1
 16 25 l 1
 90 33 104 49 104 101 c 2
 104 580 l 2
 104 631 85 647 16 651 c 1
 16 676 l 1
 593 676 l 1
 593 475 l 1
 568 475 l 1
 545 609 494 642 331 642 c 0
 279 642 266 626 266 588 c 2
 266 363 l 1
 372 364 416 396 428 512 c 1
 454 512 l 1
 454 174 l 1
 428 174 l 1
 418 293 375 329 266 329 c 1
 266 87 l 2
 266 44 284 31 349 31 c 0
 427 31 484 46 531 85 c 0
 565 113 583 143 613 208 c 1
 641 208 l 1
EndSplineSet
EndChar

StartChar: Edieresis
Encoding: 203 203 138
Width: 667
Flags: MW
HStem: 0 31<316.5 388 316.5 601> 642 34<305 412.5> 787 129<219.5 254 219.5 254.5 428.5 463.5>
VStem: 172 129<834 868 832.5 869> 382 129<834 868 832.5 869.5>
LayerCount: 2
Fore
SplineSet
511 850 m 0
 511 815 482 787 445 787 c 0
 410 787 382 816 382 852 c 0
 382 887 411 916 446 916 c 0
 481 916 511 886 511 850 c 0
301 850 m 0
 301 815 273 787 236 787 c 0
 201 787 172 816 172 852 c 0
 172 886 202 916 237 916 c 0
 271 916 301 886 301 850 c 0
641 208 m 1
 601 0 l 1
 16 0 l 1
 16 25 l 1
 90 33 104 49 104 101 c 2
 104 580 l 2
 104 631 85 647 16 651 c 1
 16 676 l 1
 593 676 l 1
 593 475 l 1
 568 475 l 1
 545 609 494 642 331 642 c 0
 279 642 266 626 266 588 c 2
 266 363 l 1
 372 364 416 396 428 512 c 1
 454 512 l 1
 454 174 l 1
 428 174 l 1
 418 293 375 329 266 329 c 1
 266 87 l 2
 266 44 284 31 349 31 c 0
 427 31 484 46 531 85 c 0
 565 113 583 143 613 208 c 1
 641 208 l 1
EndSplineSet
EndChar

StartChar: Igrave
Encoding: 204 204 139
Width: 389
Flags: MW
HStem: 0 20 656 20<20 370 370 370>
LayerCount: 2
Fore
SplineSet
317 778 m 1
 261 778 l 1
 119 866 l 2
 90 884 79 898 79 918 c 0
 79 943 100 963 126 963 c 0
 145 963 164 953 180 935 c 2
 317 778 l 1
370 0 m 1
 20 0 l 1
 20 25 l 1
 95 32 113 44 113 106 c 2
 113 576 l 2
 113 632 92 646 20 651 c 1
 20 676 l 1
 370 676 l 1
 370 651 l 1
 296 648 275 632 275 576 c 2
 275 106 l 2
 275 41 294 30 370 25 c 1
 370 0 l 1
EndSplineSet
EndChar

StartChar: Iacute
Encoding: 205 205 140
Width: 389
Flags: MW
HStem: 0 20 656 20<20 370 370 370>
LayerCount: 2
Fore
SplineSet
73 778 m 1
 210 935 l 2
 227 954 243 963 263 963 c 0
 292 963 311 945 311 919 c 0
 311 896 303 886 271 866 c 2
 129 778 l 1
 73 778 l 1
370 0 m 1
 20 0 l 1
 20 25 l 1
 95 32 113 44 113 106 c 2
 113 576 l 2
 113 632 92 646 20 651 c 1
 20 676 l 1
 370 676 l 1
 370 651 l 1
 296 648 275 632 275 576 c 2
 275 106 l 2
 275 41 294 30 370 25 c 1
 370 0 l 1
EndSplineSet
EndChar

StartChar: Icircumflex
Encoding: 206 206 141
Width: 389
Flags: MW
HStem: 0 20 656 20<20 370 370 370>
LayerCount: 2
Fore
SplineSet
363 778 m 1
 306 778 l 1
 194 876 l 1
 82 778 l 1
 26 778 l 1
 148 954 l 1
 240 954 l 1
 363 778 l 1
370 0 m 1
 20 0 l 1
 20 25 l 1
 95 32 113 44 113 106 c 2
 113 576 l 2
 113 632 92 646 20 651 c 1
 20 676 l 1
 370 676 l 1
 370 651 l 1
 296 648 275 632 275 576 c 2
 275 106 l 2
 275 41 294 30 370 25 c 1
 370 0 l 1
EndSplineSet
EndChar

StartChar: Idieresis
Encoding: 207 207 142
Width: 389
Flags: MW
HStem: 0 20 656 20<20 370 370 370> 787 129<71.5 106 71.5 106.5 280.5 315.5>
VStem: 24 129<834 868 832.5 869> 234 129<834 868 832.5 869.5>
LayerCount: 2
Fore
SplineSet
363 850 m 0
 363 815 334 787 297 787 c 0
 262 787 234 816 234 852 c 0
 234 887 263 916 298 916 c 0
 333 916 363 886 363 850 c 0
153 850 m 0
 153 815 125 787 88 787 c 0
 53 787 24 816 24 852 c 0
 24 886 54 916 89 916 c 0
 123 916 153 886 153 850 c 0
370 0 m 1
 20 0 l 1
 20 25 l 1
 95 32 113 44 113 106 c 2
 113 576 l 2
 113 632 92 646 20 651 c 1
 20 676 l 1
 370 676 l 1
 370 651 l 1
 296 648 275 632 275 576 c 2
 275 106 l 2
 275 41 294 30 370 25 c 1
 370 0 l 1
EndSplineSet
EndChar

StartChar: Eth
Encoding: 208 208 143
Width: 722
Flags: MW
HStem: 0 35<294.5 330> 326 47<6 97 6 97 259 373> 656 20<14 319 319 435>
LayerCount: 2
Fore
SplineSet
14 676 m 1
 319 676 l 2
 551 676 690 551 690 345 c 0
 690 249 658 163 600 104 c 1
 537 38 437 0 330 0 c 2
 14 0 l 1
 14 25 l 1
 72 27 97 47 97 91 c 2
 97 326 l 1
 6 326 l 1
 6 373 l 1
 97 373 l 1
 97 584 l 2
 97 630 78 645 14 651 c 1
 14 676 l 1
259 326 m 1
 259 93 l 2
 259 48 272 35 317 35 c 0
 383 35 432 59 466 107 c 0
 497 152 516 237 516 330 c 0
 516 416 502 489 474 542 c 0
 438 609 389 642 319 642 c 0
 271 642 259 632 259 595 c 2
 259 373 l 1
 373 373 l 1
 373 326 l 1
 259 326 l 1
EndSplineSet
EndChar

StartChar: Ntilde
Encoding: 209 209 144
Width: 722
Flags: MW
HStem: -18 20 0 20 656 20<19 230 230 230 487 701 701 701> 797 78<438.5 453> 846 78<261 273.5>
VStem: 104 44<109 131 131 527> 579 44<246 545 545 568 -18 585>
LayerCount: 2
Fore
SplineSet
498 924 m 1x0e
 541 924 l 1x6e
 518 837 481 797 425 797 c 0x16
 404 797 379 803 360 811 c 2
 331 824 l 2
 287 844 280 846 267 846 c 0
 241 846 222 827 218 799 c 1
 176 799 l 1
 194 885 230 924 292 924 c 0x0e
 313 924 336 918 365 905 c 2
 405 887 l 2
 430 876 433 875 444 875 c 0x16
 471 875 485 888 498 924 c 1x0e
701 676 m 1
 701 651 l 1
 636 641 623 631 623 568 c 2
 623 -18 l 1
 595 -18 l 1xa6
 148 527 l 1
 148 131 l 2
 148 54 165 34 242 25 c 1
 242 0 l 1
 16 0 l 1
 16 25 l 1
 89 34 104 48 104 109 c 2
 104 579 l 1
 62 637 39 651 19 651 c 1
 19 676 l 1
 230 676 l 1
 579 246 l 1
 579 545 l 2
 579 625 561 644 487 651 c 1
 487 676 l 1
 701 676 l 1
EndSplineSet
EndChar

StartChar: Ograve
Encoding: 210 210 145
Width: 778
Flags: MW
HStem: -19 33<333 447.5 333 491.5> 658 33<330 443.5>
LayerCount: 2
Fore
SplineSet
503 778 m 1
 447 778 l 1
 305 866 l 2
 276 884 265 898 265 918 c 0
 265 943 286 963 312 963 c 0
 331 963 350 953 366 935 c 2
 503 778 l 1
743 335 m 0
 743 127 595 -19 388 -19 c 0
 181 -19 35 127 35 334 c 0
 35 547 186 691 394 691 c 0
 595 691 743 542 743 335 c 0
566 328 m 0
 566 541 502 658 385 658 c 0
 275 658 212 540 212 330 c 0
 212 119 276 14 390 14 c 0
 505 14 566 122 566 328 c 0
EndSplineSet
EndChar

StartChar: Oacute
Encoding: 211 211 146
Width: 778
Flags: MW
HStem: -19 33<333 447.5 333 491.5> 658 33<330 443.5>
LayerCount: 2
Fore
SplineSet
267 778 m 1
 404 935 l 2
 421 954 437 963 457 963 c 0
 486 963 505 945 505 919 c 0
 505 896 497 886 465 866 c 2
 323 778 l 1
 267 778 l 1
743 335 m 0
 743 127 595 -19 388 -19 c 0
 181 -19 35 127 35 334 c 0
 35 547 186 691 394 691 c 0
 595 691 743 542 743 335 c 0
566 328 m 0
 566 541 502 658 385 658 c 0
 275 658 212 540 212 330 c 0
 212 119 276 14 390 14 c 0
 505 14 566 122 566 328 c 0
EndSplineSet
EndChar

StartChar: Ocircumflex
Encoding: 212 212 147
Width: 778
Flags: MW
HStem: -19 33<333 447.5 333 491.5> 658 33<330 443.5>
LayerCount: 2
Fore
SplineSet
552 778 m 1
 495 778 l 1
 383 876 l 1
 271 778 l 1
 215 778 l 1
 337 954 l 1
 429 954 l 1
 552 778 l 1
743 335 m 0
 743 127 595 -19 388 -19 c 0
 181 -19 35 127 35 334 c 0
 35 547 186 691 394 691 c 0
 595 691 743 542 743 335 c 0
566 328 m 0
 566 541 502 658 385 658 c 0
 275 658 212 540 212 330 c 0
 212 119 276 14 390 14 c 0
 505 14 566 122 566 328 c 0
EndSplineSet
EndChar

StartChar: Otilde
Encoding: 213 213 148
Width: 778
Flags: MW
HStem: -19 33<333 447.5 333 491.5> 658 33<330 443.5> 797 78<467.5 482> 846 78<290 302.5>
LayerCount: 2
Fore
SplineSet
527 924 m 1x10
 570 924 l 1xd0
 547 837 510 797 454 797 c 0x20
 433 797 408 803 389 811 c 2
 360 824 l 2
 316 844 309 846 296 846 c 0
 270 846 251 827 247 799 c 1
 205 799 l 1
 223 885 259 924 321 924 c 0x10
 342 924 365 918 394 905 c 2
 434 887 l 2
 459 876 462 875 473 875 c 0x20
 500 875 514 888 527 924 c 1x10
743 335 m 0
 743 127 595 -19 388 -19 c 0
 181 -19 35 127 35 334 c 0
 35 547 186 691 394 691 c 0
 595 691 743 542 743 335 c 0
566 328 m 0
 566 541 502 658 385 658 c 0
 275 658 212 540 212 330 c 0
 212 119 276 14 390 14 c 0
 505 14 566 122 566 328 c 0
EndSplineSet
EndChar

StartChar: Odieresis
Encoding: 214 214 149
Width: 778
Flags: MW
HStem: -19 33<333 447.5 333 491.5> 658 33<330 443.5> 787 129<262.5 297 262.5 297.5 471.5 506.5>
VStem: 215 129<834 868 832.5 869> 425 129<834 868 832.5 869.5>
LayerCount: 2
Fore
SplineSet
554 850 m 0
 554 815 525 787 488 787 c 0
 453 787 425 816 425 852 c 0
 425 887 454 916 489 916 c 0
 524 916 554 886 554 850 c 0
344 850 m 0
 344 815 316 787 279 787 c 0
 244 787 215 816 215 852 c 0
 215 886 245 916 280 916 c 0
 314 916 344 886 344 850 c 0
743 335 m 0
 743 127 595 -19 388 -19 c 0
 181 -19 35 127 35 334 c 0
 35 547 186 691 394 691 c 0
 595 691 743 542 743 335 c 0
566 328 m 0
 566 541 502 658 385 658 c 0
 275 658 212 540 212 330 c 0
 212 119 276 14 390 14 c 0
 505 14 566 122 566 328 c 0
EndSplineSet
EndChar

StartChar: multiply
Encoding: 215 215 150
Width: 702
Flags: W
LayerCount: 2
Fore
SplineSet
636 29 m 1
 574 -33 l 1
 351 191 l 1
 128 -33 l 1
 66 29 l 1
 289 253 l 1
 67 476 l 1
 129 538 l 1
 351 315 l 1
 574 538 l 1
 636 476 l 1
 413 253 l 1
 636 29 l 1
EndSplineSet
EndChar

StartChar: Oslash
Encoding: 216 216 151
Width: 778
Flags: MW
HStem: -19 33<357.5 447 357.5 492.5> 658 33<332 418.5>
LayerCount: 2
Fore
SplineSet
685 737 m 1
 607 622 l 1
 658 580 678 557 700 516 c 0
 729 462 743 401 743 336 c 0
 743 128 596 -19 389 -19 c 0
 317 -19 265 -5 202 30 c 1
 131 -74 l 1
 81 -74 l 1
 167 52 l 1
 108 103 84 135 60 195 c 0
 43 239 35 285 35 335 c 0
 35 542 183 691 390 691 c 0
 458 691 508 678 572 644 c 1
 635 737 l 1
 685 737 l 1
234 151 m 1
 520 569 l 1
 485 633 448 658 389 658 c 0
 275 658 212 540 212 328 c 0
 212 254 217 211 234 151 c 1
540 524 m 1
 253 104 l 1
 287 40 326 14 389 14 c 0
 505 14 566 123 566 331 c 0
 566 411 560 459 540 524 c 1
EndSplineSet
EndChar

StartChar: Ugrave
Encoding: 217 217 152
Width: 722
Flags: MW
HStem: -19 49<354.5 398.5> 656 20<16 352 352 352 482 701 701 701>
VStem: 579 44<252 552 552 566>
LayerCount: 2
Fore
SplineSet
479 778 m 1
 423 778 l 1
 281 866 l 2
 252 884 241 898 241 918 c 0
 241 943 262 963 288 963 c 0
 307 963 326 953 342 935 c 2
 479 778 l 1
701 676 m 1
 701 651 l 1
 637 641 623 625 623 566 c 2
 623 252 l 2
 623 152 596 75 547 36 c 0
 504 1 434 -19 363 -19 c 0
 289 -19 225 -2 178 35 c 0
 121 80 98 134 98 231 c 2
 98 555 l 2
 98 636 86 644 16 651 c 1
 16 676 l 1
 352 676 l 1
 352 651 l 1
 274 645 257 632 257 550 c 2
 257 232 l 2
 257 93 306 30 403 30 c 0
 520 30 579 104 579 252 c 2
 579 552 l 2
 579 625 556 645 482 651 c 1
 482 676 l 1
 701 676 l 1
EndSplineSet
EndChar

StartChar: Uacute
Encoding: 218 218 153
Width: 722
Flags: MW
HStem: -19 49<354.5 398.5> 656 20<16 352 352 352 482 701 701 701>
VStem: 579 44<252 552 552 566>
LayerCount: 2
Fore
SplineSet
242 778 m 1
 379 935 l 2
 396 954 412 963 432 963 c 0
 461 963 480 945 480 919 c 0
 480 896 472 886 440 866 c 2
 298 778 l 1
 242 778 l 1
701 676 m 1
 701 651 l 1
 637 641 623 625 623 566 c 2
 623 252 l 2
 623 152 596 75 547 36 c 0
 504 1 434 -19 363 -19 c 0
 289 -19 225 -2 178 35 c 0
 121 80 98 134 98 231 c 2
 98 555 l 2
 98 636 86 644 16 651 c 1
 16 676 l 1
 352 676 l 1
 352 651 l 1
 274 645 257 632 257 550 c 2
 257 232 l 2
 257 93 306 30 403 30 c 0
 520 30 579 104 579 252 c 2
 579 552 l 2
 579 625 556 645 482 651 c 1
 482 676 l 1
 701 676 l 1
EndSplineSet
EndChar

StartChar: Ucircumflex
Encoding: 219 219 154
Width: 722
Flags: MW
HStem: -19 49<354.5 398.5> 656 20<16 352 352 352 482 701 701 701>
VStem: 579 44<252 552 552 566>
LayerCount: 2
Fore
SplineSet
530 778 m 1
 473 778 l 1
 361 876 l 1
 249 778 l 1
 193 778 l 1
 315 954 l 1
 407 954 l 1
 530 778 l 1
701 676 m 1
 701 651 l 1
 637 641 623 625 623 566 c 2
 623 252 l 2
 623 152 596 75 547 36 c 0
 504 1 434 -19 363 -19 c 0
 289 -19 225 -2 178 35 c 0
 121 80 98 134 98 231 c 2
 98 555 l 2
 98 636 86 644 16 651 c 1
 16 676 l 1
 352 676 l 1
 352 651 l 1
 274 645 257 632 257 550 c 2
 257 232 l 2
 257 93 306 30 403 30 c 0
 520 30 579 104 579 252 c 2
 579 552 l 2
 579 625 556 645 482 651 c 1
 482 676 l 1
 701 676 l 1
EndSplineSet
EndChar

StartChar: Udieresis
Encoding: 220 220 155
Width: 722
Flags: MW
HStem: -19 49<354.5 398.5> 656 20<16 352 352 352 482 701 701 701> 787 129<241.5 276 241.5 276.5 450.5 485.5>
VStem: 194 129<834 868 832.5 869> 404 129<834 868 832.5 869.5> 579 44<252 552 552 566>
LayerCount: 2
Fore
SplineSet
533 850 m 0
 533 815 504 787 467 787 c 0
 432 787 404 816 404 852 c 0
 404 887 433 916 468 916 c 0
 503 916 533 886 533 850 c 0
323 850 m 0
 323 815 295 787 258 787 c 0
 223 787 194 816 194 852 c 0
 194 886 224 916 259 916 c 0
 293 916 323 886 323 850 c 0
701 676 m 1
 701 651 l 1
 637 641 623 625 623 566 c 2
 623 252 l 2
 623 152 596 75 547 36 c 0
 504 1 434 -19 363 -19 c 0
 289 -19 225 -2 178 35 c 0
 121 80 98 134 98 231 c 2
 98 555 l 2
 98 636 86 644 16 651 c 1
 16 676 l 1
 352 676 l 1
 352 651 l 1
 274 645 257 632 257 550 c 2
 257 232 l 2
 257 93 306 30 403 30 c 0
 520 30 579 104 579 252 c 2
 579 552 l 2
 579 625 556 645 482 651 c 1
 482 676 l 1
 701 676 l 1
EndSplineSet
EndChar

StartChar: Yacute
Encoding: 221 221 156
Width: 722
Flags: MW
HStem: 0 20 656 20<15 350 350 350 479 699 699 699>
LayerCount: 2
Fore
SplineSet
249 778 m 1
 386 935 l 2
 403 954 419 963 439 963 c 0
 468 963 487 945 487 919 c 0
 487 896 479 886 447 866 c 2
 305 778 l 1
 249 778 l 1
699 676 m 1
 699 651 l 1
 665 646 645 635 631 612 c 2
 440 301 l 1
 440 123 l 2
 440 45 453 32 532 25 c 1
 532 0 l 1
 185 0 l 1
 185 25 l 1
 268 32 278 53 278 128 c 2
 278 264 l 1
 98 592 l 2
 79 626 49 649 15 651 c 1
 15 676 l 1
 350 676 l 1
 350 651 l 1
 323 649 l 2
 283 646 269 643 269 620 c 0
 269 611 281 584 293 561 c 2
 413 329 l 1
 522 507 l 2
 548 550 563 589 563 609 c 0
 563 638 547 646 479 651 c 1
 479 676 l 1
 699 676 l 1
EndSplineSet
EndChar

StartChar: Thorn
Encoding: 222 222 157
Width: 611
Flags: MW
HStem: 0 20 511 35<295.5 328 328 353.5> 656 20<16 350 350 350>
LayerCount: 2
Fore
SplineSet
262 546 m 1
 328 546 l 2
 424 546 502 526 544 491 c 0
 581 459 600 417 600 363 c 0
 600 299 570 247 512 213 c 0
 457 180 421 174 262 173 c 1
 262 117 l 2
 262 44 271 35 350 25 c 1
 350 0 l 1
 16 0 l 1
 16 25 l 1
 40 29 l 2
 88 37 100 55 100 117 c 2
 100 559 l 2
 100 629 86 645 16 651 c 1
 16 676 l 1
 350 676 l 1
 350 651 l 1
 270 640 262 631 262 558 c 2
 262 546 l 1
262 476 m 2
 262 208 l 1
 393 208 428 240 428 359 c 0
 428 468 395 511 312 511 c 0
 279 511 262 499 262 476 c 2
EndSplineSet
EndChar

StartChar: germandbls
Encoding: 223 223 158
Width: 556
Flags: MW
HStem: -12 35<319 333 305 380.5> 0 20 663 28<249.5 293.5>
LayerCount: 2
Fore
SplineSet
70 87 m 2x60
 70 507 l 2
 70 615 156 691 277 691 c 0
 391 691 476 626 476 537 c 0
 476 495 454 456 415 430 c 0
 390 413 368 404 320 393 c 1
 401 369 435 353 467 322 c 0
 500 291 517 247 517 194 c 0
 517 79 433 -12 328 -12 c 0
 310 -12 294 -8 264 3 c 1
 278 37 l 1
 288 30 l 2
 297 24 301 23 309 23 c 0xa0
 357 23 371 62 371 197 c 0
 371 283 359 332 332 354 c 0
 318 366 302 371 269 373 c 1
 269 407 l 1
 326 408 339 431 339 530 c 0
 339 624 318 663 269 663 c 0
 230 663 209 636 209 586 c 2
 209 0 l 1
 19 0 l 1
 19 24 l 1
 62 31 70 41 70 87 c 2x60
EndSplineSet
EndChar

StartChar: agrave
Encoding: 224 224 159
Width: 500
Flags: MW
HStem: -14 20 441 32<194 241.5>
LayerCount: 2
Fore
SplineSet
365 528 m 1
 309 528 l 1
 167 616 l 2
 138 634 127 648 127 668 c 0
 127 693 148 713 174 713 c 0
 193 713 212 703 228 685 c 2
 365 528 l 1
473 64 m 1
 488 43 l 1
 450 2 419 -14 376 -14 c 0
 327 -14 305 4 294 55 c 1
 239 5 193 -14 135 -14 c 0
 71 -14 25 18 25 92 c 0
 25 136 47 174 92 204 c 0
 130 229 177 247 293 280 c 1
 293 348 l 2
 293 412 271 441 212 441 c 0
 176 441 147 428 147 404 c 0
 147 398 149 391 158 381 c 0
 171 365 177 353 177 339 c 0
 177 305 149 279 109 279 c 0
 68 279 44 305 44 347 c 0
 44 427 122 473 235 473 c 0
 357 473 431 425 431 339 c 2
 431 78 l 2
 431 61 438 50 452 50 c 0
 457 50 460 51 463 54 c 2
 473 64 l 1
293 97 m 1
 293 245 l 1
 213 223 171 182 171 124 c 0
 171 80 193 57 223 57 c 0
 247 57 271 66 293 97 c 1
EndSplineSet
EndChar

StartChar: aacute
Encoding: 225 225 160
Width: 500
Flags: MW
HStem: -14 20 441 32<194 241.5>
LayerCount: 2
Fore
SplineSet
145 528 m 1
 282 685 l 2
 299 704 315 713 335 713 c 0
 364 713 383 695 383 669 c 0
 383 646 375 636 343 616 c 2
 201 528 l 1
 145 528 l 1
473 64 m 1
 488 43 l 1
 450 2 419 -14 376 -14 c 0
 327 -14 305 4 294 55 c 1
 239 5 193 -14 135 -14 c 0
 71 -14 25 18 25 92 c 0
 25 136 47 174 92 204 c 0
 130 229 177 247 293 280 c 1
 293 348 l 2
 293 412 271 441 212 441 c 0
 176 441 147 428 147 404 c 0
 147 398 149 391 158 381 c 0
 171 365 177 353 177 339 c 0
 177 305 149 279 109 279 c 0
 68 279 44 305 44 347 c 0
 44 427 122 473 235 473 c 0
 357 473 431 425 431 339 c 2
 431 78 l 2
 431 61 438 50 452 50 c 0
 457 50 460 51 463 54 c 2
 473 64 l 1
293 97 m 1
 293 245 l 1
 213 223 171 182 171 124 c 0
 171 80 193 57 223 57 c 0
 247 57 271 66 293 97 c 1
EndSplineSet
EndChar

StartChar: acircumflex
Encoding: 226 226 161
Width: 500
Flags: MW
HStem: -14 20 441 32<194 241.5>
LayerCount: 2
Fore
SplineSet
424 528 m 1
 367 528 l 1
 255 626 l 1
 143 528 l 1
 87 528 l 1
 209 704 l 1
 301 704 l 1
 424 528 l 1
473 64 m 1
 488 43 l 1
 450 2 419 -14 376 -14 c 0
 327 -14 305 4 294 55 c 1
 239 5 193 -14 135 -14 c 0
 71 -14 25 18 25 92 c 0
 25 136 47 174 92 204 c 0
 130 229 177 247 293 280 c 1
 293 348 l 2
 293 412 271 441 212 441 c 0
 176 441 147 428 147 404 c 0
 147 398 149 391 158 381 c 0
 171 365 177 353 177 339 c 0
 177 305 149 279 109 279 c 0
 68 279 44 305 44 347 c 0
 44 427 122 473 235 473 c 0
 357 473 431 425 431 339 c 2
 431 78 l 2
 431 61 438 50 452 50 c 0
 457 50 460 51 463 54 c 2
 473 64 l 1
293 97 m 1
 293 245 l 1
 213 223 171 182 171 124 c 0
 171 80 193 57 223 57 c 0
 247 57 271 66 293 97 c 1
EndSplineSet
EndChar

StartChar: atilde
Encoding: 227 227 162
Width: 500
Flags: MW
HStem: -14 20 441 32<194 241.5> 547 78<334.5 349> 596 78<157 169.5>
LayerCount: 2
Fore
SplineSet
394 674 m 1x10
 437 674 l 1xd0
 414 587 377 547 321 547 c 0x20
 300 547 275 553 256 561 c 2
 227 574 l 2
 183 594 176 596 163 596 c 0
 137 596 118 577 114 549 c 1
 72 549 l 1
 90 635 126 674 188 674 c 0x10
 209 674 232 668 261 655 c 2
 301 637 l 2
 326 626 329 625 340 625 c 0x20
 367 625 381 638 394 674 c 1x10
473 64 m 1
 488 43 l 1
 450 2 419 -14 376 -14 c 0
 327 -14 305 4 294 55 c 1
 239 5 193 -14 135 -14 c 0
 71 -14 25 18 25 92 c 0
 25 136 47 174 92 204 c 0
 130 229 177 247 293 280 c 1
 293 348 l 2
 293 412 271 441 212 441 c 0
 176 441 147 428 147 404 c 0
 147 398 149 391 158 381 c 0
 171 365 177 353 177 339 c 0
 177 305 149 279 109 279 c 0
 68 279 44 305 44 347 c 0
 44 427 122 473 235 473 c 0
 357 473 431 425 431 339 c 2
 431 78 l 2
 431 61 438 50 452 50 c 0
 457 50 460 51 463 54 c 2
 473 64 l 1
293 97 m 1
 293 245 l 1
 213 223 171 182 171 124 c 0
 171 80 193 57 223 57 c 0
 247 57 271 66 293 97 c 1
EndSplineSet
EndChar

StartChar: adieresis
Encoding: 228 228 163
Width: 500
Flags: MW
HStem: -14 20 441 32<194 241.5> 537 129<133.5 168 133.5 168.5 342.5 377.5>
VStem: 86 129<584 618 582.5 619> 296 129<584 618 582.5 619.5>
LayerCount: 2
Fore
SplineSet
425 600 m 0
 425 565 396 537 359 537 c 0
 324 537 296 566 296 602 c 0
 296 637 325 666 360 666 c 0
 395 666 425 636 425 600 c 0
215 600 m 0
 215 565 187 537 150 537 c 0
 115 537 86 566 86 602 c 0
 86 636 116 666 151 666 c 0
 185 666 215 636 215 600 c 0
473 64 m 1
 488 43 l 1
 450 2 419 -14 376 -14 c 0
 327 -14 305 4 294 55 c 1
 239 5 193 -14 135 -14 c 0
 71 -14 25 18 25 92 c 0
 25 136 47 174 92 204 c 0
 130 229 177 247 293 280 c 1
 293 348 l 2
 293 412 271 441 212 441 c 0
 176 441 147 428 147 404 c 0
 147 398 149 391 158 381 c 0
 171 365 177 353 177 339 c 0
 177 305 149 279 109 279 c 0
 68 279 44 305 44 347 c 0
 44 427 122 473 235 473 c 0
 357 473 431 425 431 339 c 2
 431 78 l 2
 431 61 438 50 452 50 c 0
 457 50 460 51 463 54 c 2
 473 64 l 1
293 97 m 1
 293 245 l 1
 213 223 171 182 171 124 c 0
 171 80 193 57 223 57 c 0
 247 57 271 66 293 97 c 1
EndSplineSet
EndChar

StartChar: aring
Encoding: 229 229 164
Width: 500
Flags: MW
HStem: -14 20 441 32<194 241.5> 539 48<238.5 271 238.5 285.5> 704 48<238.5 269.5>
VStem: 149 48<630 661.5 630 674> 314 48<628 661>
LayerCount: 2
Fore
SplineSet
362 647 m 0
 362 588 315 539 256 539 c 0
 196 539 149 585 149 645 c 0
 149 703 198 752 257 752 c 0
 314 752 362 705 362 647 c 0
314 644 m 0
 314 678 286 704 253 704 c 0
 224 704 197 677 197 646 c 0
 197 614 223 587 254 587 c 0
 288 587 314 612 314 644 c 0
473 64 m 1
 488 43 l 1
 450 2 419 -14 376 -14 c 0
 327 -14 305 4 294 55 c 1
 239 5 193 -14 135 -14 c 0
 71 -14 25 18 25 92 c 0
 25 136 47 174 92 204 c 0
 130 229 177 247 293 280 c 1
 293 348 l 2
 293 412 271 441 212 441 c 0
 176 441 147 428 147 404 c 0
 147 398 149 391 158 381 c 0
 171 365 177 353 177 339 c 0
 177 305 149 279 109 279 c 0
 68 279 44 305 44 347 c 0
 44 427 122 473 235 473 c 0
 357 473 431 425 431 339 c 2
 431 78 l 2
 431 61 438 50 452 50 c 0
 457 50 460 51 463 54 c 2
 473 64 l 1
293 97 m 1
 293 245 l 1
 213 223 171 182 171 124 c 0
 171 80 193 57 223 57 c 0
 247 57 271 66 293 97 c 1
EndSplineSet
EndChar

StartChar: ae
Encoding: 230 230 165
Width: 722
Flags: MW
HStem: -14 63<112.5 246> -9 70<506.5 531.5> 248 37<296 296 434 567> 441 32<199 246> 443 30<478 527.5>
LayerCount: 2
Fore
SplineSet
673 129 m 1x68
 694 114 l 1
 635 24 579 -9 484 -9 c 0x68
 421 -9 371 13 337 75 c 1
 331 75 l 1
 276 7 217 -14 151 -14 c 0
 74 -14 33 23 33 94 c 0
 33 138 54 167 92 199 c 0
 124 226 166 248 296 285 c 1
 296 360 l 2
 296 418 274 441 218 441 c 0
 180 441 153 426 153 406 c 0
 153 399 156 394 165 384 c 0
 178 369 182 360 182 341 c 0
 182 304 155 279 115 279 c 0
 73 279 50 309 50 348 c 0
 50 419 127 473 234 473 c 0xb0
 298 473 341 459 374 422 c 1
 408 460 448 473 501 473 c 0
 576 473 638 436 667 372 c 0
 683 338 688 309 688 248 c 1
 434 248 l 1
 434 225 l 2
 434 115 464 61 549 61 c 0
 598 61 634 81 673 129 c 1x68
567 285 m 1
 567 318 l 2
 567 411 551 443 504 443 c 0
 452 443 434 395 434 285 c 1
 567 285 l 1
296 81 m 1xa0
 296 248 l 1
 208 216 177 183 177 120 c 0
 177 73 196 49 234 49 c 0
 258 49 272 56 296 81 c 1xa0
EndSplineSet
EndChar

StartChar: ccedilla
Encoding: 231 231 166
Width: 444
Flags: MW
HStem: -218 41<217 231 204 273.5> 442 31<225.5 271>
VStem: 270 93<-149.5 -124.5>
LayerCount: 2
Fore
SplineSet
412 109 m 1
 430 91 l 1
 381 24 331 -7 265 -13 c 1
 242 -64 l 1
 254 -60 262 -59 274 -59 c 0
 330 -59 363 -85 363 -129 c 0
 363 -184 313 -218 234 -218 c 0
 200 -218 174 -213 137 -200 c 1
 153 -163 l 1
 159 -165 l 2
 185 -174 196 -177 212 -177 c 0
 250 -177 270 -163 270 -136 c 0
 270 -113 253 -100 224 -100 c 0
 215 -100 207 -101 196 -104 c 1
 185 -96 l 1
 221 -13 l 1
 106 -5 25 86 25 222 c 0
 25 371 129 473 262 473 c 0
 349 473 416 427 416 363 c 0
 416 324 390 299 348 299 c 0
 314 299 292 324 292 372 c 0
 292 419 292 442 250 442 c 0
 201 442 166 382 166 273 c 0
 166 137 218 53 305 53 c 0
 346 53 375 67 412 109 c 1
EndSplineSet
EndChar

StartChar: egrave
Encoding: 232 232 167
Width: 444
Flags: MW
HStem: -14 72<239 271.5> 245 37<169 298 164 421 169 169> 442 31<211 248.5>
LayerCount: 2
Fore
SplineSet
360 528 m 1
 304 528 l 1
 162 616 l 2
 133 634 122 648 122 668 c 0
 122 693 143 713 169 713 c 0
 188 713 207 703 223 685 c 2
 360 528 l 1
403 126 m 1
 427 112 l 1
 367 17 314 -14 229 -14 c 0
 108 -14 25 87 25 224 c 0
 25 373 109 473 234 473 c 0
 292 473 333 455 362 423 c 0
 399 382 417 319 421 245 c 1
 169 245 l 1
 175 150 190 58 288 58 c 0
 331 58 362 77 403 126 c 1
298 282 m 1
 298 303 l 2
 298 355 298 376 289 395 c 0
 275 425 263 442 234 442 c 0
 188 442 164 402 164 282 c 1
 298 282 l 1
EndSplineSet
EndChar

StartChar: eacute
Encoding: 233 233 168
Width: 444
Flags: MW
HStem: -14 72<239 271.5> 245 37<169 298 164 421 169 169> 442 31<211 248.5>
LayerCount: 2
Fore
SplineSet
124 528 m 1
 261 685 l 2
 278 704 294 713 314 713 c 0
 343 713 362 695 362 669 c 0
 362 646 354 636 322 616 c 2
 180 528 l 1
 124 528 l 1
403 126 m 1
 427 112 l 1
 367 17 314 -14 229 -14 c 0
 108 -14 25 87 25 224 c 0
 25 373 109 473 234 473 c 0
 292 473 333 455 362 423 c 0
 399 382 417 319 421 245 c 1
 169 245 l 1
 175 150 190 58 288 58 c 0
 331 58 362 77 403 126 c 1
298 282 m 1
 298 303 l 2
 298 355 298 376 289 395 c 0
 275 425 263 442 234 442 c 0
 188 442 164 402 164 282 c 1
 298 282 l 1
EndSplineSet
EndChar

StartChar: ecircumflex
Encoding: 234 234 169
Width: 444
Flags: MW
HStem: -14 72<239 271.5> 245 37<169 298 164 421 169 169> 442 31<211 248.5>
LayerCount: 2
Fore
SplineSet
409 528 m 1
 352 528 l 1
 240 626 l 1
 128 528 l 1
 72 528 l 1
 194 704 l 1
 286 704 l 1
 409 528 l 1
403 126 m 1
 427 112 l 1
 367 17 314 -14 229 -14 c 0
 108 -14 25 87 25 224 c 0
 25 373 109 473 234 473 c 0
 292 473 333 455 362 423 c 0
 399 382 417 319 421 245 c 1
 169 245 l 1
 175 150 190 58 288 58 c 0
 331 58 362 77 403 126 c 1
298 282 m 1
 298 303 l 2
 298 355 298 376 289 395 c 0
 275 425 263 442 234 442 c 0
 188 442 164 402 164 282 c 1
 298 282 l 1
EndSplineSet
EndChar

StartChar: edieresis
Encoding: 235 235 170
Width: 444
Flags: MW
HStem: -14 72<239 271.5> 245 37<169 298 164 421 169 169> 442 31<211 248.5> 537 129<119.5 154 119.5 154.5 328.5 363.5>
VStem: 72 129<584 618 582.5 619> 282 129<584 618 582.5 619.5>
LayerCount: 2
Fore
SplineSet
411 600 m 0
 411 565 382 537 345 537 c 0
 310 537 282 566 282 602 c 0
 282 637 311 666 346 666 c 0
 381 666 411 636 411 600 c 0
201 600 m 0
 201 565 173 537 136 537 c 0
 101 537 72 566 72 602 c 0
 72 636 102 666 137 666 c 0
 171 666 201 636 201 600 c 0
403 126 m 1
 427 112 l 1
 367 17 314 -14 229 -14 c 0
 108 -14 25 87 25 224 c 0
 25 373 109 473 234 473 c 0
 292 473 333 455 362 423 c 0
 399 382 417 319 421 245 c 1
 169 245 l 1
 175 150 190 58 288 58 c 0
 331 58 362 77 403 126 c 1
298 282 m 1
 298 303 l 2
 298 355 298 376 289 395 c 0
 275 425 263 442 234 442 c 0
 188 442 164 402 164 282 c 1
 298 282 l 1
EndSplineSet
EndChar

StartChar: igrave
Encoding: 236 236 171
Width: 278
Flags: MW
HStem: 0 20 441 20<14 208 208 208>
LayerCount: 2
Fore
SplineSet
257 528 m 1
 201 528 l 1
 59 616 l 2
 30 634 19 648 19 668 c 0
 19 693 40 713 66 713 c 0
 85 713 104 703 120 685 c 2
 257 528 l 1
256 0 m 1
 16 0 l 1
 16 24 l 1
 62 34 69 44 69 88 c 2
 69 374 l 2
 69 419 58 428 14 437 c 1
 14 461 l 1
 208 461 l 1
 208 85 l 2
 208 44 221 29 256 24 c 1
 256 0 l 1
EndSplineSet
EndChar

StartChar: iacute
Encoding: 237 237 172
Width: 278
Flags: MW
HStem: 0 20 441 20<15 208 208 208>
LayerCount: 2
Fore
SplineSet
256 0 m 1
 16 0 l 1
 16 24 l 1
 62 35 69 42 69 88 c 2
 69 373 l 2
 69 418 59 428 15 437 c 1
 15 461 l 1
 208 461 l 1
 208 85 l 2
 208 42 221 29 256 24 c 1
 256 0 l 1
20 528 m 1
 157 685 l 2
 174 704 190 713 210 713 c 0
 239 713 258 695 258 669 c 0
 258 646 250 636 218 616 c 2
 76 528 l 1
 20 528 l 1
EndSplineSet
EndChar

StartChar: icircumflex
Encoding: 238 238 173
Width: 278
Flags: MW
HStem: 0 20 441 20<-29 164 164 164>
LayerCount: 2
Fore
SplineSet
212 0 m 1
 -28 0 l 1
 -28 24 l 1
 18 35 25 42 25 88 c 2
 25 373 l 2
 25 418 15 428 -29 437 c 1
 -29 461 l 1
 164 461 l 1
 164 85 l 2
 164 42 177 29 212 24 c 1
 212 0 l 1
308 528 m 1
 251 528 l 1
 139 626 l 1
 27 528 l 1
 -29 528 l 1
 93 704 l 1
 185 704 l 1
 308 528 l 1
EndSplineSet
EndChar

StartChar: idieresis
Encoding: 239 239 174
Width: 278
Flags: MW
HStem: 0 20 441 20<-29 164 164 164> 537 129<18.5 53 18.5 53.5 227.5 262.5>
VStem: -29 129<437 618 461 618 584 618 582.5 619> 181 129<584 618 582.5 619.5>
LayerCount: 2
Fore
SplineSet
212 0 m 1
 -28 0 l 1
 -28 24 l 1
 18 35 25 42 25 88 c 2
 25 373 l 2
 25 418 15 428 -29 437 c 1
 -29 461 l 1
 164 461 l 1
 164 85 l 2
 164 42 177 29 212 24 c 1
 212 0 l 1
310 600 m 0
 310 565 281 537 244 537 c 0
 209 537 181 566 181 602 c 0
 181 637 210 666 245 666 c 0
 280 666 310 636 310 600 c 0
100 600 m 0
 100 565 72 537 35 537 c 0
 0 537 -29 566 -29 602 c 0
 -29 636 1 666 36 666 c 0
 70 666 100 636 100 600 c 0
EndSplineSet
EndChar

StartChar: eth
Encoding: 240 240 175
Width: 500
Flags: MW
HStem: -14 31<216 281 216 325> 442 31<238 270 185.5 279.5> 671 20<128 128 378 378>
LayerCount: 2
Fore
SplineSet
427 661 m 1
 335 614 l 1
 396 564 421 532 445 471 c 0
 466 419 476 366 476 298 c 0
 476 104 399 -14 251 -14 c 0
 121 -14 25 80 25 229 c 0
 25 375 122 473 249 473 c 0
 291 473 314 462 340 432 c 1
 342 435 l 1
 323 492 297 533 256 574 c 1
 146 518 l 1
 98 549 l 1
 215 608 l 1
 172 639 132 657 82 666 c 1
 128 691 l 1
 189 685 238 671 288 645 c 1
 378 691 l 1
 427 661 l 1
329 230 m 0
 329 389 309 442 250 442 c 0
 226 442 209 430 197 408 c 0
 179 377 172 323 172 221 c 0
 172 120 180 17 252 17 c 0
 310 17 329 69 329 230 c 0
EndSplineSet
EndChar

StartChar: ntilde
Encoding: 241 241 176
Width: 556
Flags: MW
HStem: 0 20 406 67<288 396> 441 20<21 212 212 212> 547 78<361.5 376> 596 78<184 196.5>
LayerCount: 2
Fore
SplineSet
421 674 m 1x08
 464 674 l 1xc8
 441 587 404 547 348 547 c 0x10
 327 547 302 553 283 561 c 2
 254 574 l 2
 210 594 203 596 190 596 c 0
 164 596 145 577 141 549 c 1
 99 549 l 1
 117 635 153 674 215 674 c 0x08
 236 674 259 668 288 655 c 2
 328 637 l 2
 353 626 356 625 367 625 c 0x10
 394 625 408 638 421 674 c 1x08
539 0 m 1
 305 0 l 1
 305 24 l 1
 339 28 351 44 351 84 c 2
 351 321 l 2
 351 377 334 406 300 406 c 0xc0
 276 406 252 394 230 372 c 0
 220 362 213 352 213 348 c 2
 213 84 l 2
 213 47 224 29 261 24 c 1
 261 0 l 1
 21 0 l 1
 21 24 l 1
 66 33 74 45 74 87 c 2
 74 376 l 2
 74 419 65 430 21 437 c 1
 21 461 l 1
 212 461 l 1xa0
 212 386 l 1
 213 386 l 1
 247 446 295 473 355 473 c 0
 437 473 490 418 490 331 c 2
 490 84 l 2
 490 39 500 27 539 24 c 1
 539 0 l 1
EndSplineSet
EndChar

StartChar: ograve
Encoding: 242 242 177
Width: 500
Flags: MW
HStem: -14 31<222 280 222 314.5> 442 31<220.5 280.5>
LayerCount: 2
Fore
SplineSet
370 528 m 1
 314 528 l 1
 172 616 l 2
 143 634 132 648 132 668 c 0
 132 693 153 713 179 713 c 0
 198 713 217 703 233 685 c 2
 370 528 l 1
476 229 m 0
 476 88 379 -14 250 -14 c 0
 125 -14 25 86 25 228 c 0
 25 374 122 473 254 473 c 0
 380 473 476 371 476 229 c 0
329 218 m 0
 329 389 310 442 251 442 c 0
 190 442 172 389 172 218 c 0
 172 73 193 17 251 17 c 0
 309 17 329 69 329 218 c 0
EndSplineSet
EndChar

StartChar: oacute
Encoding: 243 243 178
Width: 500
Flags: MW
HStem: -14 31<222 280 222 314.5> 442 31<220.5 280.5>
LayerCount: 2
Fore
SplineSet
132 528 m 1
 269 685 l 2
 286 704 302 713 322 713 c 0
 351 713 370 695 370 669 c 0
 370 646 362 636 330 616 c 2
 188 528 l 1
 132 528 l 1
476 229 m 0
 476 88 379 -14 250 -14 c 0
 125 -14 25 86 25 228 c 0
 25 374 122 473 254 473 c 0
 380 473 476 371 476 229 c 0
329 218 m 0
 329 389 310 442 251 442 c 0
 190 442 172 389 172 218 c 0
 172 73 193 17 251 17 c 0
 309 17 329 69 329 218 c 0
EndSplineSet
EndChar

StartChar: ocircumflex
Encoding: 244 244 179
Width: 500
Flags: MW
HStem: -14 31<222 280 222 314.5> 442 31<220.5 280.5>
LayerCount: 2
Fore
SplineSet
421 528 m 1
 364 528 l 1
 252 626 l 1
 140 528 l 1
 84 528 l 1
 206 704 l 1
 298 704 l 1
 421 528 l 1
476 229 m 0
 476 88 379 -14 250 -14 c 0
 125 -14 25 86 25 228 c 0
 25 374 122 473 254 473 c 0
 380 473 476 371 476 229 c 0
329 218 m 0
 329 389 310 442 251 442 c 0
 190 442 172 389 172 218 c 0
 172 73 193 17 251 17 c 0
 309 17 329 69 329 218 c 0
EndSplineSet
EndChar

StartChar: otilde
Encoding: 245 245 180
Width: 500
Flags: MW
HStem: -14 31<222 280 222 314.5> 442 31<220.5 280.5> 547 78<331.5 346> 596 78<154 166.5>
LayerCount: 2
Fore
SplineSet
391 674 m 1x10
 434 674 l 1xd0
 411 587 374 547 318 547 c 0x20
 297 547 272 553 253 561 c 2
 224 574 l 2
 180 594 173 596 160 596 c 0
 134 596 115 577 111 549 c 1
 69 549 l 1
 87 635 123 674 185 674 c 0x10
 206 674 229 668 258 655 c 2
 298 637 l 2
 323 626 326 625 337 625 c 0x20
 364 625 378 638 391 674 c 1x10
476 229 m 0
 476 88 379 -14 250 -14 c 0
 125 -14 25 86 25 228 c 0
 25 374 122 473 254 473 c 0
 380 473 476 371 476 229 c 0
329 218 m 0
 329 389 310 442 251 442 c 0
 190 442 172 389 172 218 c 0
 172 73 193 17 251 17 c 0
 309 17 329 69 329 218 c 0
EndSplineSet
EndChar

StartChar: odieresis
Encoding: 246 246 181
Width: 500
Flags: MW
HStem: -14 31<222 280 222 314.5> 442 31<220.5 280.5> 537 129<129.5 164 129.5 164.5 338.5 373.5>
VStem: 82 129<584 618 582.5 619> 292 129<584 618 582.5 619.5>
LayerCount: 2
Fore
SplineSet
421 600 m 0
 421 565 392 537 355 537 c 0
 320 537 292 566 292 602 c 0
 292 637 321 666 356 666 c 0
 391 666 421 636 421 600 c 0
211 600 m 0
 211 565 183 537 146 537 c 0
 111 537 82 566 82 602 c 0
 82 636 112 666 147 666 c 0
 181 666 211 636 211 600 c 0
476 229 m 0
 476 88 379 -14 250 -14 c 0
 125 -14 25 86 25 228 c 0
 25 374 122 473 254 473 c 0
 380 473 476 371 476 229 c 0
329 218 m 0
 329 389 310 442 251 442 c 0
 190 442 172 389 172 218 c 0
 172 73 193 17 251 17 c 0
 309 17 329 69 329 218 c 0
EndSplineSet
EndChar

StartChar: divide
Encoding: 247 247 182
Width: 570
Flags: MW
HStem: -31 153<265 305> 209 88<33 537 33 537> 384 153<265 306>
VStem: 209 153<26.5 66.5 26.5 67 440.5 481>
CounterMasks: 1 e0
LayerCount: 2
Fore
SplineSet
362 461 m 0
 362 420 326 384 286 384 c 0
 244 384 209 419 209 460 c 0
 209 502 244 537 286 537 c 0
 326 537 362 501 362 461 c 0
537 209 m 1
 33 209 l 1
 33 297 l 1
 537 297 l 1
 537 209 l 1
362 47 m 0
 362 6 325 -31 285 -31 c 0
 245 -31 209 5 209 46 c 0
 209 88 244 122 286 122 c 0
 326 122 362 86 362 47 c 0
EndSplineSet
EndChar

StartChar: oslash
Encoding: 248 248 183
Width: 500
Flags: MW
HStem: -14 31<233.5 280 233.5 316> 442 31<221 268.5>
LayerCount: 2
Fore
SplineSet
461 549 m 1
 388 426 l 1
 450 370 476 311 476 229 c 0
 476 89 381 -14 251 -14 c 0
 211 -14 180 -6 144 13 c 1
 81 -92 l 1
 34 -92 l 1
 110 36 l 1
 50 92 25 149 25 229 c 0
 25 369 122 473 252 473 c 0
 290 473 319 466 355 448 c 1
 415 549 l 1
 461 549 l 1
173 140 m 1
 316 382 l 1
 303 426 285 442 252 442 c 0
 190 442 172 390 172 209 c 0
 172 182 172 160 173 140 c 1
327 324 m 1
 183 80 l 1
 196 35 216 17 251 17 c 0
 309 17 329 69 329 217 c 0
 329 252 329 277 327 324 c 1
EndSplineSet
EndChar

StartChar: ugrave
Encoding: 249 249 184
Width: 556
Flags: MW
HStem: -14 65<156.5 274.5> 0 20<538 538> 441 20<16 204 204 204 281 481 481 481>
LayerCount: 2
Fore
SplineSet
393 528 m 1x60
 337 528 l 1
 195 616 l 2
 166 634 155 648 155 668 c 0
 155 693 176 713 202 713 c 0
 221 713 240 703 256 685 c 2
 393 528 l 1x60
538 20 m 1
 475 13 l 2
 410 6 386 2 343 -13 c 1
 343 52 l 1
 291 3 253 -14 198 -14 c 0
 115 -14 65 38 65 131 c 2
 65 372 l 2
 65 418 57 429 16 437 c 1
 16 461 l 1
 204 461 l 1
 204 127 l 2
 204 71 224 51 260 51 c 0xa0
 289 51 311 64 342 98 c 1
 342 374 l 2
 342 419 331 433 281 437 c 1
 281 461 l 1
 481 461 l 1
 481 105 l 2
 481 61 494 45 538 43 c 1
 538 20 l 1
EndSplineSet
EndChar

StartChar: uacute
Encoding: 250 250 185
Width: 556
Flags: MW
HStem: -14 65<156.5 274.5> 0 20<538 538> 441 20<16 204 204 204 281 481 481 481>
LayerCount: 2
Fore
SplineSet
156 528 m 1x60
 293 685 l 2
 310 704 326 713 346 713 c 0
 375 713 394 695 394 669 c 0
 394 646 386 636 354 616 c 2
 212 528 l 1
 156 528 l 1x60
538 20 m 1
 475 13 l 2
 410 6 386 2 343 -13 c 1
 343 52 l 1
 291 3 253 -14 198 -14 c 0
 115 -14 65 38 65 131 c 2
 65 372 l 2
 65 418 57 429 16 437 c 1
 16 461 l 1
 204 461 l 1
 204 127 l 2
 204 71 224 51 260 51 c 0xa0
 289 51 311 64 342 98 c 1
 342 374 l 2
 342 419 331 433 281 437 c 1
 281 461 l 1
 481 461 l 1
 481 105 l 2
 481 61 494 45 538 43 c 1
 538 20 l 1
EndSplineSet
EndChar

StartChar: ucircumflex
Encoding: 251 251 186
Width: 556
Flags: MW
HStem: -14 65<156.5 274.5> 0 20<538 538> 441 20<16 204 204 204 281 481 481 481>
LayerCount: 2
Fore
SplineSet
443 528 m 1x60
 386 528 l 1
 274 626 l 1
 162 528 l 1
 106 528 l 1
 228 704 l 1
 320 704 l 1
 443 528 l 1x60
538 20 m 1
 475 13 l 2
 410 6 386 2 343 -13 c 1
 343 52 l 1
 291 3 253 -14 198 -14 c 0
 115 -14 65 38 65 131 c 2
 65 372 l 2
 65 418 57 429 16 437 c 1
 16 461 l 1
 204 461 l 1
 204 127 l 2
 204 71 224 51 260 51 c 0xa0
 289 51 311 64 342 98 c 1
 342 374 l 2
 342 419 331 433 281 437 c 1
 281 461 l 1
 481 461 l 1
 481 105 l 2
 481 61 494 45 538 43 c 1
 538 20 l 1
EndSplineSet
EndChar

StartChar: udieresis
Encoding: 252 252 187
Width: 556
Flags: MW
HStem: -14 65<156.5 274.5> 0 20<538 538> 441 20<16 204 204 204 281 481 481 481> 537 129<151.5 186 151.5 186.5 360.5 395.5>
VStem: 104 129<584 618 582.5 619> 314 129<584 618 582.5 619.5>
LayerCount: 2
Fore
SplineSet
443 600 m 0x7c
 443 565 414 537 377 537 c 0
 342 537 314 566 314 602 c 0
 314 637 343 666 378 666 c 0
 413 666 443 636 443 600 c 0x7c
233 600 m 0
 233 565 205 537 168 537 c 0
 133 537 104 566 104 602 c 0
 104 636 134 666 169 666 c 0
 203 666 233 636 233 600 c 0
538 20 m 1
 475 13 l 2
 410 6 386 2 343 -13 c 1
 343 52 l 1
 291 3 253 -14 198 -14 c 0
 115 -14 65 38 65 131 c 2
 65 372 l 2
 65 418 57 429 16 437 c 1
 16 461 l 1
 204 461 l 1
 204 127 l 2
 204 71 224 51 260 51 c 0xac
 289 51 311 64 342 98 c 1
 342 374 l 2
 342 419 331 433 281 437 c 1
 281 461 l 1
 481 461 l 1
 481 105 l 2
 481 61 494 45 538 43 c 1
 538 20 l 1
EndSplineSet
EndChar

StartChar: yacute
Encoding: 253 253 188
Width: 500
Flags: MW
HStem: -205 57<84.5 164> 441 20<16 265 265 265 330 482 482 482>
LayerCount: 2
Fore
SplineSet
129 528 m 1
 266 685 l 2
 283 704 299 713 319 713 c 0
 348 713 367 695 367 669 c 0
 367 646 359 636 327 616 c 2
 185 528 l 1
 129 528 l 1
482 461 m 1
 482 437 l 1
 451 433 438 425 422 382 c 2
 274 -16 l 2
 239 -110 218 -149 197 -172 c 0
 176 -194 147 -205 113 -205 c 0
 56 -205 16 -173 16 -126 c 0
 16 -88 40 -59 78 -59 c 0
 112 -59 138 -82 138 -111 c 0
 138 -115 137 -120 136 -125 c 0
 135 -128 135 -131 135 -131 c 1
 135 -140 143 -148 152 -148 c 0
 176 -148 201 -116 218 -66 c 2
 236 -13 l 1
 117 277 l 2
 97 327 59 411 50 423 c 0
 44 431 38 434 16 437 c 1
 16 461 l 1
 265 461 l 1
 265 437 l 1
 249 436 l 2
 224 434 213 426 213 411 c 0
 213 407 222 381 233 353 c 2
 305 167 l 1
 373 355 l 2
 382 381 384 392 384 404 c 0
 384 428 373 435 330 437 c 1
 330 461 l 1
 482 461 l 1
EndSplineSet
EndChar

StartChar: thorn
Encoding: 254 254 189
Width: 556
Flags: MW
HStem: -13 55<309.5 321 276 388.5> 416 57<308 326> 656 20<20 214 214 214>
LayerCount: 2
Fore
SplineSet
214 676 m 1
 214 391 l 1
 243 450 278 473 338 473 c 0
 449 473 524 379 524 239 c 0
 524 91 445 -13 332 -13 c 0
 287 -13 262 0 214 47 c 1
 214 -94 l 2
 214 -161 231 -181 292 -184 c 1
 292 -205 l 1
 19 -205 l 1
 19 -181 l 1
 67 -173 75 -164 75 -123 c 2
 75 594 l 2
 75 634 66 643 20 652 c 1
 20 676 l 1
 214 676 l 1
214 346 m 2
 214 103 l 1
 233 62 259 42 293 42 c 0
 349 42 376 102 376 229 c 0
 376 356 352 416 300 416 c 0
 277 416 252 403 232 379 c 0
 221 366 214 352 214 346 c 2
EndSplineSet
EndChar

StartChar: ydieresis
Encoding: 255 255 190
Width: 500
Flags: MW
HStem: -205 57<84.5 164> 441 20<16 265 265 265 330 482 482 482> 537 129<124.5 159 124.5 159.5 333.5 368.5>
VStem: 77 129<584 618 582.5 619> 287 129<584 618 582.5 619.5>
LayerCount: 2
Fore
SplineSet
482 461 m 1
 482 437 l 1
 451 433 438 425 422 382 c 2
 274 -16 l 2
 239 -110 218 -149 197 -172 c 0
 176 -194 147 -205 113 -205 c 0
 56 -205 16 -173 16 -126 c 0
 16 -88 40 -59 78 -59 c 0
 112 -59 138 -82 138 -111 c 0
 138 -115 137 -120 136 -125 c 0
 135 -128 135 -131 135 -131 c 1
 135 -140 143 -148 152 -148 c 0
 176 -148 201 -116 218 -66 c 2
 236 -13 l 1
 117 277 l 2
 97 327 59 411 50 423 c 0
 44 431 38 434 16 437 c 1
 16 461 l 1
 265 461 l 1
 265 437 l 1
 249 436 l 2
 224 434 213 426 213 411 c 0
 213 407 222 381 233 353 c 2
 305 167 l 1
 373 355 l 2
 382 381 384 392 384 404 c 0
 384 428 373 435 330 437 c 1
 330 461 l 1
 482 461 l 1
416 600 m 0
 416 565 387 537 350 537 c 0
 315 537 287 566 287 602 c 0
 287 637 316 666 351 666 c 0
 386 666 416 636 416 600 c 0
206 600 m 0
 206 565 178 537 141 537 c 0
 106 537 77 566 77 602 c 0
 77 636 107 666 142 666 c 0
 176 666 206 636 206 600 c 0
EndSplineSet
EndChar

StartChar: uni0100
Encoding: 256 256 191
Width: 722
Flags: MW
HStem: 0 20 197 39<189 384 189 399 174 384> 738 72<185 515 185 515>
LayerCount: 2
Fore
SplineSet
515 738 m 1
 185 738 l 1
 185 810 l 1
 515 810 l 1
 515 738 l 1
689 0 m 1
 367 0 l 1
 367 25 l 1
 399 28 l 2
 432 31 445 39 445 61 c 0
 445 83 433 118 399 197 c 1
 174 197 l 1
 161 163 l 2
 149 132 130 90 130 66 c 0
 130 40 152 29 211 25 c 1
 211 0 l 1
 9 0 l 1
 9 25 l 1
 55 33 70 51 108 145 c 2
 329 690 l 1
 357 690 l 1
 579 168 l 2
 630 47 648 25 689 25 c 1
 689 0 l 1
384 236 m 1
 283 479 l 1
 189 236 l 1
 384 236 l 1
EndSplineSet
EndChar

StartChar: uni0101
Encoding: 257 257 192
Width: 500
Flags: MW
HStem: -14 20 441 32<194 241.5> 528 72<85 415 85 415>
LayerCount: 2
Fore
SplineSet
415 528 m 1
 85 528 l 1
 85 600 l 1
 415 600 l 1
 415 528 l 1
473 64 m 1
 488 43 l 1
 450 2 419 -14 376 -14 c 0
 327 -14 305 4 294 55 c 1
 239 5 193 -14 135 -14 c 0
 71 -14 25 18 25 92 c 0
 25 136 47 174 92 204 c 0
 130 229 177 247 293 280 c 1
 293 348 l 2
 293 412 271 441 212 441 c 0
 176 441 147 428 147 404 c 0
 147 398 149 391 158 381 c 0
 171 365 177 353 177 339 c 0
 177 305 149 279 109 279 c 0
 68 279 44 305 44 347 c 0
 44 427 122 473 235 473 c 0
 357 473 431 425 431 339 c 2
 431 78 l 2
 431 61 438 50 452 50 c 0
 457 50 460 51 463 54 c 2
 473 64 l 1
293 97 m 1
 293 245 l 1
 213 223 171 182 171 124 c 0
 171 80 193 57 223 57 c 0
 247 57 271 66 293 97 c 1
EndSplineSet
EndChar

StartChar: uni0102
Encoding: 258 258 193
Width: 722
Flags: MW
HStem: 0 20 197 39<189 384 189 399 174 384> 738 76<315 373 315 396.5>
LayerCount: 2
Fore
SplineSet
455 901 m 1
 499 901 l 1
 492 807 446 738 347 738 c 0
 247 738 197 805 196 901 c 1
 240 901 l 1
 252 840 288 814 342 814 c 0
 404 814 438 837 455 901 c 1
689 0 m 1
 367 0 l 1
 367 25 l 1
 399 28 l 2
 432 31 445 39 445 61 c 0
 445 83 433 118 399 197 c 1
 174 197 l 1
 161 163 l 2
 149 132 130 90 130 66 c 0
 130 40 152 29 211 25 c 1
 211 0 l 1
 9 0 l 1
 9 25 l 1
 55 33 70 51 108 145 c 2
 329 690 l 1
 357 690 l 1
 579 168 l 2
 630 47 648 25 689 25 c 1
 689 0 l 1
384 236 m 1
 283 479 l 1
 189 236 l 1
 384 236 l 1
EndSplineSet
EndChar

StartChar: uni0103
Encoding: 259 259 194
Width: 500
Flags: MW
HStem: -14 20 441 32<194 241.5> 528 76<211 269 211 292.5> 671 20<92 136 136 136 351 395 395 395>
LayerCount: 2
Fore
SplineSet
351 691 m 1
 395 691 l 1
 388 597 342 528 243 528 c 0
 143 528 93 595 92 691 c 1
 136 691 l 1
 148 630 184 604 238 604 c 0
 300 604 334 627 351 691 c 1
473 64 m 1
 488 43 l 1
 450 2 419 -14 376 -14 c 0
 327 -14 305 4 294 55 c 1
 239 5 193 -14 135 -14 c 0
 71 -14 25 18 25 92 c 0
 25 136 47 174 92 204 c 0
 130 229 177 247 293 280 c 1
 293 348 l 2
 293 412 271 441 212 441 c 0
 176 441 147 428 147 404 c 0
 147 398 149 391 158 381 c 0
 171 365 177 353 177 339 c 0
 177 305 149 279 109 279 c 0
 68 279 44 305 44 347 c 0
 44 427 122 473 235 473 c 0
 357 473 431 425 431 339 c 2
 431 78 l 2
 431 61 438 50 452 50 c 0
 457 50 460 51 463 54 c 2
 473 64 l 1
293 97 m 1
 293 245 l 1
 213 223 171 182 171 124 c 0
 171 80 193 57 223 57 c 0
 247 57 271 66 293 97 c 1
EndSplineSet
EndChar

StartChar: uni0104
Encoding: 260 260 195
Width: 722
Flags: MW
HStem: -205 69<615.5 618.5> 0 20 197 39<189 384 189 399 174 384> 670 20<329 357 357 357>
VStem: 492 84<-150.5 -64.5>
LayerCount: 2
Fore
SplineSet
560 0 m 1
 367 0 l 1
 367 25 l 1
 399 28 l 2
 432 31 445 39 445 61 c 0
 445 83 433 118 399 197 c 1
 174 197 l 1
 161 163 l 2
 149 132 130 90 130 66 c 0
 130 40 152 29 211 25 c 1
 211 0 l 1
 9 0 l 1
 9 25 l 1
 55 33 70 51 108 145 c 2
 329 690 l 1
 357 690 l 1
 579 168 l 2
 630 47 648 25 689 25 c 1
 689 0 l 1
 590 0 l 1
 589 -2 588 -5 587 -8 c 0
 578 -40 576 -57 576 -72 c 0
 576 -119 594 -136 637 -136 c 0
 653 -136 665 -133 685 -123 c 0
 693 -119 695 -117 698 -115 c 1
 721 -131 l 1
 696 -177 642 -205 595 -205 c 0
 533 -205 492 -174 492 -127 c 0
 492 -89 505 -64 546 -16 c 0
 554 -6 556 -5 560 0 c 1
384 236 m 1
 283 479 l 1
 189 236 l 1
 384 236 l 1
EndSplineSet
EndChar

StartChar: uni0105
Encoding: 261 261 196
Width: 500
Flags: MW
HStem: -205 69<463.5 466.5> -14 20 441 32<194 241.5>
VStem: 340 84<-150.5 -64.5>
LayerCount: 2
Fore
SplineSet
546 -115 m 1
 569 -131 l 1
 544 -177 490 -205 443 -205 c 0
 381 -205 340 -174 340 -127 c 0
 340 -89 353 -64 394 -16 c 0
 395 -15 396 -14 397 -13 c 1
 390 -14 383 -14 376 -14 c 0
 327 -14 305 4 294 55 c 1
 239 5 193 -14 135 -14 c 0
 71 -14 25 18 25 92 c 0
 25 136 47 174 92 204 c 0
 130 229 177 247 293 280 c 1
 293 348 l 2
 293 412 271 441 212 441 c 0
 176 441 147 428 147 404 c 0
 147 398 149 391 158 381 c 0
 171 365 177 353 177 339 c 0
 177 305 149 279 109 279 c 0
 68 279 44 305 44 347 c 0
 44 427 122 473 235 473 c 0
 357 473 431 425 431 339 c 2
 431 78 l 2
 431 61 438 50 452 50 c 0
 457 50 460 51 463 54 c 2
 473 64 l 1
 488 43 l 1
 471 24 455 11 438 1 c 1
 437 -1 436 -4 435 -8 c 0
 426 -40 424 -57 424 -72 c 0
 424 -119 442 -136 485 -136 c 0
 501 -136 513 -133 533 -123 c 0
 541 -119 543 -117 546 -115 c 1
293 97 m 1
 293 245 l 1
 213 223 171 182 171 124 c 0
 171 80 193 57 223 57 c 0
 247 57 271 66 293 97 c 1
EndSplineSet
EndChar

StartChar: uni0106
Encoding: 262 262 197
Width: 722
Flags: MW
HStem: -19 48<397.5 449 397.5 456.5> 658 33<357.5 420 294 443.5>
LayerCount: 2
Fore
SplineSet
316 738 m 1
 453 895 l 2
 470 914 486 923 506 923 c 0
 535 923 554 905 554 879 c 0
 554 856 546 846 514 826 c 2
 372 738 l 1
 316 738 l 1
657 152 m 1
 687 127 l 1
 594 12 514 -19 399 -19 c 0
 184 -19 49 128 49 323 c 0
 49 535 192 691 396 691 c 0
 444 691 494 680 552 656 c 0
 575 646 588 642 598 642 c 0
 617 642 627 652 642 688 c 1
 669 688 l 1
 669 453 l 1
 644 453 l 1
 625 507 601 540 577 568 c 0
 531 623 477 658 410 658 c 0
 305 658 226 545 226 345 c 0
 226 244 238 171 280 105 c 0
 309 59 368 29 427 29 c 0
 471 29 513 41 553 63 c 0
 585 81 613 106 657 152 c 1
EndSplineSet
EndChar

StartChar: uni0107
Encoding: 263 263 198
Width: 444
Flags: MW
HStem: -14 67<261.5 279> 442 31<225.5 271>
LayerCount: 2
Fore
SplineSet
162 528 m 1
 299 685 l 2
 316 704 332 713 352 713 c 0
 381 713 400 695 400 669 c 0
 400 646 392 636 360 616 c 2
 218 528 l 1
 162 528 l 1
412 109 m 1
 430 91 l 1
 375 16 319 -14 239 -14 c 0
 114 -14 25 79 25 222 c 0
 25 371 129 473 262 473 c 0
 349 473 416 427 416 363 c 0
 416 324 390 299 348 299 c 0
 314 299 292 324 292 372 c 0
 292 419 292 442 250 442 c 0
 201 442 166 382 166 273 c 0
 166 137 218 53 305 53 c 0
 346 53 375 67 412 109 c 1
EndSplineSet
EndChar

StartChar: uni0108
Encoding: 264 264 199
Width: 722
Flags: MW
HStem: -19 48<397.5 449 397.5 456.5> 658 33<357.5 420 294 443.5>
LayerCount: 2
Fore
SplineSet
539 738 m 1
 482 738 l 1
 370 836 l 1
 258 738 l 1
 202 738 l 1
 324 914 l 1
 416 914 l 1
 539 738 l 1
657 152 m 1
 687 127 l 1
 594 12 514 -19 399 -19 c 0
 184 -19 49 128 49 323 c 0
 49 535 192 691 396 691 c 0
 444 691 494 680 552 656 c 0
 575 646 588 642 598 642 c 0
 617 642 627 652 642 688 c 1
 669 688 l 1
 669 453 l 1
 644 453 l 1
 625 507 601 540 577 568 c 0
 531 623 477 658 410 658 c 0
 305 658 226 545 226 345 c 0
 226 244 238 171 280 105 c 0
 309 59 368 29 427 29 c 0
 471 29 513 41 553 63 c 0
 585 81 613 106 657 152 c 1
EndSplineSet
EndChar

StartChar: uni0109
Encoding: 265 265 200
Width: 444
Flags: MW
HStem: -14 67<261.5 279> 442 31<225.5 271>
LayerCount: 2
Fore
SplineSet
399 528 m 1
 342 528 l 1
 230 626 l 1
 118 528 l 1
 62 528 l 1
 184 704 l 1
 276 704 l 1
 399 528 l 1
412 109 m 1
 430 91 l 1
 375 16 319 -14 239 -14 c 0
 114 -14 25 79 25 222 c 0
 25 371 129 473 262 473 c 0
 349 473 416 427 416 363 c 0
 416 324 390 299 348 299 c 0
 314 299 292 324 292 372 c 0
 292 419 292 442 250 442 c 0
 201 442 166 382 166 273 c 0
 166 137 218 53 305 53 c 0
 346 53 375 67 412 109 c 1
EndSplineSet
EndChar

StartChar: uni010A
Encoding: 266 266 201
Width: 722
Flags: MW
HStem: -19 48<397.5 449 397.5 456.5> 658 33<357.5 420 294 443.5> 747 129<352.5 387.5 352.5 387.5>
VStem: 306 129<794 828 792.5 829.5>
LayerCount: 2
Fore
SplineSet
435 810 m 0
 435 775 406 747 369 747 c 0
 334 747 306 776 306 812 c 0
 306 847 335 876 370 876 c 0
 405 876 435 846 435 810 c 0
657 152 m 1
 687 127 l 1
 594 12 514 -19 399 -19 c 0
 184 -19 49 128 49 323 c 0
 49 535 192 691 396 691 c 0
 444 691 494 680 552 656 c 0
 575 646 588 642 598 642 c 0
 617 642 627 652 642 688 c 1
 669 688 l 1
 669 453 l 1
 644 453 l 1
 625 507 601 540 577 568 c 0
 531 623 477 658 410 658 c 0
 305 658 226 545 226 345 c 0
 226 244 238 171 280 105 c 0
 309 59 368 29 427 29 c 0
 471 29 513 41 553 63 c 0
 585 81 613 106 657 152 c 1
EndSplineSet
EndChar

StartChar: uni010B
Encoding: 267 267 202
Width: 444
Flags: MW
HStem: -14 67<261.5 279> 442 31<225.5 271> 537 129<222.5 257.5 222.5 257.5>
VStem: 176 129<584 618 582.5 619.5>
LayerCount: 2
Fore
SplineSet
305 600 m 0
 305 565 276 537 239 537 c 0
 204 537 176 566 176 602 c 0
 176 637 205 666 240 666 c 0
 275 666 305 636 305 600 c 0
412 109 m 1
 430 91 l 1
 375 16 319 -14 239 -14 c 0
 114 -14 25 79 25 222 c 0
 25 371 129 473 262 473 c 0
 349 473 416 427 416 363 c 0
 416 324 390 299 348 299 c 0
 314 299 292 324 292 372 c 0
 292 419 292 442 250 442 c 0
 201 442 166 382 166 273 c 0
 166 137 218 53 305 53 c 0
 346 53 375 67 412 109 c 1
EndSplineSet
EndChar

StartChar: uni010C
Encoding: 268 268 203
Width: 722
Flags: MW
HStem: -19 48<397.5 449 397.5 456.5> 658 33<357.5 420 294 443.5>
LayerCount: 2
Fore
SplineSet
564 914 m 1
 441 738 l 1
 349 738 l 1
 227 914 l 1
 284 914 l 1
 395 815 l 1
 506 914 l 1
 564 914 l 1
657 152 m 1
 687 127 l 1
 594 12 514 -19 399 -19 c 0
 184 -19 49 128 49 323 c 0
 49 535 192 691 396 691 c 0
 444 691 494 680 552 656 c 0
 575 646 588 642 598 642 c 0
 617 642 627 652 642 688 c 1
 669 688 l 1
 669 453 l 1
 644 453 l 1
 625 507 601 540 577 568 c 0
 531 623 477 658 410 658 c 0
 305 658 226 545 226 345 c 0
 226 244 238 171 280 105 c 0
 309 59 368 29 427 29 c 0
 471 29 513 41 553 63 c 0
 585 81 613 106 657 152 c 1
EndSplineSet
EndChar

StartChar: uni010D
Encoding: 269 269 204
Width: 444
Flags: MW
HStem: -14 67<261.5 279> 442 31<225.5 271>
LayerCount: 2
Fore
SplineSet
416 704 m 1
 293 528 l 1
 201 528 l 1
 79 704 l 1
 136 704 l 1
 247 605 l 1
 358 704 l 1
 416 704 l 1
412 109 m 1
 430 91 l 1
 375 16 319 -14 239 -14 c 0
 114 -14 25 79 25 222 c 0
 25 371 129 473 262 473 c 0
 349 473 416 427 416 363 c 0
 416 324 390 299 348 299 c 0
 314 299 292 324 292 372 c 0
 292 419 292 442 250 442 c 0
 201 442 166 382 166 273 c 0
 166 137 218 53 305 53 c 0
 346 53 375 67 412 109 c 1
EndSplineSet
EndChar

StartChar: uni010E
Encoding: 270 270 205
Width: 722
Flags: MW
HStem: 0 35<294.5 323> 642 34<292.5 326 326 349.5>
LayerCount: 2
Fore
SplineSet
484 914 m 1
 361 738 l 1
 269 738 l 1
 147 914 l 1
 204 914 l 1
 315 815 l 1
 426 914 l 1
 484 914 l 1
14 676 m 1
 326 676 l 2
 554 676 690 551 690 345 c 0
 690 242 647 144 575 81 c 0
 514 28 424 0 323 0 c 2
 14 0 l 1
 14 25 l 1
 72 27 97 50 97 98 c 2
 97 584 l 2
 97 630 78 645 14 651 c 1
 14 676 l 1
259 598 m 2
 259 100 l 2
 259 55 272 35 317 35 c 0
 383 35 432 59 466 107 c 0
 497 152 516 242 516 330 c 0
 516 416 504 490 475 541 c 0
 437 607 387 642 312 642 c 0
 273 642 259 626 259 598 c 2
EndSplineSet
EndChar

StartChar: uni010F
Encoding: 271 271 206
Width: 680
Flags: MW
HStem: -14 56<224.5 232.5> 0 20<534 534> 417 56<229 240 162 274.5> 656 20<260 475 475 475>
VStem: 642 68<509.5 628.5>
LayerCount: 2
Fore
SplineSet
544 374 m 1x78
 533 396 l 1
 608 448 642 490 642 529 c 0
 642 541 634 550 623 550 c 0
 616 550 609 548 599 548 c 0
 556 548 526 578 526 624 c 0
 526 676 560 709 610 709 c 0
 673 709 710 664 710 593 c 0
 710 507 660 435 544 374 c 1x78
534 20 m 1
 472 12 l 2
 410 4 385 0 339 -13 c 1
 339 52 l 1
 292 2 259 -14 206 -14 c 0x88
 101 -14 25 84 25 221 c 0
 25 366 107 473 217 473 c 0
 263 473 293 457 336 411 c 1
 336 594 l 2
 336 640 327 647 260 652 c 1
 260 676 l 1
 475 676 l 1
 475 101 l 2
 475 59 488 46 534 43 c 1
 534 20 l 1
336 112 m 2xa8
 336 355 l 1
 321 393 291 417 258 417 c 0
 200 417 173 358 173 229 c 0
 173 102 198 42 251 42 c 0
 274 42 297 54 317 79 c 0
 327 92 336 107 336 112 c 2xa8
EndSplineSet
EndChar

StartChar: uni0110
Encoding: 272 272 207
Width: 722
Flags: MW
HStem: 0 35<294.5 330> 326 47<6 97 6 97 259 373> 656 20<14 319 319 435>
LayerCount: 2
Fore
SplineSet
14 676 m 1
 319 676 l 2
 551 676 690 551 690 345 c 0
 690 249 658 163 600 104 c 1
 537 38 437 0 330 0 c 2
 14 0 l 1
 14 25 l 1
 72 27 97 47 97 91 c 2
 97 326 l 1
 6 326 l 1
 6 373 l 1
 97 373 l 1
 97 584 l 2
 97 630 78 645 14 651 c 1
 14 676 l 1
259 326 m 1
 259 93 l 2
 259 48 272 35 317 35 c 0
 383 35 432 59 466 107 c 0
 497 152 516 237 516 330 c 0
 516 416 502 489 474 542 c 0
 438 609 389 642 319 642 c 0
 271 642 259 632 259 595 c 2
 259 373 l 1
 373 373 l 1
 373 326 l 1
 259 326 l 1
EndSplineSet
EndChar

StartChar: uni0111
Encoding: 273 273 208
Width: 556
Flags: MW
HStem: -14 57<224.5 232.5> 0 20<534 534> 417 56<229 240 162 274.5> 517 50<158 336 158 336 475 528> 656 20<260 475 475 475>
LayerCount: 2
Fore
SplineSet
534 20 m 1x40
 472 12 l 2
 410 4 385 0 339 -13 c 1
 339 52 l 1
 292 2 259 -14 206 -14 c 0
 101 -14 25 84 25 221 c 0
 25 366 107 473 217 473 c 0
 263 473 293 457 336 411 c 1
 336 517 l 1
 158 517 l 1
 158 567 l 1
 336 567 l 1
 336 594 l 2
 336 640 327 647 260 652 c 1
 260 676 l 1
 475 676 l 1
 475 567 l 1
 528 567 l 1
 528 517 l 1
 475 517 l 1
 475 101 l 2
 475 59 488 46 534 43 c 1xb8
 534 20 l 1x40
336 112 m 2xa0
 336 355 l 1
 321 393 291 417 258 417 c 0
 200 417 173 358 173 229 c 0
 173 102 198 43 251 43 c 0
 274 43 297 54 317 79 c 0
 327 92 336 107 336 112 c 2xa0
EndSplineSet
EndChar

StartChar: uni0112
Encoding: 274 274 209
Width: 667
Flags: MW
HStem: 0 31<316.5 388 316.5 601> 642 34<305 412.5> 738 72<160 490 160 490>
LayerCount: 2
Fore
SplineSet
490 738 m 1
 160 738 l 1
 160 810 l 1
 490 810 l 1
 490 738 l 1
641 208 m 1
 601 0 l 1
 16 0 l 1
 16 25 l 1
 90 33 104 49 104 101 c 2
 104 580 l 2
 104 631 85 647 16 651 c 1
 16 676 l 1
 593 676 l 1
 593 475 l 1
 568 475 l 1
 545 609 494 642 331 642 c 0
 279 642 266 626 266 588 c 2
 266 363 l 1
 372 364 416 396 428 512 c 1
 454 512 l 1
 454 174 l 1
 428 174 l 1
 418 293 375 329 266 329 c 1
 266 87 l 2
 266 44 284 31 349 31 c 0
 427 31 484 46 531 85 c 0
 565 113 583 143 613 208 c 1
 641 208 l 1
EndSplineSet
EndChar

StartChar: uni0113
Encoding: 275 275 210
Width: 444
Flags: MW
HStem: -14 72<239 271.5> 245 37<169 298 164 421 169 169> 442 31<211 248.5> 528 72<65 395 65 395>
LayerCount: 2
Fore
SplineSet
395 528 m 1
 65 528 l 1
 65 600 l 1
 395 600 l 1
 395 528 l 1
403 126 m 1
 427 112 l 1
 367 17 314 -14 229 -14 c 0
 108 -14 25 87 25 224 c 0
 25 373 109 473 234 473 c 0
 292 473 333 455 362 423 c 0
 399 382 417 319 421 245 c 1
 169 245 l 1
 175 150 190 58 288 58 c 0
 331 58 362 77 403 126 c 1
298 282 m 1
 298 303 l 2
 298 355 298 376 289 395 c 0
 275 425 263 442 234 442 c 0
 188 442 164 402 164 282 c 1
 298 282 l 1
EndSplineSet
EndChar

StartChar: uni0114
Encoding: 276 276 211
Width: 667
Flags: MW
HStem: 0 31<316.5 388 316.5 601> 642 34<305 412.5> 738 76<293 351 293 374.5>
LayerCount: 2
Fore
SplineSet
433 901 m 1
 477 901 l 1
 470 807 424 738 325 738 c 0
 225 738 175 805 174 901 c 1
 218 901 l 1
 230 840 266 814 320 814 c 0
 382 814 416 837 433 901 c 1
641 208 m 1
 601 0 l 1
 16 0 l 1
 16 25 l 1
 90 33 104 49 104 101 c 2
 104 580 l 2
 104 631 85 647 16 651 c 1
 16 676 l 1
 593 676 l 1
 593 475 l 1
 568 475 l 1
 545 609 494 642 331 642 c 0
 279 642 266 626 266 588 c 2
 266 363 l 1
 372 364 416 396 428 512 c 1
 454 512 l 1
 454 174 l 1
 428 174 l 1
 418 293 375 329 266 329 c 1
 266 87 l 2
 266 44 284 31 349 31 c 0
 427 31 484 46 531 85 c 0
 565 113 583 143 613 208 c 1
 641 208 l 1
EndSplineSet
EndChar

StartChar: uni0115
Encoding: 277 277 212
Width: 444
Flags: MW
HStem: -14 72<239 271.5> 245 37<169 298 164 421 169 169> 442 31<211 248.5> 528 76<198 256 198 279.5> 671 20<79 123 123 123 338 382 382 382>
LayerCount: 2
Fore
SplineSet
338 691 m 1
 382 691 l 1
 375 597 329 528 230 528 c 0
 130 528 80 595 79 691 c 1
 123 691 l 1
 135 630 171 604 225 604 c 0
 287 604 321 627 338 691 c 1
403 126 m 1
 427 112 l 1
 367 17 314 -14 229 -14 c 0
 108 -14 25 87 25 224 c 0
 25 373 109 473 234 473 c 0
 292 473 333 455 362 423 c 0
 399 382 417 319 421 245 c 1
 169 245 l 1
 175 150 190 58 288 58 c 0
 331 58 362 77 403 126 c 1
298 282 m 1
 298 303 l 2
 298 355 298 376 289 395 c 0
 275 425 263 442 234 442 c 0
 188 442 164 402 164 282 c 1
 298 282 l 1
EndSplineSet
EndChar

StartChar: uni0116
Encoding: 278 278 213
Width: 667
Flags: MW
HStem: 0 31<316.5 388 316.5 601> 642 34<305 412.5> 747 129<312.5 347.5 312.5 347.5>
VStem: 266 129<794 828 792.5 829.5>
LayerCount: 2
Fore
SplineSet
395 810 m 0
 395 775 366 747 329 747 c 0
 294 747 266 776 266 812 c 0
 266 847 295 876 330 876 c 0
 365 876 395 846 395 810 c 0
641 208 m 1
 601 0 l 1
 16 0 l 1
 16 25 l 1
 90 33 104 49 104 101 c 2
 104 580 l 2
 104 631 85 647 16 651 c 1
 16 676 l 1
 593 676 l 1
 593 475 l 1
 568 475 l 1
 545 609 494 642 331 642 c 0
 279 642 266 626 266 588 c 2
 266 363 l 1
 372 364 416 396 428 512 c 1
 454 512 l 1
 454 174 l 1
 428 174 l 1
 418 293 375 329 266 329 c 1
 266 87 l 2
 266 44 284 31 349 31 c 0
 427 31 484 46 531 85 c 0
 565 113 583 143 613 208 c 1
 641 208 l 1
EndSplineSet
EndChar

StartChar: uni0117
Encoding: 279 279 214
Width: 444
Flags: MW
HStem: -14 72<239 271.5> 245 37<169 298 164 421 169 169> 442 31<211 248.5> 537 129<212.5 247.5 212.5 247.5>
VStem: 166 129<584 618 582.5 619.5>
LayerCount: 2
Fore
SplineSet
295 600 m 0
 295 565 266 537 229 537 c 0
 194 537 166 566 166 602 c 0
 166 637 195 666 230 666 c 0
 265 666 295 636 295 600 c 0
403 126 m 1
 427 112 l 1
 367 17 314 -14 229 -14 c 0
 108 -14 25 87 25 224 c 0
 25 373 109 473 234 473 c 0
 292 473 333 455 362 423 c 0
 399 382 417 319 421 245 c 1
 169 245 l 1
 175 150 190 58 288 58 c 0
 331 58 362 77 403 126 c 1
298 282 m 1
 298 303 l 2
 298 355 298 376 289 395 c 0
 275 425 263 442 234 442 c 0
 188 442 164 402 164 282 c 1
 298 282 l 1
EndSplineSet
EndChar

StartChar: uni0118
Encoding: 280 280 215
Width: 667
Flags: MW
HStem: -205 69<462.5 465.5> 0 31<316.5 388 316.5 407> 642 34<305 412.5>
VStem: 339 84<-150.5 -64.5>
LayerCount: 2
Fore
SplineSet
407 0 m 1
 16 0 l 1
 16 25 l 1
 90 33 104 49 104 101 c 2
 104 580 l 2
 104 631 85 647 16 651 c 1
 16 676 l 1
 593 676 l 1
 593 475 l 1
 568 475 l 1
 545 609 494 642 331 642 c 0
 279 642 266 626 266 588 c 2
 266 363 l 1
 372 364 416 396 428 512 c 1
 454 512 l 1
 454 174 l 1
 428 174 l 1
 418 293 375 329 266 329 c 1
 266 87 l 2
 266 44 284 31 349 31 c 0
 427 31 484 46 531 85 c 0
 565 113 583 143 613 208 c 1
 641 208 l 1
 601 0 l 1
 437 0 l 1
 436 -2 435 -5 434 -8 c 0
 425 -40 423 -57 423 -72 c 0
 423 -119 441 -136 484 -136 c 0
 500 -136 512 -133 532 -123 c 0
 540 -119 542 -117 545 -115 c 1
 568 -131 l 1
 543 -177 489 -205 442 -205 c 0
 380 -205 339 -174 339 -127 c 0
 339 -89 352 -64 393 -16 c 0
 401 -6 403 -5 407 0 c 1
EndSplineSet
EndChar

StartChar: uni0119
Encoding: 281 281 216
Width: 444
Flags: MW
HStem: -205 69<329.5 332.5> -14 72<168.5 309.5> 245 37<169 298 164 421 169 169> 442 31<211 248.5>
VStem: 206 84<-150.5 -64.5>
LayerCount: 2
Fore
SplineSet
412 -115 m 1
 435 -131 l 1
 410 -177 356 -205 309 -205 c 0
 247 -205 206 -174 206 -127 c 0
 206 -89 219 -64 260 -16 c 0
 261 -15 262 -13 263 -12 c 1
 252 -13 241 -14 229 -14 c 0
 108 -14 25 87 25 224 c 0
 25 373 109 473 234 473 c 0
 292 473 333 455 362 423 c 0
 399 382 417 319 421 245 c 1
 169 245 l 1
 175 150 190 58 288 58 c 0
 331 58 362 77 403 126 c 1
 427 112 l 1
 386 48 349 13 303 -3 c 1
 302 -5 302 -6 301 -8 c 0
 292 -40 290 -57 290 -72 c 0
 290 -119 308 -136 351 -136 c 0
 367 -136 379 -133 399 -123 c 0
 407 -119 409 -117 412 -115 c 1
298 282 m 1
 298 303 l 2
 298 355 298 376 289 395 c 0
 275 425 263 442 234 442 c 0
 188 442 164 402 164 282 c 1
 298 282 l 1
EndSplineSet
EndChar

StartChar: uni011A
Encoding: 282 282 217
Width: 667
Flags: MW
HStem: 0 31<316.5 388 316.5 601> 642 34<305 412.5>
LayerCount: 2
Fore
SplineSet
509 914 m 1
 386 738 l 1
 294 738 l 1
 172 914 l 1
 229 914 l 1
 340 815 l 1
 451 914 l 1
 509 914 l 1
641 208 m 1
 601 0 l 1
 16 0 l 1
 16 25 l 1
 90 33 104 49 104 101 c 2
 104 580 l 2
 104 631 85 647 16 651 c 1
 16 676 l 1
 593 676 l 1
 593 475 l 1
 568 475 l 1
 545 609 494 642 331 642 c 0
 279 642 266 626 266 588 c 2
 266 363 l 1
 372 364 416 396 428 512 c 1
 454 512 l 1
 454 174 l 1
 428 174 l 1
 418 293 375 329 266 329 c 1
 266 87 l 2
 266 44 284 31 349 31 c 0
 427 31 484 46 531 85 c 0
 565 113 583 143 613 208 c 1
 641 208 l 1
EndSplineSet
EndChar

StartChar: uni011B
Encoding: 283 283 218
Width: 444
Flags: MW
HStem: -14 72<239 271.5> 245 37<169 298 164 421 169 169> 442 31<211 248.5>
LayerCount: 2
Fore
SplineSet
402 704 m 1
 279 528 l 1
 187 528 l 1
 65 704 l 1
 122 704 l 1
 233 605 l 1
 344 704 l 1
 402 704 l 1
403 126 m 1
 427 112 l 1
 367 17 314 -14 229 -14 c 0
 108 -14 25 87 25 224 c 0
 25 373 109 473 234 473 c 0
 292 473 333 455 362 423 c 0
 399 382 417 319 421 245 c 1
 169 245 l 1
 175 150 190 58 288 58 c 0
 331 58 362 77 403 126 c 1
298 282 m 1
 298 303 l 2
 298 355 298 376 289 395 c 0
 275 425 263 442 234 442 c 0
 188 442 164 402 164 282 c 1
 298 282 l 1
EndSplineSet
EndChar

StartChar: uni011C
Encoding: 284 284 219
Width: 778
Flags: MW
HStem: -19 33<378.5 444> 658 33<340 411 285 421.5>
LayerCount: 2
Fore
SplineSet
569 738 m 1
 512 738 l 1
 400 836 l 1
 288 738 l 1
 232 738 l 1
 354 914 l 1
 446 914 l 1
 569 738 l 1
755 287 m 1
 755 262 l 1
 680 254 669 225 669 162 c 2
 669 44 l 1
 604 6 496 -19 392 -19 c 0
 191 -19 37 117 37 331 c 0
 37 530 185 691 385 691 c 0
 437 691 482 680 540 656 c 0
 563 646 576 642 586 642 c 0
 605 642 615 652 630 688 c 1
 657 688 l 1
 657 453 l 1
 632 453 l 1
 597 529 579 564 536 602 c 0
 493 640 445 658 398 658 c 0
 282 658 214 545 214 338 c 0
 214 235 229 156 262 101 c 0
 297 43 340 14 417 14 c 0
 488 14 513 48 513 99 c 2
 513 188 l 2
 513 240 497 257 411 262 c 1
 411 287 l 1
 755 287 l 1
EndSplineSet
EndChar

StartChar: uni011D
Encoding: 285 285 220
Width: 500
Flags: MW
HStem: -206 32<206 299.5 206 305.5> 398 53<401 481 401 401> 442 31<215.5 260 180.5 263>
VStem: 28 88<-129 -96.5 -129 -93.5> 404 79<-99 -91>
LayerCount: 2
Fore
SplineSet
419 528 m 1x58
 362 528 l 1
 250 626 l 1
 138 528 l 1
 82 528 l 1
 204 704 l 1
 296 704 l 1
 419 528 l 1x58
254 68 m 2
 306 68 l 2
 414 68 483 22 483 -52 c 0
 483 -146 389 -206 222 -206 c 0
 96 -206 28 -174 28 -114 c 0
 28 -73 61 -48 124 -39 c 1
 60 -16 42 6 42 43 c 0
 42 102 81 137 161 160 c 1
 90 180 37 236 37 312 c 0
 37 411 121 473 240 473 c 0xb8
 280 473 308 467 352 451 c 1
 481 451 l 1
 481 398 l 1
 401 398 l 1
 429 373 441 340 441 300 c 0
 441 237 410 193 349 168 c 0
 316 154 313 154 222 154 c 0
 183 154 153 135 153 105 c 0
 153 78 174 68 254 68 c 2
306 312 m 0
 306 405 287 442 239 442 c 0
 192 442 174 409 174 311 c 0
 174 218 192 182 240 182 c 0
 288 182 306 218 306 312 c 0
315 -52 m 2
 151 -52 l 1
 123 -75 116 -86 116 -107 c 0
 116 -151 162 -174 250 -174 c 0
 349 -174 404 -146 404 -108 c 0
 404 -74 380 -52 315 -52 c 2
EndSplineSet
EndChar

StartChar: uni011E
Encoding: 286 286 221
Width: 778
Flags: MW
HStem: -19 33<378.5 444> 658 33<340 411 285 421.5> 738 76<361 419 361 442.5>
LayerCount: 2
Fore
SplineSet
501 901 m 1
 545 901 l 1
 538 807 492 738 393 738 c 0
 293 738 243 805 242 901 c 1
 286 901 l 1
 298 840 334 814 388 814 c 0
 450 814 484 837 501 901 c 1
755 287 m 1
 755 262 l 1
 680 254 669 225 669 162 c 2
 669 44 l 1
 604 6 496 -19 392 -19 c 0
 191 -19 37 117 37 331 c 0
 37 530 185 691 385 691 c 0
 437 691 482 680 540 656 c 0
 563 646 576 642 586 642 c 0
 605 642 615 652 630 688 c 1
 657 688 l 1
 657 453 l 1
 632 453 l 1
 597 529 579 564 536 602 c 0
 493 640 445 658 398 658 c 0
 282 658 214 545 214 338 c 0
 214 235 229 156 262 101 c 0
 297 43 340 14 417 14 c 0
 488 14 513 48 513 99 c 2
 513 188 l 2
 513 240 497 257 411 262 c 1
 411 287 l 1
 755 287 l 1
EndSplineSet
EndChar

StartChar: uni011F
Encoding: 287 287 222
Width: 500
Flags: MW
HStem: -206 32<206 299.5 206 305.5> 398 53<401 481 401 401> 442 31<215.5 260 180.5 263> 528 76<214 272 214 295.5> 671 20<95 139 139 139 354 398 398 398>
VStem: 28 88<-129 -96.5 -129 -93.5> 404 79<-99 -91>
LayerCount: 2
Fore
SplineSet
354 691 m 1x5e
 398 691 l 1
 391 597 345 528 246 528 c 0
 146 528 96 595 95 691 c 1
 139 691 l 1
 151 630 187 604 241 604 c 0
 303 604 337 627 354 691 c 1x5e
254 68 m 2
 306 68 l 2
 414 68 483 22 483 -52 c 0
 483 -146 389 -206 222 -206 c 0
 96 -206 28 -174 28 -114 c 0
 28 -73 61 -48 124 -39 c 1
 60 -16 42 6 42 43 c 0
 42 102 81 137 161 160 c 1
 90 180 37 236 37 312 c 0
 37 411 121 473 240 473 c 0xa6
 280 473 308 467 352 451 c 1
 481 451 l 1
 481 398 l 1
 401 398 l 1
 429 373 441 340 441 300 c 0
 441 237 410 193 349 168 c 0
 316 154 313 154 222 154 c 0
 183 154 153 135 153 105 c 0
 153 78 174 68 254 68 c 2
306 312 m 0
 306 405 287 442 239 442 c 0
 192 442 174 409 174 311 c 0
 174 218 192 182 240 182 c 0
 288 182 306 218 306 312 c 0
315 -52 m 2
 151 -52 l 1
 123 -75 116 -86 116 -107 c 0
 116 -151 162 -174 250 -174 c 0
 349 -174 404 -146 404 -108 c 0
 404 -74 380 -52 315 -52 c 2
EndSplineSet
EndChar

StartChar: uni0120
Encoding: 288 288 223
Width: 778
Flags: MW
HStem: -19 33<378.5 444> 658 33<340 411 285 421.5> 747 129<382.5 417.5 382.5 417.5>
VStem: 336 129<794 828 792.5 829.5>
LayerCount: 2
Fore
SplineSet
465 810 m 0
 465 775 436 747 399 747 c 0
 364 747 336 776 336 812 c 0
 336 847 365 876 400 876 c 0
 435 876 465 846 465 810 c 0
755 287 m 1
 755 262 l 1
 680 254 669 225 669 162 c 2
 669 44 l 1
 604 6 496 -19 392 -19 c 0
 191 -19 37 117 37 331 c 0
 37 530 185 691 385 691 c 0
 437 691 482 680 540 656 c 0
 563 646 576 642 586 642 c 0
 605 642 615 652 630 688 c 1
 657 688 l 1
 657 453 l 1
 632 453 l 1
 597 529 579 564 536 602 c 0
 493 640 445 658 398 658 c 0
 282 658 214 545 214 338 c 0
 214 235 229 156 262 101 c 0
 297 43 340 14 417 14 c 0
 488 14 513 48 513 99 c 2
 513 188 l 2
 513 240 497 257 411 262 c 1
 411 287 l 1
 755 287 l 1
EndSplineSet
EndChar

StartChar: uni0121
Encoding: 289 289 224
Width: 500
Flags: MW
HStem: -206 32<206 299.5 206 305.5> 398 53<401 481 401 401> 442 31<215.5 260 180.5 263> 537 129<232.5 267.5 232.5 267.5>
VStem: 28 88<-129 -96.5 -129 -93.5> 186 129<584 618> 404 79<-99 -91>
LayerCount: 2
Fore
SplineSet
315 600 m 0x5e
 315 565 286 537 249 537 c 0
 214 537 186 566 186 602 c 0
 186 637 215 666 250 666 c 0
 285 666 315 636 315 600 c 0x5e
254 68 m 2
 306 68 l 2
 414 68 483 22 483 -52 c 0
 483 -146 389 -206 222 -206 c 0
 96 -206 28 -174 28 -114 c 0
 28 -73 61 -48 124 -39 c 1
 60 -16 42 6 42 43 c 0
 42 102 81 137 161 160 c 1
 90 180 37 236 37 312 c 0
 37 411 121 473 240 473 c 0xae
 280 473 308 467 352 451 c 1
 481 451 l 1
 481 398 l 1
 401 398 l 1
 429 373 441 340 441 300 c 0
 441 237 410 193 349 168 c 0
 316 154 313 154 222 154 c 0
 183 154 153 135 153 105 c 0
 153 78 174 68 254 68 c 2
306 312 m 0
 306 405 287 442 239 442 c 0
 192 442 174 409 174 311 c 0
 174 218 192 182 240 182 c 0
 288 182 306 218 306 312 c 0
315 -52 m 2
 151 -52 l 1
 123 -75 116 -86 116 -107 c 0
 116 -151 162 -174 250 -174 c 0
 349 -174 404 -146 404 -108 c 0
 404 -74 380 -52 315 -52 c 2
EndSplineSet
EndChar

StartChar: uni0122
Encoding: 290 290 225
Width: 778
Flags: MW
HStem: -19 33<378.5 444> 658 33<340 411 285 421.5>
VStem: 415 68<-242.5 -123.5>
LayerCount: 2
Fore
SplineSet
755 287 m 1
 755 262 l 1
 680 254 669 225 669 162 c 2
 669 44 l 1
 604 6 496 -19 392 -19 c 0
 191 -19 37 117 37 331 c 0
 37 530 185 691 385 691 c 0
 437 691 482 680 540 656 c 0
 563 646 576 642 586 642 c 0
 605 642 615 652 630 688 c 1
 657 688 l 1
 657 453 l 1
 632 453 l 1
 597 529 579 564 536 602 c 0
 493 640 445 658 398 658 c 0
 282 658 214 545 214 338 c 0
 214 235 229 156 262 101 c 0
 297 43 340 14 417 14 c 0
 488 14 513 48 513 99 c 2
 513 188 l 2
 513 240 497 257 411 262 c 1
 411 287 l 1
 755 287 l 1
317 -378 m 1
 306 -356 l 1
 381 -304 415 -262 415 -223 c 0
 415 -211 407 -202 396 -202 c 0
 389 -202 382 -204 372 -204 c 0
 329 -204 299 -174 299 -128 c 0
 299 -76 333 -43 383 -43 c 0
 446 -43 483 -88 483 -159 c 0
 483 -245 433 -317 317 -378 c 1
EndSplineSet
EndChar

StartChar: uni0123
Encoding: 291 291 226
Width: 500
Flags: MW
HStem: -206 32<206 299.5 206 305.5> 398 53<401 481 401 401> 442 31<215.5 260 180.5 263> 667 20<227.5 236.5> 669 20<252 278.5>
VStem: 28 88<-129 -96.5 -129 -93.5> 146 68<608.5 727.5> 404 79<-99 -91>
LayerCount: 2
Fore
SplineSet
312 863 m 1x0f
 323 841 l 1
 248 789 214 747 214 708 c 0
 214 696 222 687 233 687 c 0x57
 240 687 247 689 257 689 c 0
 300 689 330 659 330 613 c 0
 330 561 296 528 246 528 c 0
 183 528 146 573 146 644 c 0
 146 730 196 802 312 863 c 1x0f
254 68 m 2
 306 68 l 2
 414 68 483 22 483 -52 c 0
 483 -146 389 -206 222 -206 c 0
 96 -206 28 -174 28 -114 c 0
 28 -73 61 -48 124 -39 c 1
 60 -16 42 6 42 43 c 0
 42 102 81 137 161 160 c 1
 90 180 37 236 37 312 c 0
 37 411 121 473 240 473 c 0xa7
 280 473 308 467 352 451 c 1
 481 451 l 1
 481 398 l 1
 401 398 l 1
 429 373 441 340 441 300 c 0
 441 237 410 193 349 168 c 0
 316 154 313 154 222 154 c 0
 183 154 153 135 153 105 c 0
 153 78 174 68 254 68 c 2
306 312 m 0
 306 405 287 442 239 442 c 0
 192 442 174 409 174 311 c 0
 174 218 192 182 240 182 c 0
 288 182 306 218 306 312 c 0
315 -52 m 2
 151 -52 l 1
 123 -75 116 -86 116 -107 c 0
 116 -151 162 -174 250 -174 c 0
 349 -174 404 -146 404 -108 c 0
 404 -74 380 -52 315 -52 c 2
EndSplineSet
EndChar

StartChar: uni0124
Encoding: 292 292 227
Width: 778
Flags: MW
HStem: 0 20 326 47<268 509 268 509> 656 20<21 357 357 357 420 759 759 759>
LayerCount: 2
Fore
SplineSet
557 738 m 1
 500 738 l 1
 388 836 l 1
 276 738 l 1
 220 738 l 1
 342 914 l 1
 434 914 l 1
 557 738 l 1
759 0 m 1
 420 0 l 1
 420 25 l 1
 493 33 509 47 509 98 c 2
 509 326 l 1
 268 326 l 1
 268 98 l 2
 268 45 284 33 357 25 c 1
 357 0 l 1
 21 0 l 1
 21 25 l 1
 91 34 106 45 106 98 c 2
 106 577 l 2
 106 632 88 645 21 651 c 1
 21 676 l 1
 357 676 l 1
 357 651 l 1
 287 646 268 633 268 577 c 2
 268 373 l 1
 509 373 l 1
 509 577 l 2
 509 633 490 646 420 651 c 1
 420 676 l 1
 759 676 l 1
 759 651 l 1
 691 646 671 631 671 577 c 2
 671 98 l 2
 671 45 687 34 759 25 c 1
 759 0 l 1
EndSplineSet
EndChar

StartChar: uni0125
Encoding: 293 293 228
Width: 556
Flags: MW
HStem: 0 20 406 67<283 396> 656 20<15 208 208 208>
LayerCount: 2
Fore
SplineSet
419 738 m 1
 362 738 l 1
 250 836 l 1
 138 738 l 1
 82 738 l 1
 204 914 l 1
 296 914 l 1
 419 738 l 1
534 0 m 1
 300 0 l 1
 300 24 l 1
 334 28 346 44 346 85 c 2
 346 309 l 2
 346 380 334 406 295 406 c 0
 271 406 247 394 225 372 c 0
 215 362 208 352 208 348 c 2
 208 85 l 2
 208 44 219 29 256 24 c 1
 256 0 l 1
 16 0 l 1
 16 24 l 1
 61 33 69 33 69 89 c 2
 69 591 l 2
 69 639 61 643 15 652 c 1
 15 676 l 1
 208 676 l 1
 208 396 l 1
 257 454 302 473 355 473 c 0
 437 473 485 416 485 337 c 2
 485 87 l 2
 485 41 499 24 534 24 c 1
 534 0 l 1
EndSplineSet
EndChar

StartChar: uni0126
Encoding: 294 294 229
Width: 778
Flags: MW
HStem: 0 20 326 47<268 509 268 509> 493 47<21 106 21 106 268 509 671 759> 656 20<21 357 357 357 420 759 759 759>
LayerCount: 2
Fore
SplineSet
759 0 m 1
 420 0 l 1
 420 25 l 1
 493 33 509 47 509 98 c 2
 509 326 l 1
 268 326 l 1
 268 98 l 2
 268 45 284 33 357 25 c 1
 357 0 l 1
 21 0 l 1
 21 25 l 1
 91 34 106 45 106 98 c 2
 106 493 l 1
 21 493 l 1
 21 540 l 1
 106 540 l 1
 106 577 l 2
 106 632 88 645 21 651 c 1
 21 676 l 1
 357 676 l 1
 357 651 l 1
 287 646 268 633 268 577 c 2
 268 540 l 1
 509 540 l 1
 509 577 l 2
 509 633 490 646 420 651 c 1
 420 676 l 1
 759 676 l 1
 759 651 l 1
 691 646 671 631 671 577 c 2
 671 540 l 1
 759 540 l 1
 759 493 l 1
 671 493 l 1
 671 98 l 2
 671 45 687 34 759 25 c 1
 759 0 l 1
509 373 m 1
 509 493 l 1
 268 493 l 1
 268 373 l 1
 509 373 l 1
EndSplineSet
EndChar

StartChar: uni0127
Encoding: 295 295 230
Width: 556
Flags: MW
HStem: 0 20 406 67<283 396> 514 44<15 69 15 69 208 366> 656 20<15 208 208 208>
LayerCount: 2
Fore
SplineSet
534 0 m 1
 300 0 l 1
 300 24 l 1
 334 28 346 44 346 85 c 2
 346 309 l 2
 346 380 334 406 295 406 c 0
 271 406 247 394 225 372 c 0
 215 362 208 352 208 348 c 2
 208 85 l 2
 208 44 219 29 256 24 c 1
 256 0 l 1
 16 0 l 1
 16 24 l 1
 61 33 69 33 69 89 c 2
 69 514 l 1
 15 514 l 1
 15 558 l 1
 69 558 l 1
 69 591 l 2
 69 639 61 643 15 652 c 1
 15 676 l 1
 208 676 l 1
 208 558 l 1
 366 558 l 1
 366 514 l 1
 208 514 l 1
 208 396 l 1
 257 454 302 473 355 473 c 0
 437 473 485 416 485 337 c 2
 485 87 l 2
 485 41 499 24 534 24 c 1
 534 0 l 1
EndSplineSet
EndChar

StartChar: uni0128
Encoding: 296 296 231
Width: 389
Flags: MW
HStem: 0 20 656 20<20 370 370 370> 757 78<276.5 291> 806 78<99 111.5>
LayerCount: 2
Fore
SplineSet
336 884 m 1x10
 379 884 l 1xd0
 356 797 319 757 263 757 c 0x20
 242 757 217 763 198 771 c 2
 169 784 l 2
 125 804 118 806 105 806 c 0
 79 806 60 787 56 759 c 1
 14 759 l 1
 32 845 68 884 130 884 c 0x10
 151 884 174 878 203 865 c 2
 243 847 l 2
 268 836 271 835 282 835 c 0x20
 309 835 323 848 336 884 c 1x10
370 0 m 1
 20 0 l 1
 20 25 l 1
 95 32 113 44 113 106 c 2
 113 576 l 2
 113 632 92 646 20 651 c 1
 20 676 l 1
 370 676 l 1
 370 651 l 1
 296 648 275 632 275 576 c 2
 275 106 l 2
 275 41 294 30 370 25 c 1
 370 0 l 1
EndSplineSet
EndChar

StartChar: uni0129
Encoding: 297 297 232
Width: 278
Flags: MW
HStem: 0 20 441 20<15 208 208 208> 547 78<215.5 230> 596 78<38 50.5>
LayerCount: 2
Fore
SplineSet
275 674 m 1x10
 318 674 l 1xd0
 295 587 258 547 202 547 c 0x20
 181 547 156 553 137 561 c 2
 108 574 l 2
 64 594 57 596 44 596 c 0
 18 596 -1 577 -5 549 c 1
 -47 549 l 1
 -29 635 7 674 69 674 c 0x10
 90 674 113 668 142 655 c 2
 182 637 l 2
 207 626 210 625 221 625 c 0x20
 248 625 262 638 275 674 c 1x10
256 0 m 1
 16 0 l 1
 16 24 l 1
 62 35 69 42 69 88 c 2
 69 373 l 2
 69 418 59 428 15 437 c 1
 15 461 l 1
 208 461 l 1
 208 85 l 2
 208 42 221 29 256 24 c 1
 256 0 l 1
EndSplineSet
EndChar

StartChar: uni012A
Encoding: 298 298 233
Width: 389
Flags: MW
HStem: 0 20 656 20<20 370 370 370> 738 72<29 359 29 359>
LayerCount: 2
Fore
SplineSet
359 738 m 1
 29 738 l 1
 29 810 l 1
 359 810 l 1
 359 738 l 1
370 0 m 1
 20 0 l 1
 20 25 l 1
 95 32 113 44 113 106 c 2
 113 576 l 2
 113 632 92 646 20 651 c 1
 20 676 l 1
 370 676 l 1
 370 651 l 1
 296 648 275 632 275 576 c 2
 275 106 l 2
 275 41 294 30 370 25 c 1
 370 0 l 1
EndSplineSet
EndChar

StartChar: uni012B
Encoding: 299 299 234
Width: 278
Flags: MW
HStem: 0 20 441 20<15 208 208 208> 528 72<-25 305 -25 305>
LayerCount: 2
Fore
SplineSet
305 528 m 1
 -25 528 l 1
 -25 600 l 1
 305 600 l 1
 305 528 l 1
256 0 m 1
 16 0 l 1
 16 24 l 1
 62 35 69 42 69 88 c 2
 69 373 l 2
 69 418 59 428 15 437 c 1
 15 461 l 1
 208 461 l 1
 208 85 l 2
 208 42 221 29 256 24 c 1
 256 0 l 1
EndSplineSet
EndChar

StartChar: uni012C
Encoding: 300 300 235
Width: 389
Flags: MW
HStem: 0 20 656 20<20 370 370 370> 737 76<158 216 158 239.5>
LayerCount: 2
Fore
SplineSet
298 900 m 1
 342 900 l 1
 335 806 289 737 190 737 c 0
 90 737 40 804 39 900 c 1
 83 900 l 1
 95 839 131 813 185 813 c 0
 247 813 281 836 298 900 c 1
370 0 m 1
 20 0 l 1
 20 25 l 1
 95 32 113 44 113 106 c 2
 113 576 l 2
 113 632 92 646 20 651 c 1
 20 676 l 1
 370 676 l 1
 370 651 l 1
 296 648 275 632 275 576 c 2
 275 106 l 2
 275 41 294 30 370 25 c 1
 370 0 l 1
EndSplineSet
EndChar

StartChar: uni012D
Encoding: 301 301 236
Width: 278
Flags: MW
HStem: 0 20 441 20<15 208 208 208> 528 76<108 166 108 189.5> 671 20<-11 33 33 33 248 292 292 292>
LayerCount: 2
Fore
SplineSet
248 691 m 1
 292 691 l 1
 285 597 239 528 140 528 c 0
 40 528 -10 595 -11 691 c 1
 33 691 l 1
 45 630 81 604 135 604 c 0
 197 604 231 627 248 691 c 1
256 0 m 1
 16 0 l 1
 16 24 l 1
 62 35 69 42 69 88 c 2
 69 373 l 2
 69 418 59 428 15 437 c 1
 15 461 l 1
 208 461 l 1
 208 85 l 2
 208 42 221 29 256 24 c 1
 256 0 l 1
EndSplineSet
EndChar

StartChar: uni012E
Encoding: 302 302 237
Width: 389
Flags: MW
HStem: -205 69<283.5 286.5> 0 20 656 20<20 370 370 370>
VStem: 160 84<-150.5 -64.5>
LayerCount: 2
Fore
SplineSet
228 0 m 1
 20 0 l 1
 20 25 l 1
 95 32 113 44 113 106 c 2
 113 576 l 2
 113 632 92 646 20 651 c 1
 20 676 l 1
 370 676 l 1
 370 651 l 1
 296 648 275 632 275 576 c 2
 275 106 l 2
 275 41 294 30 370 25 c 1
 370 0 l 1
 258 0 l 1
 257 -2 256 -5 255 -8 c 0
 246 -40 244 -57 244 -72 c 0
 244 -119 262 -136 305 -136 c 0
 321 -136 333 -133 353 -123 c 0
 361 -119 363 -117 366 -115 c 1
 389 -131 l 1
 364 -177 310 -205 263 -205 c 0
 201 -205 160 -174 160 -127 c 0
 160 -89 173 -64 214 -16 c 0
 222 -6 224 -5 228 0 c 1
EndSplineSet
EndChar

StartChar: uni012F
Encoding: 303 303 238
Width: 278
Flags: MW
HStem: -205 69<215.5 218.5> 0 20 441 20<15 208 208 208> 536 155<116.5 159>
VStem: 60 155<591 634.5 591 635> 92 84<-150.5 -64.5>
LayerCount: 2
Fore
SplineSet
160 0 m 1xf4
 16 0 l 1
 16 24 l 1
 62 35 69 42 69 88 c 2
 69 373 l 2
 69 418 59 428 15 437 c 1
 15 461 l 1
 208 461 l 1
 208 85 l 2
 208 42 221 29 256 24 c 1
 256 0 l 1
 190 0 l 1
 189 -2 188 -5 187 -8 c 0
 178 -40 176 -57 176 -72 c 0
 176 -119 194 -136 237 -136 c 0
 253 -136 265 -133 285 -123 c 0
 293 -119 295 -117 298 -115 c 1
 321 -131 l 1
 296 -177 242 -205 195 -205 c 0
 133 -205 92 -174 92 -127 c 0
 92 -89 105 -64 146 -16 c 0
 154 -6 156 -5 160 0 c 1xf4
215 613 m 0xf8
 215 569 181 536 137 536 c 0
 93 536 60 569 60 613 c 0
 60 657 94 691 139 691 c 0
 181 691 215 656 215 613 c 0xf8
EndSplineSet
EndChar

StartChar: uni0130
Encoding: 304 304 239
Width: 389
Flags: MW
HStem: 0 20 656 20<20 370 370 370> 747 129<176.5 211.5 176.5 211.5>
VStem: 130 129<794 828 792.5 829.5>
LayerCount: 2
Fore
SplineSet
259 810 m 0
 259 775 230 747 193 747 c 0
 158 747 130 776 130 812 c 0
 130 847 159 876 194 876 c 0
 229 876 259 846 259 810 c 0
370 0 m 1
 20 0 l 1
 20 25 l 1
 95 32 113 44 113 106 c 2
 113 576 l 2
 113 632 92 646 20 651 c 1
 20 676 l 1
 370 676 l 1
 370 651 l 1
 296 648 275 632 275 576 c 2
 275 106 l 2
 275 41 294 30 370 25 c 1
 370 0 l 1
EndSplineSet
EndChar

StartChar: dotlessi
Encoding: 305 305 240
Width: 278
Flags: MW
HStem: 0 20 441 20<15 208 208 208>
LayerCount: 2
Fore
SplineSet
256 0 m 1
 16 0 l 1
 16 24 l 1
 62 35 69 42 69 88 c 2
 69 373 l 2
 69 418 59 428 15 437 c 1
 15 461 l 1
 208 461 l 1
 208 85 l 2
 208 42 221 29 256 24 c 1
 256 0 l 1
EndSplineSet
EndChar

StartChar: uni0132
Encoding: 306 306 241
Width: 838
Flags: MW
HStem: -96 33<597 626 589 686.5> 0 20 656 20<20 370 370 370 566 917 917 917>
LayerCount: 2
Fore
SplineSet
917 676 m 1
 917 651 l 1
 842 646 829 628 829 556 c 2
 829 126 l 2
 829 -25 756 -96 617 -96 c 0
 577 -96 534 -90 509 -73 c 0
 472 -48 442 -5 442 37 c 0
 442 74 476 111 513 111 c 0
 551 111 585 75 585 35 c 0
 585 5 558 -5 558 -31 c 0
 558 -51 575 -63 603 -63 c 0
 649 -63 667 -35 667 27 c 2
 667 577 l 2
 667 635 647 648 566 651 c 1
 566 676 l 1
 917 676 l 1
370 0 m 1
 20 0 l 1
 20 25 l 1
 95 32 113 44 113 106 c 2
 113 576 l 2
 113 632 92 646 20 651 c 1
 20 676 l 1
 370 676 l 1
 370 651 l 1
 296 648 275 632 275 576 c 2
 275 106 l 2
 275 41 294 30 370 25 c 1
 370 0 l 1
EndSplineSet
EndChar

StartChar: uni0133
Encoding: 307 307 242
Width: 552
Flags: MW
HStem: -203 31<331.5 358 331.5 385.5> 0 20 441 20<15 208 208 208 326 528 528 528> 536 155<116.5 159 432 474.5>
VStem: 60 155<591 634.5 591 635> 376 155<591 634 591 635>
LayerCount: 2
Fore
SplineSet
531 613 m 0
 531 569 497 536 452 536 c 0
 408 536 376 569 376 613 c 0
 376 657 410 691 454 691 c 0
 496 691 531 655 531 613 c 0
215 613 m 0
 215 569 181 536 137 536 c 0
 93 536 60 569 60 613 c 0
 60 657 94 691 139 691 c 0
 181 691 215 656 215 613 c 0
528 461 m 1
 528 2 l 2
 528 -57 520 -95 501 -127 c 0
 473 -176 420 -203 351 -203 c 0
 269 -203 211 -162 211 -103 c 0
 211 -67 236 -42 273 -42 c 0
 306 -42 332 -66 332 -96 c 0
 332 -106 328 -118 318 -133 c 0
 312 -143 309 -150 309 -155 c 0
 309 -165 322 -172 341 -172 c 0
 375 -172 389 -149 389 -96 c 2
 389 378 l 2
 389 421 377 433 326 437 c 1
 326 461 l 1
 528 461 l 1
256 0 m 1
 16 0 l 1
 16 24 l 1
 62 35 69 42 69 88 c 2
 69 373 l 2
 69 418 59 428 15 437 c 1
 15 461 l 1
 208 461 l 1
 208 85 l 2
 208 42 221 29 256 24 c 1
 256 0 l 1
EndSplineSet
EndChar

StartChar: uni0134
Encoding: 308 308 243
Width: 500
Flags: MW
HStem: -96 33<158 187 150 247.5> 656 20<127 478 478 478>
LayerCount: 2
Fore
SplineSet
479 738 m 1
 422 738 l 1
 310 836 l 1
 198 738 l 1
 142 738 l 1
 264 914 l 1
 356 914 l 1
 479 738 l 1
478 676 m 1
 478 651 l 1
 403 646 390 628 390 556 c 2
 390 126 l 2
 390 -25 317 -96 178 -96 c 0
 138 -96 95 -90 70 -73 c 0
 33 -48 3 -5 3 37 c 0
 3 74 37 111 74 111 c 0
 112 111 146 75 146 35 c 0
 146 5 119 -5 119 -31 c 0
 119 -51 136 -63 164 -63 c 0
 210 -63 228 -35 228 27 c 2
 228 577 l 2
 228 635 208 648 127 651 c 1
 127 676 l 1
 478 676 l 1
EndSplineSet
EndChar

StartChar: uni0135
Encoding: 309 309 244
Width: 333
Flags: MW
HStem: -203 31<63.5 90 63.5 117.5> 441 20<58 260 260 260>
LayerCount: 2
Fore
SplineSet
335 528 m 1
 278 528 l 1
 166 626 l 1
 54 528 l 1
 -2 528 l 1
 120 704 l 1
 212 704 l 1
 335 528 l 1
260 461 m 1
 260 2 l 2
 260 -57 252 -95 233 -127 c 0
 205 -176 152 -203 83 -203 c 0
 1 -203 -57 -162 -57 -103 c 0
 -57 -67 -32 -42 5 -42 c 0
 38 -42 64 -66 64 -96 c 0
 64 -106 60 -118 50 -133 c 0
 44 -143 41 -150 41 -155 c 0
 41 -165 54 -172 73 -172 c 0
 107 -172 121 -149 121 -96 c 2
 121 378 l 2
 121 421 109 433 58 437 c 1
 58 461 l 1
 260 461 l 1
EndSplineSet
EndChar

StartChar: uni0136
Encoding: 310 310 245
Width: 778
Flags: MW
HStem: 0 20 656 20<30 367 367 367 448 737 737 737>
VStem: 389 68<-242.5 -123.5>
LayerCount: 2
Fore
SplineSet
769 0 m 1
 435 0 l 1
 435 25 l 1
 500 27 512 33 512 46 c 0
 512 57 506 67 487 91 c 2
 306 316 l 1
 279 291 l 1
 279 95 l 2
 279 46 294 34 366 25 c 1
 366 0 l 1
 30 0 l 1
 30 25 l 1
 104 32 117 44 117 101 c 2
 117 573 l 2
 117 635 99 647 30 651 c 1
 30 676 l 1
 367 676 l 1
 367 651 l 1
 293 646 279 628 279 567 c 2
 279 344 l 1
 491 559 l 2
 522 590 531 601 531 617 c 0
 531 637 519 645 483 648 c 2
 448 651 l 1
 448 676 l 1
 737 676 l 1
 737 651 l 1
 638 639 601 622 415 424 c 1
 720 46 l 2
 732 31 744 26 769 25 c 1
 769 0 l 1
291 -378 m 1
 280 -356 l 1
 355 -304 389 -262 389 -223 c 0
 389 -211 381 -202 370 -202 c 0
 363 -202 356 -204 346 -204 c 0
 303 -204 273 -174 273 -128 c 0
 273 -76 307 -43 357 -43 c 0
 420 -43 457 -88 457 -159 c 0
 457 -245 407 -317 291 -378 c 1
EndSplineSet
EndChar

StartChar: uni0137
Encoding: 311 311 246
Width: 556
Flags: MW
HStem: 0 20 441 20<299 513 513 513> 656 20<22 209 209 209>
VStem: 300 68<-242.5 -123.5>
LayerCount: 2
Fore
SplineSet
543 0 m 1
 309 0 l 1
 309 24 l 1
 337 25 351 31 351 43 c 0
 351 51 345 63 327 88 c 2
 232 222 l 1
 209 198 l 1
 209 84 l 2
 209 37 214 31 261 24 c 1
 261 0 l 1
 22 0 l 1
 22 24 l 1
 55 27 70 45 70 84 c 2
 70 594 l 2
 70 632 56 649 22 652 c 1
 22 676 l 1
 209 676 l 1
 209 245 l 1
 337 373 l 2
 348 384 358 402 358 411 c 0
 358 424 349 430 323 434 c 2
 299 438 l 1
 299 461 l 1
 513 461 l 1
 513 438 l 1
 450 430 424 412 324 307 c 1
 518 39 l 2
 527 27 532 24 543 24 c 1
 543 0 l 1
202 -378 m 1
 191 -356 l 1
 266 -304 300 -262 300 -223 c 0
 300 -211 292 -202 281 -202 c 0
 274 -202 267 -204 257 -204 c 0
 214 -204 184 -174 184 -128 c 0
 184 -76 218 -43 268 -43 c 0
 331 -43 368 -88 368 -159 c 0
 368 -245 318 -317 202 -378 c 1
EndSplineSet
EndChar

StartChar: uni0138
Encoding: 312 312 247
Width: 600
Flags: MW
HStem: 0 20 412 58<482 485>
LayerCount: 2
Fore
SplineSet
627 0 m 1
 459 0 l 1
 432 3 397 36 370 76 c 0
 346 112 344 129 311 179 c 0
 289 213 261 226 240 233 c 1
 235 232 230 232 213 232 c 1
 213 87 l 2
 213 45 213 26 264 24 c 1
 264 0 l 1
 19 0 l 1
 19 24 l 1
 52 32 70 42 70 86 c 2
 70 391 l 2
 70 434 52 444 19 446 c 1
 19 470 l 1
 264 470 l 1
 264 446 l 1
 224 440 213 434 213 390 c 2
 213 282 l 1
 230 282 243 284 254 286 c 1
 304 300 328 305 346 317 c 0
 374 337 393 363 410 405 c 0
 430 455 455 470 509 470 c 0
 551 470 589 447 589 414 c 0
 589 388 568 372 540 372 c 0
 495 372 496 412 474 412 c 0
 457 412 451 404 444 384 c 0
 427 335 399 296 367 272 c 1
 378 268 393 259 409 238 c 0
 430 210 476 129 496 100 c 0
 528 53 556 31 627 24 c 1
 627 0 l 1
EndSplineSet
EndChar

StartChar: uni0139
Encoding: 313 313 248
Width: 667
Flags: MW
HStem: 0 31<319.5 393.5 319.5 596> 656 20<19 367 367 367>
LayerCount: 2
Fore
SplineSet
158 738 m 1
 295 895 l 2
 312 914 328 923 348 923 c 0
 377 923 396 905 396 879 c 0
 396 856 388 846 356 826 c 2
 214 738 l 1
 158 738 l 1
638 227 m 1
 596 0 l 1
 19 0 l 1
 19 25 l 1
 92 34 105 45 105 98 c 2
 105 576 l 2
 105 633 87 647 19 651 c 1
 19 676 l 1
 367 676 l 1
 367 652 l 1
 280 648 267 635 267 553 c 2
 267 89 l 2
 267 46 287 31 352 31 c 0
 435 31 481 49 522 86 c 0
 556 117 582 165 609 227 c 1
 638 227 l 1
EndSplineSet
EndChar

StartChar: uni013A
Encoding: 314 314 249
Width: 278
Flags: MW
HStem: 0 20 656 20<15 206 206 206>
LayerCount: 2
Fore
SplineSet
22 738 m 1
 159 895 l 2
 176 914 192 923 212 923 c 0
 241 923 260 905 260 879 c 0
 260 856 252 846 220 826 c 2
 78 738 l 1
 22 738 l 1
256 0 m 1
 16 0 l 1
 16 24 l 1
 50 27 67 43 67 87 c 2
 67 587 l 2
 67 624 50 649 15 652 c 1
 15 676 l 1
 206 676 l 1
 206 87 l 2
 206 41 223 25 256 24 c 1
 256 0 l 1
EndSplineSet
EndChar

StartChar: uni013B
Encoding: 315 315 250
Width: 667
Flags: MW
HStem: 0 31<319.5 393.5 319.5 596> 656 20<19 367 367 367>
VStem: 354 68<-242.5 -123.5>
LayerCount: 2
Fore
SplineSet
638 227 m 1
 596 0 l 1
 19 0 l 1
 19 25 l 1
 92 34 105 45 105 98 c 2
 105 576 l 2
 105 633 87 647 19 651 c 1
 19 676 l 1
 367 676 l 1
 367 652 l 1
 280 648 267 635 267 553 c 2
 267 89 l 2
 267 46 287 31 352 31 c 0
 435 31 481 49 522 86 c 0
 556 117 582 165 609 227 c 1
 638 227 l 1
256 -378 m 1
 245 -356 l 1
 320 -304 354 -262 354 -223 c 0
 354 -211 346 -202 335 -202 c 0
 328 -202 321 -204 311 -204 c 0
 268 -204 238 -174 238 -128 c 0
 238 -76 272 -43 322 -43 c 0
 385 -43 422 -88 422 -159 c 0
 422 -245 372 -317 256 -378 c 1
EndSplineSet
EndChar

StartChar: uni013C
Encoding: 316 316 251
Width: 278
Flags: MW
HStem: 0 20 656 20<15 206 206 206>
VStem: 164 68<-242.5 -123.5>
LayerCount: 2
Fore
SplineSet
256 0 m 1
 16 0 l 1
 16 24 l 1
 50 27 67 43 67 87 c 2
 67 587 l 2
 67 624 50 649 15 652 c 1
 15 676 l 1
 206 676 l 1
 206 87 l 2
 206 41 223 25 256 24 c 1
 256 0 l 1
66 -378 m 1
 55 -356 l 1
 130 -304 164 -262 164 -223 c 0
 164 -211 156 -202 145 -202 c 0
 138 -202 131 -204 121 -204 c 0
 78 -204 48 -174 48 -128 c 0
 48 -76 82 -43 132 -43 c 0
 195 -43 232 -88 232 -159 c 0
 232 -245 182 -317 66 -378 c 1
EndSplineSet
EndChar

StartChar: uni013D
Encoding: 317 317 252
Width: 667
Flags: MW
HStem: 0 31<319.5 393.5 319.5 596> 656 20<19 367 367 367> 671 20<488 544.5>
VStem: 545 68<491.5 610.5>
LayerCount: 2
Fore
SplineSet
447 356 m 1xb0
 436 378 l 1
 511 430 545 472 545 511 c 0
 545 523 537 532 526 532 c 0
 519 532 512 530 502 530 c 0
 459 530 429 560 429 606 c 0
 429 658 463 691 513 691 c 0
 576 691 613 646 613 575 c 0
 613 489 563 417 447 356 c 1xb0
638 227 m 1
 596 0 l 1
 19 0 l 1
 19 25 l 1
 92 34 105 45 105 98 c 2
 105 576 l 2
 105 633 87 647 19 651 c 1
 19 676 l 1
 367 676 l 1xd0
 367 652 l 1
 280 648 267 635 267 553 c 2
 267 89 l 2
 267 46 287 31 352 31 c 0
 435 31 481 49 522 86 c 0
 556 117 582 165 609 227 c 1
 638 227 l 1
EndSplineSet
EndChar

StartChar: uni013E
Encoding: 318 318 253
Width: 457
Flags: MW
HStem: 0 20 656 20<15 206 206 206>
VStem: 374 68<509.5 628.5>
LayerCount: 2
Fore
SplineSet
276 374 m 1
 265 396 l 1
 340 448 374 490 374 529 c 0
 374 541 366 550 355 550 c 0
 348 550 341 548 331 548 c 0
 288 548 258 578 258 624 c 0
 258 676 292 709 342 709 c 0
 405 709 442 664 442 593 c 0
 442 507 392 435 276 374 c 1
256 0 m 1
 16 0 l 1
 16 24 l 1
 50 27 67 43 67 87 c 2
 67 587 l 2
 67 624 50 649 15 652 c 1
 15 676 l 1
 206 676 l 1
 206 87 l 2
 206 41 223 25 256 24 c 1
 256 0 l 1
EndSplineSet
EndChar

StartChar: uni013F
Encoding: 319 319 254
Width: 667
Flags: MW
HStem: 0 31<319.5 393.5 319.5 596> 239 169<427.5 474 427.5 474> 656 20<19 367 367 367>
VStem: 366 169<299.5 346 299.5 346.5>
LayerCount: 2
Fore
SplineSet
535 323 m 0
 535 276 498 239 450 239 c 0
 402 239 366 275 366 323 c 0
 366 370 404 408 451 408 c 0
 497 408 535 369 535 323 c 0
638 227 m 1
 596 0 l 1
 19 0 l 1
 19 25 l 1
 92 34 105 45 105 98 c 2
 105 576 l 2
 105 633 87 647 19 651 c 1
 19 676 l 1
 367 676 l 1
 367 652 l 1
 280 648 267 635 267 553 c 2
 267 89 l 2
 267 46 287 31 352 31 c 0
 435 31 481 49 522 86 c 0
 556 117 582 165 609 227 c 1
 638 227 l 1
EndSplineSet
EndChar

StartChar: uni0140
Encoding: 320 320 255
Width: 414
Flags: MW
HStem: 0 20 256 169<333.5 380 333.5 380> 656 20<15 206 206 206>
VStem: 272 169<316.5 363 316.5 363.5>
LayerCount: 2
Fore
SplineSet
441 340 m 0
 441 293 404 256 356 256 c 0
 308 256 272 292 272 340 c 0
 272 387 310 425 357 425 c 0
 403 425 441 386 441 340 c 0
256 0 m 1
 16 0 l 1
 16 24 l 1
 50 27 67 43 67 87 c 2
 67 587 l 2
 67 624 50 649 15 652 c 1
 15 676 l 1
 206 676 l 1
 206 87 l 2
 206 41 223 25 256 24 c 1
 256 0 l 1
EndSplineSet
EndChar

StartChar: Lslash
Encoding: 321 321 256
Width: 667
Flags: MW
HStem: 0 31<313.5 388.5 313.5 596> 656 20<18 367 367 367>
LayerCount: 2
Fore
SplineSet
638 228 m 1
 596 0 l 1
 19 0 l 1
 19 25 l 1
 93 31 105 45 105 100 c 2
 105 287 l 1
 24 238 l 1
 24 299 l 1
 105 348 l 1
 105 573 l 2
 105 634 86 647 18 651 c 1
 18 676 l 1
 367 676 l 1
 367 651 l 1
 287 647 267 630 267 552 c 2
 267 443 l 1
 390 519 l 1
 390 458 l 1
 267 382 l 1
 267 90 l 2
 267 47 281 31 346 31 c 0
 431 31 484 46 523 83 c 0
 557 115 580 165 609 228 c 1
 638 228 l 1
EndSplineSet
EndChar

StartChar: lslash
Encoding: 322 322 257
Width: 278
Flags: MW
HStem: 0 20 656 20<15 206 206 206>
LayerCount: 2
Fore
SplineSet
303 481 m 1
 206 401 l 1
 206 89 l 2
 206 44 223 25 256 24 c 1
 256 0 l 1
 16 0 l 1
 16 24 l 1
 50 27 67 47 67 89 c 2
 67 312 l 1
 -22 240 l 1
 -22 290 l 1
 67 362 l 1
 67 591 l 2
 67 631 50 649 15 652 c 1
 15 676 l 1
 206 676 l 1
 206 451 l 1
 303 531 l 1
 303 481 l 1
EndSplineSet
EndChar

StartChar: uni0143
Encoding: 323 323 258
Width: 722
Flags: MW
HStem: -18 20 0 20 656 20<19 230 230 230 487 701 701 701>
VStem: 104 44<109 131 131 527> 579 44<246 545 545 568 -18 585>
LayerCount: 2
Fore
SplineSet
294 738 m 1x78
 431 895 l 2
 448 914 464 923 484 923 c 0
 513 923 532 905 532 879 c 0
 532 856 524 846 492 826 c 2
 350 738 l 1
 294 738 l 1x78
701 676 m 1
 701 651 l 1
 636 641 623 631 623 568 c 2
 623 -18 l 1
 595 -18 l 1xb8
 148 527 l 1
 148 131 l 2
 148 54 165 34 242 25 c 1
 242 0 l 1
 16 0 l 1
 16 25 l 1
 89 34 104 48 104 109 c 2
 104 579 l 1
 62 637 39 651 19 651 c 1
 19 676 l 1
 230 676 l 1
 579 246 l 1
 579 545 l 2
 579 625 561 644 487 651 c 1
 487 676 l 1
 701 676 l 1
EndSplineSet
EndChar

StartChar: uni0144
Encoding: 324 324 259
Width: 556
Flags: MW
HStem: 0 20 406 67<288 396> 441 20<21 212 212 212>
LayerCount: 2
Fore
SplineSet
212 528 m 1xc0
 349 685 l 2
 366 704 382 713 402 713 c 0
 431 713 450 695 450 669 c 0
 450 646 442 636 410 616 c 2
 268 528 l 1
 212 528 l 1xc0
539 0 m 1
 305 0 l 1
 305 24 l 1
 339 28 351 44 351 84 c 2
 351 321 l 2
 351 377 334 406 300 406 c 0xc0
 276 406 252 394 230 372 c 0
 220 362 213 352 213 348 c 2
 213 84 l 2
 213 47 224 29 261 24 c 1
 261 0 l 1
 21 0 l 1
 21 24 l 1
 66 33 74 45 74 87 c 2
 74 376 l 2
 74 419 65 430 21 437 c 1
 21 461 l 1
 212 461 l 1xa0
 212 386 l 1
 213 386 l 1
 247 446 295 473 355 473 c 0
 437 473 490 418 490 331 c 2
 490 84 l 2
 490 39 500 27 539 24 c 1
 539 0 l 1
EndSplineSet
EndChar

StartChar: uni0145
Encoding: 325 325 260
Width: 722
Flags: MW
HStem: 0 20 656 20<19 230 230 230 487 701 701 701>
VStem: 104 44<109 131 131 527> 384 68<-242.5 -123.5> 579 44<246 545 545 568 -18 585>
LayerCount: 2
Fore
SplineSet
701 676 m 1
 701 651 l 1
 636 641 623 631 623 568 c 2
 623 -18 l 1
 595 -18 l 1
 148 527 l 1
 148 131 l 2
 148 54 165 34 242 25 c 1
 242 0 l 1
 16 0 l 1
 16 25 l 1
 89 34 104 48 104 109 c 2
 104 579 l 1
 62 637 39 651 19 651 c 1
 19 676 l 1
 230 676 l 1
 579 246 l 1
 579 545 l 2
 579 625 561 644 487 651 c 1
 487 676 l 1
 701 676 l 1
286 -378 m 1
 275 -356 l 1
 350 -304 384 -262 384 -223 c 0
 384 -211 376 -202 365 -202 c 0
 358 -202 351 -204 341 -204 c 0
 298 -204 268 -174 268 -128 c 0
 268 -76 302 -43 352 -43 c 0
 415 -43 452 -88 452 -159 c 0
 452 -245 402 -317 286 -378 c 1
EndSplineSet
EndChar

StartChar: uni0146
Encoding: 326 326 261
Width: 556
Flags: MW
HStem: 0 20 406 67<288 396> 441 20<21 212 212 212>
VStem: 304 68<-242.5 -123.5>
LayerCount: 2
Fore
SplineSet
539 0 m 1xd0
 305 0 l 1
 305 24 l 1
 339 28 351 44 351 84 c 2
 351 321 l 2
 351 377 334 406 300 406 c 0xd0
 276 406 252 394 230 372 c 0
 220 362 213 352 213 348 c 2
 213 84 l 2
 213 47 224 29 261 24 c 1
 261 0 l 1
 21 0 l 1
 21 24 l 1
 66 33 74 45 74 87 c 2
 74 376 l 2
 74 419 65 430 21 437 c 1
 21 461 l 1
 212 461 l 1xb0
 212 386 l 1
 213 386 l 1
 247 446 295 473 355 473 c 0
 437 473 490 418 490 331 c 2
 490 84 l 2
 490 39 500 27 539 24 c 1
 539 0 l 1xd0
206 -378 m 1
 195 -356 l 1
 270 -304 304 -262 304 -223 c 0
 304 -211 296 -202 285 -202 c 0
 278 -202 271 -204 261 -204 c 0
 218 -204 188 -174 188 -128 c 0
 188 -76 222 -43 272 -43 c 0
 335 -43 372 -88 372 -159 c 0
 372 -245 322 -317 206 -378 c 1
EndSplineSet
EndChar

StartChar: uni0147
Encoding: 327 327 262
Width: 722
Flags: MW
HStem: -18 20 0 20 656 20<19 230 230 230 487 701 701 701>
VStem: 104 44<109 131 131 527> 579 44<246 545 545 568 -18 585>
LayerCount: 2
Fore
SplineSet
535 914 m 1x78
 412 738 l 1
 320 738 l 1
 198 914 l 1
 255 914 l 1
 366 815 l 1
 477 914 l 1
 535 914 l 1x78
701 676 m 1
 701 651 l 1
 636 641 623 631 623 568 c 2
 623 -18 l 1
 595 -18 l 1xb8
 148 527 l 1
 148 131 l 2
 148 54 165 34 242 25 c 1
 242 0 l 1
 16 0 l 1
 16 25 l 1
 89 34 104 48 104 109 c 2
 104 579 l 1
 62 637 39 651 19 651 c 1
 19 676 l 1
 230 676 l 1
 579 246 l 1
 579 545 l 2
 579 625 561 644 487 651 c 1
 487 676 l 1
 701 676 l 1
EndSplineSet
EndChar

StartChar: uni0148
Encoding: 328 328 263
Width: 556
Flags: MW
HStem: 0 20 406 67<288 396> 441 20<21 212 212 212>
LayerCount: 2
Fore
SplineSet
450 704 m 1xc0
 327 528 l 1
 235 528 l 1
 113 704 l 1
 170 704 l 1
 281 605 l 1
 392 704 l 1
 450 704 l 1xc0
539 0 m 1
 305 0 l 1
 305 24 l 1
 339 28 351 44 351 84 c 2
 351 321 l 2
 351 377 334 406 300 406 c 0xc0
 276 406 252 394 230 372 c 0
 220 362 213 352 213 348 c 2
 213 84 l 2
 213 47 224 29 261 24 c 1
 261 0 l 1
 21 0 l 1
 21 24 l 1
 66 33 74 45 74 87 c 2
 74 376 l 2
 74 419 65 430 21 437 c 1
 21 461 l 1
 212 461 l 1xa0
 212 386 l 1
 213 386 l 1
 247 446 295 473 355 473 c 0
 437 473 490 418 490 331 c 2
 490 84 l 2
 490 39 500 27 539 24 c 1
 539 0 l 1
EndSplineSet
EndChar

StartChar: uni0149
Encoding: 329 329 264
Width: 705
Flags: MW
HStem: 0 20 406 67<442 550> 441 20<175 366 366 366>
VStem: 129 68<509.5 628.5>
LayerCount: 2
Fore
SplineSet
693 0 m 1xd0
 459 0 l 1
 459 24 l 1
 493 28 505 44 505 84 c 2
 505 321 l 2
 505 377 488 406 454 406 c 0xd0
 430 406 406 394 384 372 c 0
 374 362 367 352 367 348 c 2
 367 84 l 2
 367 47 378 29 415 24 c 1
 415 0 l 1
 175 0 l 1
 175 24 l 1
 220 33 228 45 228 87 c 2
 228 376 l 2
 228 419 219 430 175 437 c 1
 175 461 l 1
 366 461 l 1xb0
 366 386 l 1
 367 386 l 1
 401 446 449 473 509 473 c 0
 591 473 644 418 644 331 c 2
 644 84 l 2
 644 39 654 27 693 24 c 1
 693 0 l 1xd0
31 374 m 1
 20 396 l 1
 95 448 129 490 129 529 c 0
 129 541 121 550 110 550 c 0
 103 550 96 548 86 548 c 0
 43 548 13 578 13 624 c 0
 13 676 47 709 97 709 c 0
 160 709 197 664 197 593 c 0
 197 507 147 435 31 374 c 1
EndSplineSet
EndChar

StartChar: uni014A
Encoding: 330 330 265
Width: 732
Flags: MW
HStem: -96 33<445 489 445 519> 0 20 642 34<302.5 336 336 359.5>
LayerCount: 2
Fore
SplineSet
14 676 m 1
 336 676 l 2
 578 676 712 534 712 319 c 0
 712 108 603 -96 435 -96 c 0
 366 -96 301 -38 301 25 c 0
 301 62 330 117 376 117 c 0
 414 117 444 82 444 42 c 0
 444 0 417 2 417 -24 c 0
 417 -44 431 -63 459 -63 c 0
 519 -63 541 107 541 255 c 0
 541 372 515 489 485 541 c 0
 447 607 397 642 322 642 c 0
 283 642 259 626 259 598 c 2
 259 0 l 1
 14 0 l 1
 14 25 l 1
 72 27 97 50 97 98 c 2
 97 584 l 2
 97 630 78 645 14 651 c 1
 14 676 l 1
EndSplineSet
EndChar

StartChar: uni014B
Encoding: 331 331 266
Width: 556
Flags: MW
HStem: -205 31<293.5 320 293.5 347.5> 0 20 406 67<288 396> 441 20<21 212 212 212>
LayerCount: 2
Fore
SplineSet
490 331 m 2x20
 490 0 l 2
 490 -59 482 -97 463 -129 c 0
 435 -178 382 -205 313 -205 c 0
 231 -205 173 -164 173 -105 c 0
 173 -69 198 -44 235 -44 c 0
 268 -44 294 -68 294 -98 c 0
 294 -108 290 -120 280 -135 c 0
 274 -145 271 -147 271 -157 c 0
 271 -167 284 -174 303 -174 c 0
 337 -174 351 -151 351 -98 c 2
 351 321 l 2
 351 377 334 406 300 406 c 0xe0
 276 406 252 394 230 372 c 0
 220 362 213 352 213 348 c 2
 213 84 l 2
 213 47 224 29 261 24 c 1
 261 0 l 1
 21 0 l 1
 21 24 l 1
 66 33 74 45 74 87 c 2
 74 376 l 2
 74 419 65 430 21 437 c 1
 21 461 l 1
 212 461 l 1x50
 212 386 l 1
 213 386 l 1
 247 446 295 473 355 473 c 0
 437 473 490 418 490 331 c 2x20
EndSplineSet
EndChar

StartChar: uni014C
Encoding: 332 332 267
Width: 778
Flags: MW
HStem: -19 33<333 447.5 333 491.5> 658 33<330 443.5> 738 72<220 550 220 550>
LayerCount: 2
Fore
SplineSet
550 738 m 1
 220 738 l 1
 220 810 l 1
 550 810 l 1
 550 738 l 1
743 335 m 0
 743 127 595 -19 388 -19 c 0
 181 -19 35 127 35 334 c 0
 35 547 186 691 394 691 c 0
 595 691 743 542 743 335 c 0
566 328 m 0
 566 541 502 658 385 658 c 0
 275 658 212 540 212 330 c 0
 212 119 276 14 390 14 c 0
 505 14 566 122 566 328 c 0
EndSplineSet
EndChar

StartChar: uni014D
Encoding: 333 333 268
Width: 500
Flags: MW
HStem: -14 31<222 280 222 314.5> 442 31<220.5 280.5> 528 72<85 415 85 415>
LayerCount: 2
Fore
SplineSet
415 528 m 1
 85 528 l 1
 85 600 l 1
 415 600 l 1
 415 528 l 1
476 229 m 0
 476 88 379 -14 250 -14 c 0
 125 -14 25 86 25 228 c 0
 25 374 122 473 254 473 c 0
 380 473 476 371 476 229 c 0
329 218 m 0
 329 389 310 442 251 442 c 0
 190 442 172 389 172 218 c 0
 172 73 193 17 251 17 c 0
 309 17 329 69 329 218 c 0
EndSplineSet
EndChar

StartChar: uni014E
Encoding: 334 334 269
Width: 778
Flags: MW
HStem: -19 33<333 447.5 333 491.5> 658 33<330 443.5> 738 76<358 416 358 439.5>
LayerCount: 2
Fore
SplineSet
498 901 m 1
 542 901 l 1
 535 807 489 738 390 738 c 0
 290 738 240 805 239 901 c 1
 283 901 l 1
 295 840 331 814 385 814 c 0
 447 814 481 837 498 901 c 1
743 335 m 0
 743 127 595 -19 388 -19 c 0
 181 -19 35 127 35 334 c 0
 35 547 186 691 394 691 c 0
 595 691 743 542 743 335 c 0
566 328 m 0
 566 541 502 658 385 658 c 0
 275 658 212 540 212 330 c 0
 212 119 276 14 390 14 c 0
 505 14 566 122 566 328 c 0
EndSplineSet
EndChar

StartChar: uni014F
Encoding: 335 335 270
Width: 500
Flags: MW
HStem: -14 31<222 280 222 314.5> 442 31<220.5 280.5> 528 76<218 276 218 299.5> 671 20<99 143 143 143 358 402 402 402>
LayerCount: 2
Fore
SplineSet
358 691 m 1
 402 691 l 1
 395 597 349 528 250 528 c 0
 150 528 100 595 99 691 c 1
 143 691 l 1
 155 630 191 604 245 604 c 0
 307 604 341 627 358 691 c 1
476 229 m 0
 476 88 379 -14 250 -14 c 0
 125 -14 25 86 25 228 c 0
 25 374 122 473 254 473 c 0
 380 473 476 371 476 229 c 0
329 218 m 0
 329 389 310 442 251 442 c 0
 190 442 172 389 172 218 c 0
 172 73 193 17 251 17 c 0
 309 17 329 69 329 218 c 0
EndSplineSet
EndChar

StartChar: uni0150
Encoding: 336 336 271
Width: 778
Flags: MW
HStem: -19 33<333 447.5 333 491.5> 658 33<330 443.5>
LayerCount: 2
Fore
SplineSet
370 738 m 1
 506 895 l 2
 523 914 540 923 560 923 c 0
 589 923 608 905 608 879 c 0
 608 856 600 844 568 824 c 2
 427 738 l 1
 370 738 l 1
170 738 m 1
 306 895 l 2
 323 914 340 923 360 923 c 0
 389 923 408 905 408 879 c 0
 408 856 400 844 368 824 c 2
 227 738 l 1
 170 738 l 1
743 335 m 0
 743 127 595 -19 388 -19 c 0
 181 -19 35 127 35 334 c 0
 35 547 186 691 394 691 c 0
 595 691 743 542 743 335 c 0
566 328 m 0
 566 541 502 658 385 658 c 0
 275 658 212 540 212 330 c 0
 212 119 276 14 390 14 c 0
 505 14 566 122 566 328 c 0
EndSplineSet
EndChar

StartChar: uni0151
Encoding: 337 337 272
Width: 500
Flags: MW
HStem: -14 31<222 280 222 314.5> 442 31<220.5 280.5>
LayerCount: 2
Fore
SplineSet
238 528 m 1
 374 685 l 2
 391 704 408 713 428 713 c 0
 457 713 476 695 476 669 c 0
 476 646 468 634 436 614 c 2
 295 528 l 1
 238 528 l 1
38 528 m 1
 174 685 l 2
 191 704 208 713 228 713 c 0
 257 713 276 695 276 669 c 0
 276 646 268 634 236 614 c 2
 95 528 l 1
 38 528 l 1
476 229 m 0
 476 88 379 -14 250 -14 c 0
 125 -14 25 86 25 228 c 0
 25 374 122 473 254 473 c 0
 380 473 476 371 476 229 c 0
329 218 m 0
 329 389 310 442 251 442 c 0
 190 442 172 389 172 218 c 0
 172 73 193 17 251 17 c 0
 309 17 329 69 329 218 c 0
EndSplineSet
EndChar

StartChar: OE
Encoding: 338 338 273
Width: 1000
Flags: MW
HStem: -5 32<332.5 366> 0 35<670 736.5 670 939> 641 35<660 716> 652 32<325 368.5 325 395>
LayerCount: 2
Fore
SplineSet
981 211 m 1x60
 939 0 l 1
 509 0 l 2x40
 461 0 426 -1 402 -3 c 0
 388 -4 373 -5 359 -5 c 0
 267 -5 189 20 133 67 c 0
 62 127 22 224 22 334 c 0
 22 457 72 562 159 623 c 0
 213 661 289 684 361 684 c 0x90
 376 684 430 676 523 676 c 2
 940 676 l 1
 940 475 l 1
 914 475 l 1
 900 555 883 588 841 613 c 0
 811 631 752 641 680 641 c 0
 640 641 627 635 627 615 c 2
 627 366 l 1
 734 369 752 387 778 514 c 1
 801 514 l 1
 801 176 l 1
 778 176 l 1
 763 295 733 327 627 333 c 1
 627 83 l 2
 627 45 641 35 699 35 c 0
 774 35 824 50 867 85 c 0
 902 114 922 143 954 211 c 1
 981 211 l 1x60
472 212 m 2x90
 472 503 l 2
 472 575 468 601 454 622 c 0
 440 642 413 652 377 652 c 0
 254 652 192 540 192 320 c 0
 192 229 208 138 232 96 c 0
 259 48 299 27 366 27 c 0
 410 27 436 37 452 59 c 0
 468 80 472 113 472 212 c 2x90
EndSplineSet
EndChar

StartChar: oe
Encoding: 339 339 274
Width: 722
Flags: MW
HStem: -14 30<213.5 265 213.5 274> -14 72<519 540> 245 37<444 571 444 693 444 571> 444 29<211.5 264 488 529>
LayerCount: 2
Fore
SplineSet
676 125 m 1x70
 696 109 l 1
 631 16 582 -14 498 -14 c 0x70
 446 -14 413 0 383 34 c 1
 343 0 303 -14 245 -14 c 0x80
 113 -14 22 85 22 229 c 0
 22 371 116 473 248 473 c 0
 302 473 338 459 373 424 c 1
 421 461 451 473 502 473 c 0
 577 473 633 441 664 381 c 0
 683 345 689 313 693 245 c 1
 444 245 l 1
 444 225 l 2
 444 119 481 58 557 58 c 0
 604 58 630 73 676 125 c 1x70
571 282 m 1
 569 338 l 2
 566 413 549 444 509 444 c 0
 467 444 444 407 444 336 c 2
 444 282 l 1
 571 282 l 1
308 149 m 2x90
 308 311 l 2
 308 407 289 444 239 444 c 0
 184 444 167 398 167 249 c 0
 167 73 185 16 242 16 c 0
 288 16 308 57 308 149 c 2x90
EndSplineSet
EndChar

StartChar: uni0154
Encoding: 340 340 275
Width: 722
Flags: MW
HStem: 0 20 642 34<309.5 334 334 375.5>
LayerCount: 2
Fore
SplineSet
251 738 m 1
 388 895 l 2
 405 914 421 923 441 923 c 0
 470 923 489 905 489 879 c 0
 489 856 481 846 449 826 c 2
 307 738 l 1
 251 738 l 1
716 0 m 1
 511 0 l 1
 304 313 l 1
 276 313 l 1
 276 117 l 2
 276 44 286 35 364 25 c 1
 364 0 l 1
 26 0 l 1
 26 25 l 1
 104 34 114 41 114 120 c 2
 114 551 l 2
 114 629 100 646 26 651 c 1
 26 676 l 1
 334 676 l 2
 529 676 630 619 630 504 c 0
 630 459 614 413 585 386 c 0
 557 361 531 345 473 329 c 1
 672 47 l 2
 681 34 698 25 716 25 c 1
 716 0 l 1
276 597 m 2
 276 345 l 1
 407 346 459 372 459 494 c 0
 459 600 422 642 329 642 c 0
 290 642 276 630 276 597 c 2
EndSplineSet
EndChar

StartChar: uni0155
Encoding: 341 341 276
Width: 444
Flags: MW
HStem: 0 20 441 20<28 218 218 218> 453 20<328 376.5>
LayerCount: 2
Fore
SplineSet
83 528 m 1xc0
 220 685 l 2
 237 704 253 713 273 713 c 0
 302 713 321 695 321 669 c 0
 321 646 313 636 281 616 c 2
 139 528 l 1
 83 528 l 1xc0
218 461 m 1
 218 379 l 1
 265 447 303 473 353 473 c 0x20
 400 473 434 440 434 394 c 0
 434 354 408 326 371 326 c 0
 345 326 328 336 311 364 c 0
 300 382 291 387 283 387 c 0
 248 387 222 342 222 283 c 2
 222 106 l 2
 222 42 233 28 294 24 c 1
 294 0 l 1
 29 0 l 1
 29 24 l 1
 73 32 83 43 83 84 c 2
 83 373 l 2
 83 420 71 431 28 437 c 1
 28 461 l 1
 218 461 l 1
EndSplineSet
EndChar

StartChar: uni0156
Encoding: 342 342 277
Width: 722
Flags: MW
HStem: 0 20 642 34<309.5 334 334 375.5>
VStem: 404 68<-242.5 -123.5>
LayerCount: 2
Fore
SplineSet
716 0 m 1
 511 0 l 1
 304 313 l 1
 276 313 l 1
 276 117 l 2
 276 44 286 35 364 25 c 1
 364 0 l 1
 26 0 l 1
 26 25 l 1
 104 34 114 41 114 120 c 2
 114 551 l 2
 114 629 100 646 26 651 c 1
 26 676 l 1
 334 676 l 2
 529 676 630 619 630 504 c 0
 630 459 614 413 585 386 c 0
 557 361 531 345 473 329 c 1
 672 47 l 2
 681 34 698 25 716 25 c 1
 716 0 l 1
276 597 m 2
 276 345 l 1
 407 346 459 372 459 494 c 0
 459 600 422 642 329 642 c 0
 290 642 276 630 276 597 c 2
306 -378 m 1
 295 -356 l 1
 370 -304 404 -262 404 -223 c 0
 404 -211 396 -202 385 -202 c 0
 378 -202 371 -204 361 -204 c 0
 318 -204 288 -174 288 -128 c 0
 288 -76 322 -43 372 -43 c 0
 435 -43 472 -88 472 -159 c 0
 472 -245 422 -317 306 -378 c 1
EndSplineSet
EndChar

StartChar: uni0157
Encoding: 343 343 278
Width: 444
Flags: MW
HStem: 0 20 441 20<28 218 218 218> 453 20<328 376.5>
VStem: 226 68<-242.5 -123.5>
LayerCount: 2
Fore
SplineSet
218 461 m 1xd0
 218 379 l 1
 265 447 303 473 353 473 c 0x30
 400 473 434 440 434 394 c 0
 434 354 408 326 371 326 c 0
 345 326 328 336 311 364 c 0
 300 382 291 387 283 387 c 0
 248 387 222 342 222 283 c 2
 222 106 l 2
 222 42 233 28 294 24 c 1
 294 0 l 1
 29 0 l 1
 29 24 l 1
 73 32 83 43 83 84 c 2
 83 373 l 2
 83 420 71 431 28 437 c 1
 28 461 l 1
 218 461 l 1xd0
128 -378 m 1
 117 -356 l 1
 192 -304 226 -262 226 -223 c 0
 226 -211 218 -202 207 -202 c 0
 200 -202 193 -204 183 -204 c 0
 140 -204 110 -174 110 -128 c 0
 110 -76 144 -43 194 -43 c 0
 257 -43 294 -88 294 -159 c 0
 294 -245 244 -317 128 -378 c 1
EndSplineSet
EndChar

StartChar: uni0158
Encoding: 344 344 279
Width: 722
Flags: MW
HStem: 0 20 642 34<309.5 334 334 375.5>
LayerCount: 2
Fore
SplineSet
493 914 m 1
 370 738 l 1
 278 738 l 1
 156 914 l 1
 213 914 l 1
 324 815 l 1
 435 914 l 1
 493 914 l 1
716 0 m 1
 511 0 l 1
 304 313 l 1
 276 313 l 1
 276 117 l 2
 276 44 286 35 364 25 c 1
 364 0 l 1
 26 0 l 1
 26 25 l 1
 104 34 114 41 114 120 c 2
 114 551 l 2
 114 629 100 646 26 651 c 1
 26 676 l 1
 334 676 l 2
 529 676 630 619 630 504 c 0
 630 459 614 413 585 386 c 0
 557 361 531 345 473 329 c 1
 672 47 l 2
 681 34 698 25 716 25 c 1
 716 0 l 1
276 597 m 2
 276 345 l 1
 407 346 459 372 459 494 c 0
 459 600 422 642 329 642 c 0
 290 642 276 630 276 597 c 2
EndSplineSet
EndChar

StartChar: uni0159
Encoding: 345 345 280
Width: 444
Flags: MW
HStem: 0 20 441 20<28 218 218 218> 453 20<328 376.5>
LayerCount: 2
Fore
SplineSet
388 704 m 1xc0
 265 528 l 1
 173 528 l 1
 51 704 l 1
 108 704 l 1
 219 605 l 1
 330 704 l 1
 388 704 l 1xc0
218 461 m 1
 218 379 l 1
 265 447 303 473 353 473 c 0x20
 400 473 434 440 434 394 c 0
 434 354 408 326 371 326 c 0
 345 326 328 336 311 364 c 0
 300 382 291 387 283 387 c 0
 248 387 222 342 222 283 c 2
 222 106 l 2
 222 42 233 28 294 24 c 1
 294 0 l 1
 29 0 l 1
 29 24 l 1
 73 32 83 43 83 84 c 2
 83 373 l 2
 83 420 71 431 28 437 c 1
 28 461 l 1
 218 461 l 1
EndSplineSet
EndChar

StartChar: uni015A
Encoding: 346 346 281
Width: 556
Flags: MW
HStem: -19 33<243 306.5 239 339> 660 31<228.5 282.5 195 285.5>
LayerCount: 2
Fore
SplineSet
191 738 m 1
 328 895 l 2
 345 914 361 923 381 923 c 0
 410 923 429 905 429 879 c 0
 429 856 421 846 389 826 c 2
 247 738 l 1
 191 738 l 1
484 474 m 1
 456 474 l 1
 436 539 420 569 386 604 c 0
 350 641 308 660 263 660 c 0
 194 660 153 618 153 561 c 0
 153 512 176 489 256 447 c 0
 305 421 353 398 404 370 c 0
 468 335 513 270 513 194 c 0
 513 68 413 -19 265 -19 c 0
 221 -19 184 -12 135 5 c 0
 113 12 102 15 94 15 c 0
 78 15 70 7 64 -19 c 1
 35 -19 l 1
 35 229 l 1
 64 229 l 1
 81 158 95 123 124 86 c 0
 162 38 210 14 268 14 c 0
 345 14 394 58 394 127 c 0
 394 163 371 191 337 215 c 0
 303 239 258 259 215 280 c 0
 102 334 44 389 44 490 c 0
 44 617 127 691 263 691 c 0
 302 691 334 685 380 668 c 0
 401 661 413 659 422 659 c 0
 440 659 447 665 454 692 c 1
 484 692 l 1
 484 474 l 1
EndSplineSet
EndChar

StartChar: uni015B
Encoding: 347 347 282
Width: 389
Flags: MW
HStem: -14 34<193 212.5 155 252.5> 440 33<174 195.5 138.5 206.5>
LayerCount: 2
Fore
SplineSet
126 528 m 1
 263 685 l 2
 280 704 296 713 316 713 c 0
 345 713 364 695 364 669 c 0
 364 646 356 636 324 616 c 2
 182 528 l 1
 126 528 l 1
340 326 m 1
 315 326 l 1
 300 369 289 388 268 408 c 0
 246 429 220 440 193 440 c 0
 155 440 127 415 127 382 c 0
 127 348 155 322 223 294 c 0
 323 252 361 209 361 138 c 0
 361 48 298 -14 207 -14 c 0
 179 -14 128 -3 99 9 c 0
 89 13 81 15 76 15 c 0
 67 15 61 8 50 -13 c 1
 25 -13 l 1
 25 152 l 1
 53 152 l 1
 74 65 120 20 190 20 c 0
 235 20 265 46 265 85 c 0
 265 117 238 142 169 172 c 0
 68 215 27 261 27 327 c 0
 27 411 93 473 184 473 c 0
 207 473 230 469 262 458 c 0
 278 453 287 451 293 451 c 0
 306 451 312 456 318 471 c 1
 340 471 l 1
 340 326 l 1
EndSplineSet
EndChar

StartChar: uni015C
Encoding: 348 348 283
Width: 556
Flags: MW
HStem: -19 33<243 306.5 239 339> 660 31<228.5 282.5 195 285.5>
LayerCount: 2
Fore
SplineSet
449 738 m 1
 392 738 l 1
 280 836 l 1
 168 738 l 1
 112 738 l 1
 234 914 l 1
 326 914 l 1
 449 738 l 1
484 474 m 1
 456 474 l 1
 436 539 420 569 386 604 c 0
 350 641 308 660 263 660 c 0
 194 660 153 618 153 561 c 0
 153 512 176 489 256 447 c 0
 305 421 353 398 404 370 c 0
 468 335 513 270 513 194 c 0
 513 68 413 -19 265 -19 c 0
 221 -19 184 -12 135 5 c 0
 113 12 102 15 94 15 c 0
 78 15 70 7 64 -19 c 1
 35 -19 l 1
 35 229 l 1
 64 229 l 1
 81 158 95 123 124 86 c 0
 162 38 210 14 268 14 c 0
 345 14 394 58 394 127 c 0
 394 163 371 191 337 215 c 0
 303 239 258 259 215 280 c 0
 102 334 44 389 44 490 c 0
 44 617 127 691 263 691 c 0
 302 691 334 685 380 668 c 0
 401 661 413 659 422 659 c 0
 440 659 447 665 454 692 c 1
 484 692 l 1
 484 474 l 1
EndSplineSet
EndChar

StartChar: uni015D
Encoding: 349 349 284
Width: 389
Flags: MW
HStem: -14 34<193 212.5 155 252.5> 440 33<174 195.5 138.5 206.5>
LayerCount: 2
Fore
SplineSet
359 528 m 1
 302 528 l 1
 190 626 l 1
 78 528 l 1
 22 528 l 1
 144 704 l 1
 236 704 l 1
 359 528 l 1
340 326 m 1
 315 326 l 1
 300 369 289 388 268 408 c 0
 246 429 220 440 193 440 c 0
 155 440 127 415 127 382 c 0
 127 348 155 322 223 294 c 0
 323 252 361 209 361 138 c 0
 361 48 298 -14 207 -14 c 0
 179 -14 128 -3 99 9 c 0
 89 13 81 15 76 15 c 0
 67 15 61 8 50 -13 c 1
 25 -13 l 1
 25 152 l 1
 53 152 l 1
 74 65 120 20 190 20 c 0
 235 20 265 46 265 85 c 0
 265 117 238 142 169 172 c 0
 68 215 27 261 27 327 c 0
 27 411 93 473 184 473 c 0
 207 473 230 469 262 458 c 0
 278 453 287 451 293 451 c 0
 306 451 312 456 318 471 c 1
 340 471 l 1
 340 326 l 1
EndSplineSet
EndChar

StartChar: uni015E
Encoding: 350 350 285
Width: 556
Flags: MW
HStem: -218 41<236 250 223 292.5> 660 31<228.5 282.5 195 285.5> 672 20<454 484 484 484>
VStem: 289 93<-149.5 -124.5>
LayerCount: 2
Fore
SplineSet
204 -96 m 1xd0
 239 -18 l 1
 205 -16 174 -9 135 5 c 0
 113 12 102 15 94 15 c 0
 78 15 70 7 64 -19 c 1
 35 -19 l 1
 35 229 l 1
 64 229 l 1
 81 158 95 123 124 86 c 0
 162 38 210 14 268 14 c 0
 345 14 394 58 394 127 c 0
 394 163 371 191 337 215 c 0
 303 239 258 259 215 280 c 0
 102 334 44 389 44 490 c 0
 44 617 127 691 263 691 c 0x50
 302 691 334 685 380 668 c 0
 401 661 413 659 422 659 c 0
 440 659 447 665 454 692 c 1
 484 692 l 1x30
 484 474 l 1
 456 474 l 1
 436 539 420 569 386 604 c 0
 350 641 308 660 263 660 c 0
 194 660 153 618 153 561 c 0
 153 512 176 489 256 447 c 0
 305 421 353 398 404 370 c 0
 468 335 513 270 513 194 c 0
 513 73 420 -13 281 -18 c 1
 261 -64 l 1
 273 -60 281 -59 293 -59 c 0
 349 -59 382 -85 382 -129 c 0
 382 -184 332 -218 253 -218 c 0
 219 -218 193 -213 156 -200 c 1
 172 -163 l 1
 178 -165 l 2
 202 -173 215 -177 231 -177 c 0
 269 -177 289 -163 289 -136 c 0
 289 -113 272 -100 243 -100 c 0
 234 -100 226 -101 215 -104 c 1
 204 -96 l 1xd0
EndSplineSet
EndChar

StartChar: uni015F
Encoding: 351 351 286
Width: 389
Flags: MW
HStem: -218 41<181 195 168 237.5> -14 34<193 212.5 155 252.5> 0 20<192 212.5 155 234> 440 33<174 195.5 138.5 206.5>
VStem: 234 93<-149.5 -124.5>
LayerCount: 2
Fore
SplineSet
340 326 m 1
 315 326 l 1
 300 369 289 388 268 408 c 0
 246 429 220 440 193 440 c 0
 155 440 127 415 127 382 c 0
 127 348 155 322 223 294 c 0
 323 252 361 209 361 138 c 0
 361 55 307 -4 228 -13 c 1
 206 -64 l 1
 218 -60 226 -59 238 -59 c 0
 294 -59 327 -85 327 -129 c 0
 327 -184 277 -218 198 -218 c 0
 164 -218 138 -213 101 -200 c 1
 117 -163 l 1
 123 -165 l 2
 147 -173 160 -177 176 -177 c 0
 214 -177 234 -163 234 -136 c 0
 234 -113 217 -100 188 -100 c 0
 179 -100 171 -101 160 -104 c 1
 149 -96 l 1
 186 -13 l 1
 158 -10 122 0 99 9 c 0
 89 13 81 15 76 15 c 0
 67 15 61 8 50 -13 c 1
 25 -13 l 1
 25 152 l 1
 53 152 l 1
 74 65 120 20 190 20 c 0
 235 20 265 46 265 85 c 0
 265 117 238 142 169 172 c 0
 68 215 27 261 27 327 c 0
 27 411 93 473 184 473 c 0
 207 473 230 469 262 458 c 0
 278 453 287 451 293 451 c 0
 306 451 312 456 318 471 c 1
 340 471 l 1
 340 326 l 1
EndSplineSet
EndChar

StartChar: Scaron
Encoding: 352 352 287
Width: 556
Flags: MW
HStem: -19 33<243 306.5 239 339> 660 31<228.5 282.5 195 285.5>
LayerCount: 2
Fore
SplineSet
449 914 m 1
 326 738 l 1
 234 738 l 1
 112 914 l 1
 169 914 l 1
 280 815 l 1
 391 914 l 1
 449 914 l 1
484 474 m 1
 456 474 l 1
 436 539 420 569 386 604 c 0
 350 641 308 660 263 660 c 0
 194 660 153 618 153 561 c 0
 153 512 176 489 256 447 c 0
 305 421 353 398 404 370 c 0
 468 335 513 270 513 194 c 0
 513 68 413 -19 265 -19 c 0
 221 -19 184 -12 135 5 c 0
 113 12 102 15 94 15 c 0
 78 15 70 7 64 -19 c 1
 35 -19 l 1
 35 229 l 1
 64 229 l 1
 81 158 95 123 124 86 c 0
 162 38 210 14 268 14 c 0
 345 14 394 58 394 127 c 0
 394 163 371 191 337 215 c 0
 303 239 258 259 215 280 c 0
 102 334 44 389 44 490 c 0
 44 617 127 691 263 691 c 0
 302 691 334 685 380 668 c 0
 401 661 413 659 422 659 c 0
 440 659 447 665 454 692 c 1
 484 692 l 1
 484 474 l 1
EndSplineSet
EndChar

StartChar: scaron
Encoding: 353 353 288
Width: 389
Flags: MW
HStem: -14 34<193 212.5 155 252.5> 440 33<174 195.5 138.5 206.5>
LayerCount: 2
Fore
SplineSet
359 704 m 1
 236 528 l 1
 144 528 l 1
 22 704 l 1
 79 704 l 1
 190 605 l 1
 301 704 l 1
 359 704 l 1
340 326 m 1
 315 326 l 1
 300 369 289 388 268 408 c 0
 246 429 220 440 193 440 c 0
 155 440 127 415 127 382 c 0
 127 348 155 322 223 294 c 0
 323 252 361 209 361 138 c 0
 361 48 298 -14 207 -14 c 0
 179 -14 128 -3 99 9 c 0
 89 13 81 15 76 15 c 0
 67 15 61 8 50 -13 c 1
 25 -13 l 1
 25 152 l 1
 53 152 l 1
 74 65 120 20 190 20 c 0
 235 20 265 46 265 85 c 0
 265 117 238 142 169 172 c 0
 68 215 27 261 27 327 c 0
 27 411 93 473 184 473 c 0
 207 473 230 469 262 458 c 0
 278 453 287 451 293 451 c 0
 306 451 312 456 318 471 c 1
 340 471 l 1
 340 326 l 1
EndSplineSet
EndChar

StartChar: uni0162
Encoding: 354 354 289
Width: 667
Flags: MW
HStem: -218 41<306 320 293 362.5> 0 20 656 20<34 634 634 634>
VStem: 359 93<-149.5 -124.5>
LayerCount: 2
Fore
SplineSet
317 0 m 1
 156 0 l 1
 156 25 l 1
 242 32 253 43 253 117 c 2
 253 644 l 1
 129 640 77 594 60 475 c 1
 31 475 l 1
 34 676 l 1
 634 676 l 1
 636 475 l 1
 607 475 l 1
 590 594 538 640 415 644 c 1
 415 117 l 2
 415 41 426 31 513 25 c 1
 513 0 l 1
 359 0 l 1
 331 -64 l 1
 343 -60 351 -59 363 -59 c 0
 419 -59 452 -85 452 -129 c 0
 452 -184 402 -218 323 -218 c 0
 289 -218 263 -213 226 -200 c 1
 242 -163 l 1
 248 -165 l 2
 272 -173 285 -177 301 -177 c 0
 339 -177 359 -163 359 -136 c 0
 359 -113 342 -100 313 -100 c 0
 304 -100 296 -101 285 -104 c 1
 274 -96 l 1
 317 0 l 1
EndSplineSet
EndChar

StartChar: uni0163
Encoding: 355 355 290
Width: 333
Flags: MW
HStem: -218 41<144 158 131 200.5> 417 44<211 306 211 306>
VStem: 197 93<-149.5 -124.5>
LayerCount: 2
Fore
SplineSet
112 -96 m 1
 151 -9 l 1
 102 2 72 39 72 95 c 2
 72 417 l 1
 19 417 l 1
 19 444 l 1
 91 493 128 546 186 630 c 1
 211 630 l 1
 211 461 l 1
 306 461 l 1
 306 417 l 1
 211 417 l 1
 211 119 l 2
 211 79 222 59 250 59 c 0
 271 59 287 74 307 112 c 1
 332 101 l 1
 293 22 254 -9 192 -12 c 1
 169 -64 l 1
 181 -60 189 -59 201 -59 c 0
 257 -59 290 -85 290 -129 c 0
 290 -184 240 -218 161 -218 c 0
 127 -218 101 -213 64 -200 c 1
 80 -163 l 1
 86 -165 l 2
 110 -173 123 -177 139 -177 c 0
 177 -177 197 -163 197 -136 c 0
 197 -113 180 -100 151 -100 c 0
 142 -100 134 -101 123 -104 c 1
 112 -96 l 1
EndSplineSet
EndChar

StartChar: uni0164
Encoding: 356 356 291
Width: 667
Flags: MW
HStem: 0 20 656 20<34 634 634 634>
LayerCount: 2
Fore
SplineSet
502 914 m 1
 379 738 l 1
 287 738 l 1
 165 914 l 1
 222 914 l 1
 333 815 l 1
 444 914 l 1
 502 914 l 1
636 475 m 1
 607 475 l 1
 590 594 538 640 415 644 c 1
 415 117 l 2
 415 41 426 31 513 25 c 1
 513 0 l 1
 156 0 l 1
 156 25 l 1
 242 32 253 43 253 117 c 2
 253 644 l 1
 129 640 77 594 60 475 c 1
 31 475 l 1
 34 676 l 1
 634 676 l 1
 636 475 l 1
EndSplineSet
EndChar

StartChar: uni0165
Encoding: 357 357 292
Width: 415
Flags: MW
HStem: -12 71<149.5 260.5> 417 44<211 271 211 271>
VStem: 377 68<509.5 628.5>
LayerCount: 2
Fore
SplineSet
279 374 m 1
 268 396 l 1
 343 448 377 490 377 529 c 0
 377 541 369 550 358 550 c 0
 351 550 344 548 334 548 c 0
 291 548 261 578 261 624 c 0
 261 676 295 709 345 709 c 0
 408 709 445 664 445 593 c 0
 445 507 395 435 279 374 c 1
307 112 m 1
 332 101 l 1
 291 19 251 -12 184 -12 c 0
 115 -12 72 28 72 95 c 2
 72 417 l 1
 19 417 l 1
 19 444 l 1
 91 493 128 546 186 630 c 1
 211 630 l 1
 211 461 l 1
 271 461 l 1
 271 417 l 1
 211 417 l 1
 211 119 l 2
 211 79 222 59 250 59 c 0
 271 59 287 74 307 112 c 1
EndSplineSet
EndChar

StartChar: uni0166
Encoding: 358 358 293
Width: 667
Flags: MW
HStem: 0 20 322 34<139 253 139 253 415 525> 656 20<34 634 634 634>
LayerCount: 2
Fore
SplineSet
636 475 m 1
 607 475 l 1
 590 594 538 640 415 644 c 1
 415 356 l 1
 525 356 l 1
 525 322 l 1
 415 322 l 1
 415 117 l 2
 415 41 426 31 513 25 c 1
 513 0 l 1
 156 0 l 1
 156 25 l 1
 242 32 253 43 253 117 c 2
 253 322 l 1
 139 322 l 1
 139 356 l 1
 253 356 l 1
 253 644 l 1
 129 640 77 594 60 475 c 1
 31 475 l 1
 34 676 l 1
 634 676 l 1
 636 475 l 1
EndSplineSet
EndChar

StartChar: uni0167
Encoding: 359 359 294
Width: 333
Flags: MW
HStem: -12 71<149.5 260.5> 229 56<17 72 17 72 211 303> 417 44<211 306 211 306>
LayerCount: 2
Fore
SplineSet
307 112 m 1
 332 101 l 1
 291 19 251 -12 184 -12 c 0
 115 -12 72 28 72 95 c 2
 72 229 l 1
 17 229 l 1
 17 285 l 1
 72 285 l 1
 72 417 l 1
 19 417 l 1
 19 444 l 1
 91 493 128 546 186 630 c 1
 211 630 l 1
 211 461 l 1
 306 461 l 1
 306 417 l 1
 211 417 l 1
 211 285 l 1
 303 285 l 1
 303 229 l 1
 211 229 l 1
 211 119 l 2
 211 79 222 59 250 59 c 0
 271 59 287 74 307 112 c 1
EndSplineSet
EndChar

StartChar: uni0168
Encoding: 360 360 295
Width: 722
Flags: MW
HStem: -19 49<354.5 398.5> 656 20<16 352 352 352 482 701 701 701> 759 78<470.5 485> 808 78<293 305.5>
VStem: 579 44<252 552 552 566>
LayerCount: 2
Fore
SplineSet
530 886 m 1x18
 573 886 l 1xd8
 550 799 513 759 457 759 c 0x28
 436 759 411 765 392 773 c 2
 363 786 l 2
 319 806 312 808 299 808 c 0
 273 808 254 789 250 761 c 1
 208 761 l 1
 226 847 262 886 324 886 c 0x18
 345 886 368 880 397 867 c 2
 437 849 l 2
 462 838 465 837 476 837 c 0x28
 503 837 517 850 530 886 c 1x18
701 676 m 1
 701 651 l 1
 637 641 623 625 623 566 c 2
 623 252 l 2
 623 152 596 75 547 36 c 0
 504 1 434 -19 363 -19 c 0
 289 -19 225 -2 178 35 c 0
 121 80 98 134 98 231 c 2
 98 555 l 2
 98 636 86 644 16 651 c 1
 16 676 l 1
 352 676 l 1
 352 651 l 1
 274 645 257 632 257 550 c 2
 257 232 l 2
 257 93 306 30 403 30 c 0
 520 30 579 104 579 252 c 2
 579 552 l 2
 579 625 556 645 482 651 c 1
 482 676 l 1
 701 676 l 1
EndSplineSet
EndChar

StartChar: uni0169
Encoding: 361 361 296
Width: 556
Flags: MW
HStem: -14 65<156.5 274.5> 0 20<538 538> 441 20<16 204 204 204 281 481 481 481> 547 78<345.5 360> 596 78<168 180.5>
LayerCount: 2
Fore
SplineSet
405 674 m 1x08
 448 674 l 1x68
 425 587 388 547 332 547 c 0x10
 311 547 286 553 267 561 c 2
 238 574 l 2
 194 594 187 596 174 596 c 0
 148 596 129 577 125 549 c 1
 83 549 l 1
 101 635 137 674 199 674 c 0x08
 220 674 243 668 272 655 c 2
 312 637 l 2
 337 626 340 625 351 625 c 0x10
 378 625 392 638 405 674 c 1x08
538 20 m 1
 475 13 l 2
 410 6 386 2 343 -13 c 1
 343 52 l 1
 291 3 253 -14 198 -14 c 0
 115 -14 65 38 65 131 c 2
 65 372 l 2
 65 418 57 429 16 437 c 1
 16 461 l 1
 204 461 l 1
 204 127 l 2
 204 71 224 51 260 51 c 0xa0
 289 51 311 64 342 98 c 1
 342 374 l 2
 342 419 331 433 281 437 c 1
 281 461 l 1
 481 461 l 1
 481 105 l 2
 481 61 494 45 538 43 c 1
 538 20 l 1
EndSplineSet
EndChar

StartChar: uni016A
Encoding: 362 362 297
Width: 722
Flags: MW
HStem: -19 49<354.5 398.5> 656 20<16 352 352 352 482 701 701 701> 738 72<185 515 185 515>
VStem: 579 44<252 552 552 566>
LayerCount: 2
Fore
SplineSet
515 738 m 1
 185 738 l 1
 185 810 l 1
 515 810 l 1
 515 738 l 1
701 676 m 1
 701 651 l 1
 637 641 623 625 623 566 c 2
 623 252 l 2
 623 152 596 75 547 36 c 0
 504 1 434 -19 363 -19 c 0
 289 -19 225 -2 178 35 c 0
 121 80 98 134 98 231 c 2
 98 555 l 2
 98 636 86 644 16 651 c 1
 16 676 l 1
 352 676 l 1
 352 651 l 1
 274 645 257 632 257 550 c 2
 257 232 l 2
 257 93 306 30 403 30 c 0
 520 30 579 104 579 252 c 2
 579 552 l 2
 579 625 556 645 482 651 c 1
 482 676 l 1
 701 676 l 1
EndSplineSet
EndChar

StartChar: uni016B
Encoding: 363 363 298
Width: 556
Flags: MW
HStem: -14 65<156.5 274.5> 0 20<538 538> 441 20<16 204 204 204 281 481 481 481> 528 72<95 425 95 425>
LayerCount: 2
Fore
SplineSet
425 528 m 1x70
 95 528 l 1
 95 600 l 1
 425 600 l 1
 425 528 l 1x70
538 20 m 1
 475 13 l 2
 410 6 386 2 343 -13 c 1
 343 52 l 1
 291 3 253 -14 198 -14 c 0
 115 -14 65 38 65 131 c 2
 65 372 l 2
 65 418 57 429 16 437 c 1
 16 461 l 1
 204 461 l 1
 204 127 l 2
 204 71 224 51 260 51 c 0xa0
 289 51 311 64 342 98 c 1
 342 374 l 2
 342 419 331 433 281 437 c 1
 281 461 l 1
 481 461 l 1
 481 105 l 2
 481 61 494 45 538 43 c 1
 538 20 l 1
EndSplineSet
EndChar

